<svg xmlns="http://www.w3.org/2000/svg" viewBox="0 0 64 64" width="64" height="64" aria-hidden="true" focusable="false">
  <g transform="translate(9.45988 4) scale(0.406373)">
    <defs id="defs830">
      <clipPath clipPathUnits="userSpaceOnUse" id="clipPath842">
        <path d="m 617.218,851.024 c -17.894,-1 -60.843,-6.001 -77.205,-7.5 v 0 c -16.361,-1.5 -69.363,-8.833 -95.953,-12.5 v 0 c -26.588,-3.667 -67.538,-11.332 -94.126,-15.999 v 0 c -26.586,-4.669 -87.832,-19.502 -87.832,-19.502 v 0 c 0,0 -57.168,-15.685 -102.165,-30.594 v 0 C 119.45,751.512 80.02,735.357 80.02,735.357 v 0 L 0,702.851 V 204.962 c 10.503,-5.01 24.458,-11.668 40.505,-19.325 v 0 C 95.107,159.58 150.783,137.384 212.06,116.952 v 0 C 284.924,92.559 395.237,67.507 481.972,54.294 v 0 c 52.92,-8.061 95.444,-13.513 141.65,-17.925 v 0 815.03 c -2.159,-0.131 -4.317,-0.258 -6.404,-0.375" id="path840" />
      </clipPath>
      <clipPath clipPathUnits="userSpaceOnUse" id="clipPath856">
        <path d="M 0,0 H 623.622 V 870.236 H 0 Z" id="path854" />
      </clipPath>
      <clipPath clipPathUnits="userSpaceOnUse" id="clipPath1046">
        <path d="M 0,0 H 623.622 V 870.236 H 0 Z" id="path1044" />
      </clipPath>
      <linearGradient x1="0" y1="0" x2="1" y2="0" gradientUnits="userSpaceOnUse" gradientTransform="matrix(60.768768,0,0,-60.768753,459.83478,772.44853)" spreadMethod="pad" id="linearGradient1200">
        <stop style="stop-opacity:1;stop-color:#b90030" offset="0" id="stop1196" />
        <stop style="stop-opacity:1;stop-color:#910020" offset="1" id="stop1198" />
      </linearGradient>
      <clipPath clipPathUnits="userSpaceOnUse" id="clipPath1210">
        <path d="M 0,0 H 623.622 V 870.236 H 0 Z" id="path1208" />
      </clipPath>
      <clipPath clipPathUnits="userSpaceOnUse" id="clipPath1238">
        <path d="M 0,0 H 623.622 V 870.236 H 0 Z" id="path1236" />
      </clipPath>
    </defs>
    <g id="g834" transform="matrix(1.3333333,0,0,-1.3333333,-598.11012,1028.9769)">
      <g id="g1040">
        <g id="g1042" clip-path="url(#clipPath1046)">
          <g id="g1048" transform="translate(469.6374,681.7274)">
            <path d="m 0,0 c -9.159,-1.025 -20.304,1.02 -20.304,1.02 v -9.164 c 0,0 6.536,-2.81 18.574,-1.601 0,0.334 0.003,7.789 0.003,7.789 0.019,0.263 0.156,1.134 1.144,1.329 C -0.152,-0.541 -0.034,-0.181 0,0" style="fill:#ffffff;fill-opacity:1;fill-rule:nonzero;stroke:none" id="path1050" />
          </g>
          <g id="g1052" transform="translate(461.4724,686.8798)">
            <path d="m 0,0 c -2.718,0 -4.322,0.461 -5.145,0.805 v -2.844 c 2.744,0.038 5.626,0.254 8.26,1.41 C 2.959,-0.433 2.349,0 0,0" style="fill:#ffffff;fill-opacity:1;fill-rule:nonzero;stroke:none" id="path1054" />
          </g>
          <g id="g1056" transform="translate(500.8134,679.2136)">
            <path d="m 0,0 c -2.234,0.438 -6.008,0.657 -10.628,0.615 h -0.006 C -15.254,0.657 -19.029,0.438 -21.262,0 c 0,0 -4.882,-1.013 -8.524,-1.013 -1.618,0 -2.371,0.499 -2.371,0.499 V -9.32 c 0.119,-0.172 1.448,-1.655 10.755,0.055 6.491,1.192 10.292,1.136 10.771,1.136 0.479,0 4.28,0.056 10.772,-1.136 9.307,-1.71 10.635,-0.227 10.754,-0.055 v 8.806 c 0,0 -0.753,-0.499 -2.371,-0.499 C 4.882,-1.013 0,0 0,0" style="fill:#ffffff;fill-opacity:1;fill-rule:nonzero;stroke:none" id="path1058" />
          </g>
          <g id="g1060" transform="translate(524.0376,687.6852)">
            <path d="m 0,0 c -0.823,-0.345 -2.427,-0.805 -5.145,-0.805 -2.348,0 -2.959,-0.433 -3.115,-0.629 2.634,-1.156 5.517,-1.373 8.26,-1.411 z" style="fill:#ffffff;fill-opacity:1;fill-rule:nonzero;stroke:none" id="path1062" />
          </g>
          <g id="g1064" transform="translate(510.7271,681.7274)">
            <path d="m 0,0 c 0.034,-0.181 0.152,-0.541 0.584,-0.627 0.988,-0.195 1.125,-1.066 1.143,-1.329 0,0 0.003,-7.455 0.004,-7.789 12.038,-1.209 18.574,1.601 18.574,1.601 V 1.02 C 20.305,1.02 9.16,-1.025 0,0" style="fill:#ffffff;fill-opacity:1;fill-rule:nonzero;stroke:none" id="path1066" />
          </g>
          <g id="g1068" transform="translate(451.3423,680.0974)">
            <path d="m 0,0 c 0.148,-0.158 0.225,-0.306 0.225,-0.449 0,-0.124 -0.077,-0.328 -0.23,-0.624 0,-1.331 0.009,-2.323 0.03,-2.978 0,-0.096 -0.046,-0.148 -0.138,-0.148 -0.072,0 -0.112,0.087 -0.118,0.251 v 2.476 c -0.077,-0.133 -0.148,-0.246 -0.21,-0.338 -0.103,-0.159 -0.178,-0.236 -0.225,-0.236 -0.087,0.011 -0.132,0.056 -0.137,0.149 0,0.056 0.031,0.128 0.097,0.209 0.091,0.113 0.184,0.261 0.287,0.435 0.234,0.404 0.357,0.671 0.357,0.793 0,0.113 -0.087,0.235 -0.251,0.378 -0.082,0.062 -0.118,0.123 -0.118,0.185 0.026,0.071 0.073,0.112 0.134,0.112 C -0.225,0.205 -0.128,0.133 0,0 m 0.578,-0.51 c 0,-0.206 -0.005,-0.405 -0.011,-0.6 0,-0.286 0,-0.561 0.011,-0.839 0,-0.092 -0.041,-0.133 -0.118,-0.133 -0.066,0 -0.102,0.072 -0.108,0.225 v 0.707 c 0,0.276 -0.006,0.486 -0.014,0.64 0,0.081 0.039,0.132 0.122,0.158 0.077,-0.01 0.118,-0.067 0.118,-0.158 M 1.682,-2.388 C 1.682,-2.444 1.609,-2.506 1.467,-2.572 1.253,-2.695 1.032,-2.832 0.812,-2.992 0.67,-3.13 0.567,-3.196 0.506,-3.196 0.45,-3.192 0.418,-3.155 0.414,-3.084 c 0,0.062 0.159,0.21 0.486,0.45 0.368,0.23 0.594,0.348 0.665,0.353 0.077,0 0.117,-0.036 0.117,-0.107 m -0.02,0.434 C 1.662,-2 1.494,-2.102 1.155,-2.26 0.829,-2.454 0.639,-2.547 0.593,-2.547 c -0.082,0 -0.128,0.041 -0.133,0.123 0,0.041 0.092,0.107 0.286,0.2 0.46,0.266 0.717,0.399 0.773,0.404 0.09,0 0.143,-0.046 0.143,-0.134 M 1.77,-2.936 c 0,-0.056 -0.072,-0.118 -0.21,-0.189 -0.214,-0.122 -0.425,-0.266 -0.641,-0.43 -0.137,-0.143 -0.238,-0.209 -0.3,-0.209 -0.052,0.005 -0.082,0.041 -0.087,0.107 0,0.067 0.153,0.22 0.47,0.465 0.363,0.235 0.578,0.36 0.65,0.363 0.076,0 0.118,-0.035 0.118,-0.107 m -0.144,2.027 c 0.052,0.127 0.082,0.25 0.092,0.367 0.005,0.021 0.015,0.037 0.026,0.046 -0.25,0 -0.466,0.005 -0.64,0.011 -0.005,-0.011 -0.01,-0.02 -0.01,-0.02 C 1.043,-0.608 0.997,-0.685 0.957,-0.746 0.926,-0.802 0.885,-0.828 0.824,-0.828 c -0.062,0 -0.103,0.031 -0.113,0.098 0,0.019 0.016,0.045 0.045,0.081 0.031,0.051 0.073,0.118 0.119,0.21 0.03,0.072 0.061,0.143 0.086,0.22 0.021,0.051 0.036,0.112 0.056,0.179 C 1.028,0.098 1.079,0.169 1.16,0.169 1.232,0.159 1.274,0.108 1.274,0.016 1.274,-0.02 1.253,-0.096 1.217,-0.208 1.206,-0.234 1.201,-0.255 1.191,-0.276 1.472,-0.28 1.815,-0.28 2.225,-0.28 c 0.061,0 0.101,-0.037 0.118,-0.103 0,-0.077 -0.042,-0.113 -0.118,-0.113 H 1.943 C 1.954,-0.516 1.959,-0.537 1.964,-0.551 1.943,-0.705 1.913,-0.844 1.861,-0.971 1.913,-0.992 1.954,-1.018 1.984,-1.048 2.05,-1.17 2.097,-1.487 2.118,-1.99 2.133,-2.619 2.179,-3.134 2.25,-3.534 c 0.072,-0.281 0.108,-0.46 0.108,-0.542 0,-0.062 -0.041,-0.092 -0.113,-0.103 -0.056,0 -0.097,0.026 -0.127,0.077 -0.093,0.215 -0.159,0.711 -0.2,1.5 -0.031,0.705 -0.076,1.175 -0.139,1.4 C 1.77,-1.191 1.764,-1.186 1.754,-1.176 1.713,-1.247 1.667,-1.304 1.616,-1.355 1.535,-1.457 1.431,-1.544 1.299,-1.626 1.232,-1.666 1.182,-1.692 1.141,-1.708 1.099,-1.729 1.053,-1.738 1.013,-1.738 0.951,-1.734 0.91,-1.692 0.9,-1.616 c 0.005,0.022 0.041,0.047 0.102,0.077 0.102,0.046 0.204,0.112 0.302,0.194 0.082,0.077 0.149,0.154 0.205,0.231 H 1.043 c -0.061,0 -0.086,0.035 -0.086,0.107 0.004,0.056 0.035,0.088 0.086,0.098 0.102,0 0.215,0.004 0.328,0.014 0.092,0 0.178,-0.004 0.255,-0.014" style="fill:#b90030;fill-opacity:1;fill-rule:nonzero;stroke:none" id="path1070" />
          </g>
          <g id="g1072" transform="translate(455.6826,679.2275)">
            <path d="m 0,0 h 1.018 c 0.215,0 0.332,-0.08 0.353,-0.24 0.015,-0.056 0.026,-0.245 0.026,-0.562 0,-0.292 -0.134,-0.435 -0.393,-0.435 L 0.035,-1.248 c -0.184,0 -0.286,-0.107 -0.31,-0.323 l -0.037,-0.648 c 0,-0.318 0.163,-0.471 0.486,-0.471 0.317,-0.016 0.547,-0.042 0.681,-0.081 0.193,-0.057 0.353,-0.139 0.48,-0.246 0.266,-0.225 0.404,-0.558 0.41,-0.988 0,-0.122 -0.047,-0.185 -0.138,-0.185 -0.094,0 -0.134,0.072 -0.134,0.206 -0.016,0.322 -0.138,0.577 -0.368,0.772 -0.071,0.072 -0.194,0.133 -0.363,0.184 -0.19,0.041 -0.41,0.062 -0.66,0.073 -0.445,0 -0.666,0.229 -0.666,0.699 l 0.052,0.83 c 0.036,0.291 0.226,0.44 0.567,0.45 l 0.845,0.005 c 0.154,0 0.231,0.061 0.24,0.189 l -0.009,0.353 c 0,0.113 -0.057,0.169 -0.16,0.169 l -1.483,-0.021 c -0.087,0.011 -0.132,0.067 -0.138,0.159 0.01,0.087 0.077,0.138 0.189,0.153 C -0.347,0.011 -0.19,0 0,0" style="fill:#b90030;fill-opacity:1;fill-rule:nonzero;stroke:none" id="path1074" />
          </g>
          <g id="g1076" transform="translate(459.8391,678.9722)">
            <path d="m 0,0 c 0,-0.5 -0.011,-0.797 -0.026,-0.894 -0.016,-0.215 -0.112,-0.353 -0.287,-0.415 -0.173,-0.071 -0.259,-0.21 -0.259,-0.414 0,-1.243 -0.042,-1.985 -0.118,-2.23 -0.021,-0.093 -0.068,-0.137 -0.139,-0.137 -0.087,0 -0.128,0.044 -0.128,0.137 0.102,0.25 0.159,0.992 0.159,2.23 0,0.266 0.087,0.45 0.265,0.553 0.154,0.076 0.236,0.174 0.252,0.285 0.015,0.098 0.025,0.395 0.025,0.885 0,0.073 0.036,0.113 0.113,0.134 C -0.051,0.134 0,0.088 0,0 m -0.507,-0.122 c 0,-0.429 -0.015,-0.675 -0.04,-0.737 -0.01,-0.081 -0.057,-0.122 -0.143,-0.122 -0.056,0 -0.093,0.036 -0.113,0.107 0.036,0.082 0.057,0.338 0.057,0.777 0.009,0.056 0.044,0.088 0.106,0.097 0.088,0 0.133,-0.041 0.133,-0.122 m 0.44,-1.652 c 0,-1.219 -0.03,-1.913 -0.088,-2.097 -0.009,-0.077 -0.055,-0.118 -0.137,-0.118 -0.051,0 -0.093,0.036 -0.111,0.107 0.06,0.216 0.095,0.925 0.095,2.133 0.011,0.057 0.047,0.088 0.108,0.097 0.087,0 0.133,-0.04 0.133,-0.122 M 1.07,-2.669 C 0.966,-2.674 0.859,-2.679 0.752,-2.69 0.618,-2.699 0.533,-2.704 0.501,-2.71 c -0.072,0 -0.107,0.041 -0.113,0.127 0,0.063 0.052,0.098 0.159,0.107 0.066,0.006 0.139,0.011 0.216,0.016 L 0.649,-2.005 C 0.516,-2.01 0.382,-2.014 0.251,-2.02 c -0.088,0 -0.132,0.041 -0.139,0.123 0,0.04 0.036,0.076 0.113,0.103 0.169,0.01 0.435,0.02 0.798,0.031 -0.005,0.014 -0.005,0.03 -0.005,0.045 v 0.194 c -0.154,-0.005 -0.317,-0.01 -0.502,-0.02 -0.092,0 -0.137,0.04 -0.137,0.122 0,0.042 0.035,0.072 0.107,0.104 0.118,0.009 0.296,0.015 0.542,0.025 0,0.082 0.005,0.159 0.01,0.241 0.005,0.091 0.041,0.143 0.112,0.148 0.082,0 0.124,-0.047 0.134,-0.129 -0.005,-0.091 -0.005,-0.178 -0.005,-0.26 0.143,-0.006 0.311,-0.01 0.496,-0.016 0.081,-0.015 0.129,-0.05 0.129,-0.102 0,-0.082 -0.048,-0.123 -0.129,-0.123 -0.155,0 -0.322,0 -0.507,0.005 0,-0.076 -0.004,-0.153 -0.004,-0.224 v -0.01 C 1.478,-1.769 1.728,-1.774 2.015,-1.784 2.102,-1.8 2.149,-1.835 2.149,-1.887 2.149,-1.969 2.102,-2.01 2.015,-2.01 H 1.677 C 1.632,-2.142 1.585,-2.291 1.54,-2.449 1.62,-2.46 1.688,-2.465 1.749,-2.465 1.831,-2.47 1.878,-2.511 1.878,-2.583 c 0,-0.071 -0.041,-0.107 -0.124,-0.107 -0.03,0 -0.112,0.005 -0.235,0.021 H 1.3 C 1.3,-2.767 1.304,-2.853 1.304,-2.93 1.55,-2.935 1.749,-2.94 1.913,-2.95 2,-2.961 2.046,-3.002 2.046,-3.073 c 0,-0.077 -0.041,-0.113 -0.122,-0.113 -0.043,0 -0.139,0.005 -0.292,0.02 H 1.31 c 0.005,-0.419 0.014,-0.685 0.025,-0.808 0,-0.102 -0.051,-0.154 -0.148,-0.154 -0.087,0 -0.128,0.063 -0.128,0.175 0.004,0.071 0.011,0.326 0.011,0.787 -0.124,-0.005 -0.252,-0.009 -0.38,-0.02 -0.169,-0.01 -0.276,-0.016 -0.316,-0.021 -0.072,0 -0.107,0.041 -0.113,0.134 0,0.066 0.05,0.102 0.163,0.112 0.194,0.011 0.41,0.021 0.646,0.031 z m 0.761,2.691 c 0.189,0 0.286,-0.088 0.286,-0.251 l -0.01,-0.828 c 0,-0.073 -0.035,-0.104 -0.102,-0.104 -0.071,0 -0.118,0.027 -0.133,0.083 l -0.011,0.793 c 0,0.051 -0.051,0.081 -0.152,0.096 -0.047,0.011 -0.107,0.016 -0.179,0.027 v -0.252 c 0,-0.082 0,-0.168 0.005,-0.255 0.041,0 0.081,-0.005 0.127,-0.005 0.082,-0.011 0.128,-0.046 0.128,-0.098 0,-0.081 -0.046,-0.118 -0.128,-0.118 -0.143,0 -0.312,0 -0.506,0.005 -0.133,0 -0.281,-0.005 -0.455,-0.015 -0.083,0 -0.128,0.036 -0.133,0.119 0,0.04 0.036,0.071 0.107,0.096 0.041,0.006 0.097,0.011 0.159,0.016 0,0.077 0.004,0.158 0.004,0.25 0,0.088 -0.004,0.169 -0.015,0.251 -0.06,0 -0.122,-0.005 -0.174,-0.005 -0.097,0 -0.148,-0.041 -0.16,-0.123 L 0.46,-1.084 c 0,-0.06 -0.041,-0.086 -0.122,-0.086 -0.062,0 -0.098,0.026 -0.107,0.076 L 0.24,-0.219 C 0.251,-0.05 0.379,0.036 0.634,0.036 0.746,0.047 0.926,0.057 1.171,0.057 1.505,0.047 1.724,0.036 1.831,0.022 M 1.437,-2.005 c -0.097,0 -0.2,0 -0.302,0.006 h -0.26 l 0.097,-0.45 c 0.056,0 0.112,0.005 0.168,0.005 h 0.17 c 0.055,0.173 0.097,0.322 0.127,0.439 m -0.281,1.351 c 0.052,0 0.103,-0.005 0.159,-0.005 0.005,0.077 0.009,0.159 0.009,0.245 0,0.094 -0.004,0.18 -0.014,0.261 H 1.171 c -0.051,0 -0.092,-0.004 -0.128,-0.004 v -0.262 c 0,-0.077 0,-0.158 0.005,-0.24 0.036,0 0.072,0.005 0.108,0.005" style="fill:#b90030;fill-opacity:1;fill-rule:nonzero;stroke:none" id="path1078" />
          </g>
          <g id="g1080" transform="translate(464.6008,678.4041)">
            <path d="m 0,0 c 0.215,-0.215 0.327,-0.389 0.327,-0.533 0,-0.163 -0.076,-0.331 -0.225,-0.501 0.173,-0.68 0.474,-1.35 0.91,-2.01 0.129,-0.194 0.266,-0.368 0.409,-0.526 0.098,-0.083 0.149,-0.155 0.149,-0.231 0,-0.092 -0.046,-0.138 -0.128,-0.138 -0.133,0 -0.374,0.286 -0.731,0.864 -0.354,0.594 -0.619,1.203 -0.792,1.816 -0.252,-0.317 -0.472,-0.66 -0.66,-1.037 -0.166,-0.379 -0.288,-0.727 -0.37,-1.05 -0.004,-0.066 -0.045,-0.096 -0.118,-0.096 -0.071,0 -0.101,0.04 -0.101,0.133 0.011,0.255 0.138,0.638 0.378,1.15 0.158,0.338 0.389,0.685 0.691,1.054 0.21,0.225 0.317,0.409 0.317,0.558 0,0.06 -0.056,0.148 -0.16,0.261 -0.091,0.097 -0.187,0.189 -0.281,0.27 -0.086,0.072 -0.131,0.138 -0.137,0.209 0.009,0.042 0.051,0.073 0.118,0.094 C -0.327,0.287 -0.195,0.188 0,0" style="fill:#b90030;fill-opacity:1;fill-rule:nonzero;stroke:none" id="path1082" />
          </g>
          <g id="g1084" transform="translate(514.466,678.61)">
            <path d="m 0,0 c 0.128,-0.176 0.195,-0.339 0.195,-0.492 0,-0.104 -0.046,-0.261 -0.129,-0.486 0,-1.355 0.005,-2.362 0.026,-3.024 0,-0.092 -0.046,-0.143 -0.133,-0.143 -0.072,0 -0.107,0.082 -0.112,0.235 v 2.415 c -0.051,-0.102 -0.092,-0.194 -0.128,-0.271 -0.076,-0.143 -0.133,-0.215 -0.163,-0.215 -0.067,0.005 -0.103,0.046 -0.108,0.117 0,0.052 0.019,0.118 0.066,0.2 0.061,0.108 0.123,0.246 0.189,0.41 0.159,0.384 0.241,0.634 0.241,0.751 0,0.123 -0.077,0.261 -0.225,0.421 -0.076,0.066 -0.113,0.133 -0.113,0.204 0.021,0.071 0.066,0.107 0.128,0.107 C -0.204,0.219 -0.118,0.142 0,0 M 0.993,-1.326 C 1.07,-1.341 1.11,-1.372 1.11,-1.418 c 0,-0.071 -0.04,-0.108 -0.117,-0.108 -0.098,0 -0.211,0 -0.338,0.005 -0.082,0 -0.169,-0.005 -0.271,-0.014 -0.081,0 -0.122,0.035 -0.128,0.106 0,0.036 0.03,0.067 0.102,0.094 0.062,0.009 0.164,0.015 0.306,0.024 0.088,0 0.196,-0.004 0.329,-0.015 m 0.05,0.599 c 0.088,-0.015 0.134,-0.052 0.134,-0.109 0,-0.08 -0.046,-0.122 -0.134,-0.122 -0.102,0 -0.225,0 -0.358,0.011 -0.082,0 -0.179,-0.011 -0.281,-0.021 -0.093,0 -0.138,0.041 -0.142,0.123 0,0.041 0.035,0.077 0.117,0.107 0.06,0.011 0.168,0.016 0.321,0.025 0.093,0 0.205,-0.005 0.343,-0.014 M 0.987,-1.828 C 1.059,-1.837 1.1,-1.868 1.1,-1.919 c 0,-0.072 -0.041,-0.108 -0.113,-0.108 -0.097,0 -0.205,0 -0.323,0.011 -0.076,0 -0.158,-0.011 -0.249,-0.02 -0.083,0 -0.123,0.035 -0.129,0.106 0,0.041 0.031,0.072 0.102,0.093 0.057,0.009 0.154,0.02 0.287,0.025 0.082,0 0.19,-0.005 0.312,-0.016 m 0.083,1.581 c 0,-0.061 -0.042,-0.097 -0.123,-0.102 H 0.404 c -0.062,0 -0.093,0.041 -0.098,0.124 0,0.049 0.052,0.085 0.16,0.1 H 0.947 C 1.028,-0.144 1.07,-0.185 1.07,-0.247 M 0.583,-2.318 v -0.256 l 0.272,0.005 v 0.266 c 0.015,0.047 0.05,0.077 0.106,0.091 0.082,-0.009 0.124,-0.044 0.124,-0.106 l -0.01,-0.927 c 0,-0.302 -0.118,-0.45 -0.354,-0.45 -0.235,0 -0.347,0.154 -0.347,0.471 l -0.011,0.896 c 0.016,0.077 0.052,0.116 0.113,0.116 0.061,0 0.097,-0.035 0.107,-0.106 m 0,-0.466 v -0.461 c 0.005,-0.158 0.051,-0.234 0.144,-0.234 0.081,0 0.122,0.071 0.122,0.215 l 0.006,0.495 z m 1.74,2.265 c 0,-0.06 -0.036,-0.09 -0.108,-0.09 H 2.01 v -0.538 c 0.046,-0.01 0.087,-0.02 0.123,-0.03 0.005,-0.006 0.01,-0.011 0.021,-0.011 0.041,0.047 0.081,0.102 0.112,0.174 0.057,0.092 0.087,0.221 0.087,0.379 v 0.613 c 0.026,0.036 0.062,0.056 0.108,0.062 0.045,0 0.077,-0.037 0.087,-0.097 L 2.557,-0.62 c 0,-0.287 -0.066,-0.512 -0.188,-0.68 0.02,-0.02 0.046,-0.035 0.066,-0.052 0.082,-0.066 0.149,-0.143 0.205,-0.23 0.041,-0.061 0.066,-0.128 0.066,-0.203 -0.005,-0.073 -0.042,-0.104 -0.108,-0.104 -0.02,0 -0.05,0.025 -0.086,0.082 -0.035,0.072 -0.087,0.143 -0.159,0.22 C 2.302,-1.535 2.256,-1.495 2.21,-1.464 2.154,-1.505 2.097,-1.535 2.045,-1.556 1.924,-1.617 1.811,-1.73 1.714,-1.894 1.499,-2.19 1.392,-2.866 1.392,-3.914 c 0,-0.072 -0.041,-0.108 -0.118,-0.108 -0.047,0 -0.077,0.036 -0.097,0.097 0,1.065 0.112,1.791 0.342,2.179 0.093,0.154 0.22,0.282 0.38,0.389 -0.083,0.016 -0.165,0.031 -0.246,0.042 -0.154,0.02 -0.256,0.086 -0.318,0.194 -0.061,0.103 -0.092,0.245 -0.103,0.42 -0.005,0.071 -0.009,0.168 -0.009,0.286 -0.006,0.071 -0.006,0.163 -0.006,0.271 0.01,0.062 0.046,0.097 0.098,0.097 0.067,0 0.102,-0.031 0.102,-0.093 0,-0.306 0.009,-0.505 0.026,-0.608 C 1.453,-0.857 1.478,-0.937 1.53,-0.993 1.58,-1.055 1.663,-1.1 1.785,-1.121 H 1.806 V -0.62 C 1.719,-0.625 1.643,-0.63 1.571,-0.635 c -0.052,0 -0.082,0.035 -0.082,0.116 0,0.047 0.046,0.077 0.143,0.093 0.04,0 0.097,0.006 0.174,0.011 v 0.547 c 0.01,0.05 0.04,0.077 0.096,0.082 C 1.974,0.209 2.01,0.179 2.01,0.122 v -0.537 c 0.061,0 0.128,0.005 0.205,0.005 0.072,-0.016 0.108,-0.052 0.108,-0.109 M 1.872,-2.036 v -0.16 L 2.41,-2.19 v 0.168 c 0.015,0.041 0.051,0.072 0.102,0.083 0.072,-0.006 0.112,-0.037 0.112,-0.097 L 2.615,-3.25 c 0,-0.392 -0.159,-0.587 -0.472,-0.587 -0.312,0 -0.465,0.204 -0.465,0.619 l -0.015,1.17 c 0.015,0.072 0.051,0.109 0.107,0.109 0.061,0 0.093,-0.037 0.102,-0.097 m 0,-0.354 0.006,-0.47 0.527,-0.016 0.005,0.497 z M 1.878,-3.066 V -3.29 c 0.004,-0.215 0.096,-0.323 0.27,-0.323 0.165,0 0.251,0.097 0.251,0.297 l 0.006,0.246 z" style="fill:#b90030;fill-opacity:1;fill-rule:nonzero;stroke:none" id="path1086" />
          </g>
          <g id="g1088" transform="translate(520.1111,678.4305)">
            <path d="m 0,0 c -0.005,0.234 -0.01,0.44 -0.01,0.604 0,0.092 0.046,0.152 0.143,0.183 C 0.226,0.772 0.271,0.711 0.271,0.604 V 0 c 0.404,-0.006 0.752,-0.015 1.044,-0.026 0.086,-0.016 0.133,-0.057 0.143,-0.118 0,-0.077 -0.041,-0.112 -0.123,-0.112 -0.398,0.01 -0.757,0.016 -1.064,0.016 0,-0.113 -0.005,-0.226 -0.005,-0.339 h 0.102 c 0.184,0 0.369,-0.01 0.563,-0.025 0.071,-0.01 0.112,-0.046 0.112,-0.117 0,-0.077 -0.041,-0.123 -0.112,-0.134 -0.194,0.011 -0.419,0.021 -0.665,0.021 0,-0.134 -0.005,-0.256 -0.005,-0.378 0,-0.758 0,-1.495 0.01,-2.221 0,-0.103 -0.045,-0.154 -0.138,-0.154 -0.077,0 -0.118,0.088 -0.123,0.261 v 2.226 0.25 c -0.113,-0.02 -0.209,-0.045 -0.286,-0.077 -0.098,-0.055 -0.185,-0.148 -0.261,-0.276 -0.245,-0.486 -0.389,-1.176 -0.425,-2.066 0,-0.097 -0.046,-0.148 -0.127,-0.159 -0.071,0 -0.114,0.066 -0.118,0.189 0.035,0.763 0.137,1.367 0.307,1.806 0.077,0.225 0.179,0.409 0.301,0.547 0.133,0.165 0.317,0.261 0.553,0.293 0.015,0 0.036,0.004 0.056,0.004 -0.006,0.123 -0.006,0.236 -0.006,0.343 -0.392,-0.01 -0.781,-0.026 -1.171,-0.046 -0.061,0.011 -0.092,0.057 -0.097,0.148 0,0.052 0.046,0.092 0.144,0.118 C -0.752,-0.01 -0.384,0 -0.021,0 Z" style="fill:#b90030;fill-opacity:1;fill-rule:nonzero;stroke:none" id="path1090" />
          </g>
          <g id="g1092" transform="translate(523.5782,679.114)">
            <path d="m 0,0 c 0,-0.501 -0.011,-0.797 -0.026,-0.889 -0.016,-0.216 -0.108,-0.354 -0.277,-0.415 -0.174,-0.072 -0.255,-0.209 -0.255,-0.414 0,-1.238 -0.037,-1.979 -0.108,-2.22 -0.021,-0.092 -0.066,-0.138 -0.138,-0.138 -0.087,0 -0.127,0.046 -0.127,0.138 0.102,0.245 0.158,0.987 0.158,2.22 0,0.266 0.081,0.45 0.251,0.552 0.148,0.077 0.23,0.174 0.24,0.288 0.02,0.091 0.031,0.388 0.031,0.878 0,0.072 0.036,0.113 0.107,0.133 C -0.052,0.133 0,0.087 0,0 m -0.486,-0.107 c 0,-0.439 -0.017,-0.69 -0.047,-0.752 -0.01,-0.083 -0.055,-0.117 -0.138,-0.117 -0.051,0 -0.092,0.034 -0.112,0.106 0.034,0.083 0.056,0.343 0.056,0.784 0.011,0.056 0.046,0.086 0.108,0.097 0.086,0 0.133,-0.041 0.133,-0.118 m 0.418,-1.652 c 0,-1.217 -0.029,-1.913 -0.081,-2.097 -0.011,-0.077 -0.056,-0.118 -0.137,-0.118 -0.052,0 -0.088,0.036 -0.109,0.107 0.057,0.215 0.087,0.926 0.087,2.129 0.011,0.056 0.046,0.086 0.108,0.097 0.087,0 0.132,-0.041 0.132,-0.118 m 0.482,1.069 c 0,-0.015 -0.015,-0.03 -0.041,-0.045 -0.027,-0.022 -0.042,-0.041 -0.046,-0.052 0,-0.041 0.046,-0.072 0.138,-0.087 0.276,-0.052 0.414,-0.138 0.414,-0.261 0,-0.154 -0.041,-0.292 -0.118,-0.405 C 0.7,-1.636 0.654,-1.682 0.613,-1.682 c -0.045,0 -0.077,0.026 -0.091,0.076 0,0.052 0.019,0.124 0.071,0.205 0.051,0.081 0.082,0.158 0.082,0.23 0,0.02 -0.068,0.051 -0.2,0.093 C 0.393,-1.304 0.311,-1.472 0.234,-1.59 0.214,-1.652 0.173,-1.682 0.112,-1.682 c -0.061,0 -0.092,0.035 -0.092,0.107 0,0.032 0.031,0.097 0.092,0.199 0.067,0.108 0.122,0.225 0.169,0.348 -0.118,0.041 -0.179,0.102 -0.184,0.195 0,0.026 0.015,0.072 0.055,0.143 0.042,0.056 0.087,0.087 0.149,0.092 0.072,-0.005 0.113,-0.036 0.113,-0.092 m 0.839,0.747 v -0.19 c 0,-0.071 0.082,-0.112 0.244,-0.133 0.241,-0.039 0.442,-0.071 0.6,-0.091 0.046,-0.016 0.071,-0.056 0.071,-0.118 -0.01,-0.047 -0.025,-0.071 -0.045,-0.082 -0.006,-0.266 -0.062,-0.409 -0.169,-0.43 0,-0.01 0.006,-0.014 0.006,-0.014 0.009,-0.093 0.035,-0.181 0.08,-0.272 0.041,-0.097 0.098,-0.179 0.174,-0.251 0.021,-0.019 0.036,-0.041 0.057,-0.055 0.015,-0.011 0.025,-0.027 0.025,-0.036 0,-0.082 -0.046,-0.118 -0.128,-0.118 -0.041,0 -0.087,0.03 -0.137,0.102 C 2.015,-1.62 2.004,-1.606 1.995,-1.59 1.984,-1.62 1.96,-1.636 1.918,-1.636 H 1.554 c -0.148,0 -0.219,0.132 -0.219,0.409 0,0.24 0.137,0.363 0.419,0.374 0.092,0 0.137,0.096 0.149,0.296 -0.093,0.011 -0.195,0.03 -0.313,0.061 -0.011,0 -0.02,0.006 -0.02,0.006 V -0.501 C 1.57,-0.567 1.467,-0.685 1.263,-0.859 1.231,-0.889 1.222,-0.915 1.222,-0.93 v -0.726 c 0,-0.072 -0.041,-0.109 -0.118,-0.109 -0.072,0 -0.107,0.032 -0.107,0.099 l -0.011,0.724 c 0,0.032 -0.015,0.057 -0.045,0.083 -0.195,0.18 -0.287,0.292 -0.287,0.343 0,0.011 0,0.015 0.006,0.026 -0.246,-0.062 -0.39,-0.087 -0.441,-0.087 -0.087,0 -0.133,0.045 -0.138,0.148 0.005,0.031 0.026,0.051 0.056,0.061 0.206,0.031 0.414,0.063 0.64,0.102 0.144,0.021 0.22,0.057 0.22,0.113 v 0.2 c 0.021,0.056 0.062,0.086 0.122,0.097 0.068,0 0.112,-0.031 0.134,-0.087 m 0.292,-2.148 v 0.035 c 0,0.03 0,0.092 0.009,0.195 0.01,0.051 0.047,0.075 0.107,0.087 0.072,0 0.113,-0.036 0.124,-0.104 v -0.193 c 0.03,-0.644 0.102,-1.259 0.214,-1.842 0,-0.071 -0.03,-0.112 -0.092,-0.112 -0.057,0 -0.097,0.025 -0.128,0.067 -0.081,0.363 -0.143,0.752 -0.184,1.16 -0.133,0 -0.281,0 -0.435,0.006 -0.154,0 -0.327,-0.011 -0.531,-0.025 -0.042,-0.41 -0.107,-0.789 -0.2,-1.147 -0.005,-0.052 -0.046,-0.077 -0.118,-0.077 -0.061,0 -0.097,0.036 -0.102,0.103 0,0.061 0.036,0.255 0.113,0.593 0.092,0.451 0.138,0.931 0.143,1.432 0.005,0.062 0.041,0.093 0.103,0.103 0.071,0 0.107,-0.041 0.107,-0.113 v -0.179 c 0.163,0.005 0.316,0.011 0.455,0.02 0.138,0 0.276,-0.004 0.415,-0.009 m 0.009,-0.205 c -0.133,0 -0.27,0 -0.414,0.011 -0.134,0 -0.292,-0.011 -0.471,-0.022 -0.004,-0.102 -0.009,-0.204 -0.021,-0.296 0.185,0.005 0.349,0.011 0.503,0.015 0.142,0 0.285,-0.004 0.428,-0.01 -0.009,0.103 -0.019,0.2 -0.025,0.302 m -0.572,1.709 c 0.066,-0.087 0.112,-0.128 0.132,-0.128 0.02,0 0.076,0.051 0.17,0.152 0.04,0.047 0.071,0.082 0.101,0.113 C 1.268,-0.424 1.19,-0.409 1.151,-0.409 1.098,-0.413 1.006,-0.429 0.864,-0.454 0.894,-0.49 0.935,-0.536 0.982,-0.587 m 0.567,-0.645 c 0,-0.164 0.021,-0.24 0.071,-0.24 H 1.912 C 1.887,-1.431 1.867,-1.396 1.846,-1.354 1.774,-1.191 1.738,-1.078 1.738,-1.012 1.611,-1.043 1.549,-1.12 1.549,-1.232" style="fill:#b90030;fill-opacity:1;fill-rule:nonzero;stroke:none" id="path1094" />
          </g>
          <g id="g1096" transform="translate(527.3297,679.8319)">
            <path d="m 0,0 c 0,-0.199 -0.005,-0.399 -0.005,-0.599 0.158,0 0.338,0.006 0.531,0.011 V 0.118 C 0.548,0.178 0.588,0.215 0.645,0.215 0.726,0.204 0.768,0.174 0.768,0.118 v -0.706 c 0.173,0 0.362,-0.005 0.567,-0.005 v 0.711 c 0.03,0.06 0.071,0.097 0.123,0.097 0.071,0 0.118,-0.037 0.133,-0.097 v -0.717 c 0.159,-0.005 0.321,-0.01 0.496,-0.01 0.092,-0.014 0.144,-0.051 0.144,-0.112 0,-0.091 -0.052,-0.133 -0.144,-0.133 H 1.591 v -0.86 C 1.579,-1.938 1.401,-2.05 1.053,-2.05 0.7,-2.05 0.526,-1.938 0.526,-1.703 v 0.86 c -0.173,0 -0.353,-0.005 -0.538,-0.005 -0.009,-0.385 -0.019,-0.769 -0.04,-1.158 0,-0.301 0.128,-0.474 0.385,-0.521 0.271,-0.015 0.49,-0.036 0.664,-0.066 0.262,-0.051 0.47,-0.134 0.624,-0.246 0.148,-0.102 0.271,-0.236 0.363,-0.403 0.092,-0.18 0.143,-0.364 0.143,-0.553 0,-0.082 -0.04,-0.129 -0.112,-0.139 -0.061,0 -0.103,0.035 -0.128,0.108 -0.072,0.321 -0.23,0.578 -0.481,0.762 -0.127,0.092 -0.276,0.154 -0.44,0.184 -0.173,0.036 -0.368,0.056 -0.578,0.056 -0.455,0 -0.685,0.261 -0.691,0.793 0,0.414 0,0.809 0.012,1.177 -0.135,-0.006 -0.262,-0.01 -0.39,-0.01 -0.096,0 -0.148,0.041 -0.153,0.133 0,0.046 0.041,0.082 0.123,0.113 0.112,0.004 0.255,0.009 0.424,0.014 0,0.194 0.005,0.389 0.015,0.574 0.01,0.091 0.057,0.142 0.128,0.153 C -0.056,0.123 -0.012,0.082 0,0 m 0.768,-1.662 c 0.004,-0.098 0.096,-0.144 0.275,-0.144 0.194,0.005 0.292,0.051 0.292,0.144 v 0.814 c -0.185,0 -0.375,0 -0.567,0.005 z" style="fill:#b90030;fill-opacity:1;fill-rule:nonzero;stroke:none" id="path1098" />
          </g>
          <g id="g1100" transform="translate(473.4024,675.6365)">
            <path d="m 0,0 v -1.14 h -0.085 c -0.064,0.298 -0.183,0.526 -0.357,0.685 -0.176,0.158 -0.373,0.238 -0.594,0.238 -0.184,0 -0.354,-0.059 -0.508,-0.177 -0.154,-0.118 -0.267,-0.272 -0.338,-0.462 -0.091,-0.244 -0.137,-0.515 -0.137,-0.814 0,-0.294 0.033,-0.562 0.1,-0.803 0.067,-0.242 0.172,-0.424 0.314,-0.547 0.143,-0.124 0.327,-0.186 0.554,-0.186 0.186,0 0.357,0.046 0.511,0.136 0.155,0.091 0.318,0.246 0.49,0.468 v -0.284 c -0.166,-0.193 -0.339,-0.332 -0.518,-0.419 -0.181,-0.086 -0.39,-0.129 -0.63,-0.129 -0.316,0 -0.597,0.07 -0.842,0.21 -0.246,0.141 -0.435,0.343 -0.568,0.606 -0.132,0.263 -0.199,0.543 -0.199,0.84 0,0.314 0.073,0.61 0.221,0.892 0.148,0.28 0.347,0.498 0.599,0.653 0.25,0.155 0.517,0.233 0.8,0.233 0.208,0 0.427,-0.051 0.659,-0.15 0.133,-0.059 0.219,-0.087 0.255,-0.087 0.047,0 0.087,0.019 0.121,0.056 0.034,0.038 0.057,0.098 0.067,0.181 z" style="fill:#b90030;fill-opacity:1;fill-rule:nonzero;stroke:none" id="path1102" />
          </g>
          <g id="g1104" transform="translate(475.5986,674.6403)">
            <path d="m 0,0 v -1.776 c 0,-0.173 0.015,-0.282 0.043,-0.325 0.03,-0.043 0.088,-0.07 0.177,-0.082 v -0.085 h -0.832 v 0.303 c -0.098,-0.129 -0.196,-0.223 -0.293,-0.282 -0.098,-0.059 -0.208,-0.088 -0.329,-0.088 -0.115,0 -0.217,0.039 -0.307,0.118 -0.09,0.078 -0.15,0.17 -0.18,0.275 -0.031,0.105 -0.046,0.288 -0.046,0.55 v 0.9 c 0,0.17 -0.014,0.277 -0.042,0.319 -0.029,0.042 -0.088,0.07 -0.178,0.082 V 0 h 0.833 v -1.549 c 0,-0.161 0.006,-0.266 0.02,-0.312 0.014,-0.047 0.036,-0.082 0.066,-0.107 0.03,-0.024 0.064,-0.036 0.104,-0.036 0.052,0 0.1,0.015 0.141,0.046 0.059,0.042 0.129,0.127 0.211,0.254 v 1.212 c 0,0.17 -0.014,0.277 -0.043,0.319 -0.028,0.042 -0.087,0.07 -0.177,0.082 V 0 Z" style="fill:#b90030;fill-opacity:1;fill-rule:nonzero;stroke:none" id="path1106" />
          </g>
          <g id="g1108" transform="translate(476.8058,675.9091)">
            <path d="m 0,0 v -2.816 c 0,-0.161 0.017,-0.264 0.051,-0.31 0.033,-0.045 0.099,-0.07 0.198,-0.077 v -0.085 h -1.105 v 0.085 c 0.09,0.004 0.156,0.033 0.2,0.089 0.029,0.037 0.044,0.137 0.044,0.298 v 2.344 c 0,0.159 -0.017,0.26 -0.051,0.305 -0.033,0.045 -0.097,0.07 -0.193,0.076 V 0 Z" style="fill:#b90030;fill-opacity:1;fill-rule:nonzero;stroke:none" id="path1110" />
          </g>
          <g id="g1112" transform="translate(477.9384,675.8995)">
            <path d="M 0,0 V -0.829 H 0.483 V -1.067 H 0 v -1.402 c 0,-0.132 0.005,-0.217 0.016,-0.255 0.011,-0.038 0.03,-0.068 0.058,-0.092 0.027,-0.023 0.053,-0.035 0.076,-0.035 0.094,0 0.183,0.08 0.268,0.24 L 0.483,-2.664 C 0.366,-2.974 0.174,-3.13 -0.091,-3.13 c -0.13,0 -0.239,0.041 -0.329,0.121 -0.089,0.08 -0.146,0.17 -0.171,0.268 -0.014,0.055 -0.021,0.204 -0.021,0.447 v 1.227 h -0.267 v 0.085 c 0.183,0.144 0.34,0.294 0.469,0.452 0.129,0.159 0.242,0.335 0.338,0.53 z" style="fill:#b90030;fill-opacity:1;fill-rule:nonzero;stroke:none" id="path1114" />
          </g>
          <g id="g1116" transform="translate(480.5272,675.3398)">
            <path d="m 0,0 v -1.776 c 0,-0.174 0.015,-0.282 0.043,-0.325 0.03,-0.043 0.088,-0.07 0.177,-0.082 v -0.085 h -0.832 v 0.303 c -0.099,-0.129 -0.196,-0.223 -0.293,-0.282 -0.098,-0.059 -0.208,-0.088 -0.329,-0.088 -0.114,0 -0.217,0.039 -0.307,0.118 -0.09,0.078 -0.15,0.17 -0.18,0.275 -0.031,0.105 -0.046,0.288 -0.046,0.55 v 0.9 c 0,0.17 -0.014,0.277 -0.042,0.319 -0.029,0.042 -0.088,0.07 -0.178,0.082 V 0 h 0.832 v -1.549 c 0,-0.161 0.007,-0.266 0.021,-0.312 0.014,-0.047 0.036,-0.082 0.066,-0.107 0.029,-0.024 0.064,-0.036 0.103,-0.036 0.053,0 0.101,0.015 0.142,0.046 0.059,0.042 0.129,0.127 0.211,0.254 v 1.212 c 0,0.17 -0.014,0.277 -0.043,0.319 -0.028,0.042 -0.087,0.07 -0.177,0.082 V 0 Z" style="fill:#b90030;fill-opacity:1;fill-rule:nonzero;stroke:none" id="path1118" />
          </g>
          <g id="g1120" transform="translate(482.0956,675.5999)">
            <path d="m 0,0 0.032,-0.774 h -0.076 c -0.089,0.23 -0.18,0.388 -0.275,0.472 -0.096,0.084 -0.191,0.126 -0.285,0.126 -0.06,0 -0.111,-0.022 -0.153,-0.066 -0.042,-0.045 -0.063,-0.096 -0.063,-0.154 0,-0.044 0.014,-0.086 0.044,-0.126 0.046,-0.067 0.177,-0.181 0.391,-0.341 0.215,-0.161 0.356,-0.297 0.424,-0.41 0.068,-0.112 0.102,-0.238 0.102,-0.377 0,-0.126 -0.028,-0.25 -0.085,-0.371 -0.057,-0.121 -0.137,-0.214 -0.241,-0.278 -0.103,-0.066 -0.217,-0.098 -0.342,-0.098 -0.098,0 -0.228,0.035 -0.391,0.103 -0.044,0.017 -0.074,0.026 -0.09,0.026 -0.048,0 -0.088,-0.041 -0.12,-0.123 h -0.073 l -0.036,0.815 h 0.077 c 0.066,-0.213 0.156,-0.373 0.27,-0.48 0.114,-0.106 0.222,-0.159 0.324,-0.159 0.07,0 0.127,0.024 0.171,0.072 0.045,0.047 0.067,0.105 0.067,0.173 0,0.077 -0.022,0.144 -0.065,0.201 -0.044,0.056 -0.142,0.142 -0.294,0.257 -0.224,0.171 -0.369,0.303 -0.434,0.393 -0.096,0.132 -0.145,0.279 -0.145,0.438 0,0.176 0.054,0.333 0.163,0.475 0.109,0.142 0.265,0.212 0.47,0.212 0.111,0 0.218,-0.031 0.322,-0.092 0.039,-0.025 0.071,-0.037 0.096,-0.037 0.025,0 0.046,0.006 0.063,0.018 0.016,0.013 0.041,0.048 0.076,0.105 z" style="fill:#b90030;fill-opacity:1;fill-rule:nonzero;stroke:none" id="path1122" />
          </g>
          <g id="g1124" transform="translate(485.3459,674.9948)">
            <path d="m 0,0 h -1.119 c 0.013,-0.3 0.085,-0.538 0.216,-0.713 0.1,-0.134 0.221,-0.201 0.362,-0.201 0.087,0 0.166,0.027 0.238,0.081 0.071,0.054 0.147,0.151 0.229,0.291 L 0,-0.595 c -0.111,-0.25 -0.233,-0.428 -0.366,-0.532 -0.134,-0.104 -0.289,-0.156 -0.465,-0.156 -0.302,0 -0.532,0.129 -0.687,0.388 -0.125,0.208 -0.187,0.466 -0.187,0.776 0,0.378 0.091,0.679 0.275,0.903 0.184,0.223 0.4,0.335 0.647,0.335 0.206,0 0.386,-0.093 0.538,-0.282 C -0.094,0.649 -0.012,0.37 0,0 m -0.536,0.161 c 0,0.26 -0.013,0.439 -0.038,0.536 C -0.6,0.794 -0.64,0.867 -0.693,0.918 -0.724,0.946 -0.764,0.961 -0.815,0.961 -0.89,0.961 -0.952,0.92 -1,0.837 -1.086,0.694 -1.128,0.497 -1.128,0.246 V 0.161 Z" style="fill:#b90030;fill-opacity:1;fill-rule:nonzero;stroke:none" id="path1126" />
          </g>
          <g id="g1128" transform="translate(486.2529,677.0782)">
            <path d="M 0,0 V -0.829 H 0.483 V -1.067 H 0 v -1.402 c 0,-0.132 0.006,-0.217 0.017,-0.255 0.011,-0.038 0.03,-0.069 0.057,-0.092 0.028,-0.023 0.053,-0.035 0.076,-0.035 0.095,0 0.184,0.08 0.268,0.24 L 0.483,-2.664 C 0.366,-2.974 0.174,-3.13 -0.09,-3.13 c -0.13,0 -0.24,0.041 -0.329,0.121 -0.089,0.08 -0.147,0.17 -0.171,0.268 -0.015,0.055 -0.022,0.204 -0.022,0.447 v 1.227 h -0.267 v 0.085 c 0.184,0.144 0.341,0.294 0.469,0.452 0.129,0.159 0.242,0.335 0.338,0.53 z" style="fill:#b90030;fill-opacity:1;fill-rule:nonzero;stroke:none" id="path1130" />
          </g>
          <g id="g1132" transform="translate(489.9742,675.7083)">
            <path d="m 0,0 c 0.28,-0.073 0.477,-0.162 0.591,-0.264 0.162,-0.148 0.244,-0.339 0.244,-0.573 0,-0.248 -0.09,-0.452 -0.268,-0.614 -0.22,-0.197 -0.541,-0.294 -0.96,-0.294 h -1.504 v 0.091 c 0.137,0 0.23,0.014 0.278,0.042 0.049,0.028 0.083,0.065 0.103,0.11 0.019,0.046 0.029,0.157 0.029,0.334 v 2.134 c 0,0.177 -0.01,0.289 -0.029,0.334 -0.02,0.046 -0.055,0.083 -0.104,0.111 -0.049,0.027 -0.142,0.041 -0.277,0.041 v 0.091 h 1.419 c 0.34,0 0.58,-0.034 0.722,-0.101 C 0.385,1.375 0.496,1.275 0.578,1.142 0.66,1.009 0.7,0.867 0.7,0.716 0.7,0.558 0.649,0.418 0.545,0.294 0.442,0.171 0.26,0.073 0,0 M -0.797,-0.125 -0.798,-1.18 V -1.3 c 0,-0.087 0.02,-0.153 0.06,-0.197 0.04,-0.044 0.099,-0.066 0.178,-0.066 0.116,0 0.224,0.028 0.322,0.085 0.098,0.058 0.174,0.141 0.226,0.25 0.052,0.109 0.079,0.23 0.079,0.364 0,0.153 -0.032,0.291 -0.096,0.413 -0.064,0.122 -0.152,0.207 -0.264,0.256 -0.113,0.049 -0.281,0.072 -0.504,0.07 m 0,0.191 c 0.207,0 0.36,0.026 0.459,0.078 0.098,0.051 0.174,0.124 0.227,0.218 0.052,0.094 0.078,0.213 0.078,0.359 0,0.145 -0.026,0.264 -0.078,0.357 -0.051,0.093 -0.125,0.164 -0.221,0.213 -0.097,0.048 -0.25,0.072 -0.464,0.07 z" style="fill:#b90030;fill-opacity:1;fill-rule:nonzero;stroke:none" id="path1134" />
          </g>
          <g id="g1136" transform="translate(492.6791,675.2468)">
            <path d="m 0,0 h -1.119 c 0.013,-0.301 0.084,-0.538 0.215,-0.713 0.101,-0.135 0.222,-0.201 0.363,-0.201 0.087,0 0.167,0.027 0.237,0.08 0.072,0.055 0.149,0.151 0.23,0.292 L 0,-0.595 c -0.111,-0.25 -0.232,-0.428 -0.367,-0.532 -0.133,-0.104 -0.288,-0.156 -0.464,-0.156 -0.302,0 -0.531,0.128 -0.687,0.387 -0.124,0.209 -0.187,0.467 -0.187,0.776 0,0.379 0.092,0.68 0.276,0.903 0.184,0.224 0.399,0.336 0.647,0.336 0.205,0 0.385,-0.094 0.537,-0.282 C -0.093,0.649 -0.012,0.37 0,0 m -0.536,0.161 c 0,0.26 -0.013,0.439 -0.038,0.536 -0.025,0.096 -0.065,0.17 -0.119,0.22 -0.03,0.029 -0.071,0.044 -0.122,0.044 C -0.89,0.961 -0.952,0.92 -0.999,0.837 -1.085,0.694 -1.128,0.497 -1.128,0.246 V 0.161 Z" style="fill:#b90030;fill-opacity:1;fill-rule:nonzero;stroke:none" id="path1138" />
          </g>
          <g id="g1140" transform="translate(493.6337,676.2313)">
            <path d="m 0,0 v -0.293 c 0.104,0.125 0.205,0.217 0.301,0.275 0.097,0.057 0.2,0.085 0.31,0.085 0.133,0 0.243,-0.041 0.33,-0.123 0.088,-0.081 0.146,-0.183 0.175,-0.304 0.024,-0.093 0.036,-0.27 0.036,-0.532 v -0.884 c 0,-0.175 0.013,-0.283 0.042,-0.326 0.028,-0.043 0.087,-0.07 0.177,-0.081 V -2.268 H 0.337 v 0.085 c 0.078,0.011 0.133,0.047 0.167,0.106 0.023,0.041 0.035,0.141 0.035,0.301 v 1.01 c 0,0.187 -0.006,0.304 -0.02,0.352 -0.013,0.049 -0.035,0.087 -0.066,0.113 -0.032,0.027 -0.067,0.04 -0.104,0.04 C 0.224,-0.261 0.108,-0.36 0,-0.557 v -1.219 c 0,-0.17 0.014,-0.277 0.042,-0.322 0.029,-0.045 0.083,-0.074 0.16,-0.085 v -0.085 h -1.035 v 0.085 c 0.087,0.01 0.147,0.04 0.183,0.092 0.025,0.036 0.038,0.14 0.038,0.315 v 1.284 c 0,0.17 -0.015,0.277 -0.043,0.319 -0.028,0.042 -0.087,0.069 -0.178,0.082 V 0 Z" style="fill:#b90030;fill-opacity:1;fill-rule:nonzero;stroke:none" id="path1142" />
          </g>
          <g id="g1144" transform="translate(496.777,674.9721)">
            <path d="m 0,0 h -1.12 c 0.014,-0.3 0.086,-0.538 0.217,-0.713 0.1,-0.134 0.22,-0.201 0.362,-0.201 0.087,0 0.166,0.027 0.238,0.081 0.071,0.054 0.147,0.151 0.228,0.291 L 0,-0.595 c -0.111,-0.25 -0.233,-0.428 -0.366,-0.532 -0.134,-0.104 -0.289,-0.156 -0.465,-0.156 -0.302,0 -0.532,0.129 -0.687,0.388 -0.125,0.208 -0.187,0.466 -0.187,0.776 0,0.378 0.091,0.679 0.275,0.903 0.184,0.223 0.4,0.335 0.647,0.335 0.206,0 0.385,-0.093 0.538,-0.282 C -0.094,0.649 -0.012,0.37 0,0 m -0.536,0.161 c 0,0.26 -0.013,0.439 -0.038,0.536 C -0.6,0.794 -0.64,0.867 -0.693,0.918 -0.724,0.946 -0.764,0.961 -0.815,0.961 -0.89,0.961 -0.952,0.92 -1,0.837 -1.086,0.694 -1.128,0.497 -1.128,0.246 V 0.161 Z" style="fill:#b90030;fill-opacity:1;fill-rule:nonzero;stroke:none" id="path1146" />
          </g>
          <g id="g1148" transform="translate(497.7916,675.5779)">
            <path d="m 0,0 0.002,-1.574 c 0,-0.153 0.015,-0.249 0.044,-0.288 0.046,-0.061 0.133,-0.088 0.258,-0.084 v -0.085 h -1.201 v 0.085 c 0.091,0.002 0.156,0.014 0.195,0.036 0.038,0.022 0.064,0.052 0.079,0.092 0.014,0.039 0.022,0.121 0.022,0.244 L -0.604,0 h -0.293 v 0.237 h 0.293 v 0.167 0.114 c 0,0.232 0.077,0.426 0.23,0.58 0.154,0.155 0.362,0.232 0.625,0.232 0.18,0 0.313,-0.036 0.4,-0.111 C 0.738,1.145 0.781,1.062 0.781,0.972 0.781,0.9 0.754,0.837 0.7,0.783 0.646,0.73 0.575,0.703 0.486,0.703 0.41,0.703 0.35,0.725 0.306,0.768 0.262,0.812 0.24,0.861 0.24,0.914 0.24,0.929 0.243,0.959 0.252,1.004 0.257,1.031 0.26,1.057 0.26,1.081 0.26,1.115 0.251,1.141 0.234,1.157 0.21,1.181 0.182,1.193 0.148,1.193 0.106,1.193 0.07,1.174 0.042,1.135 0.013,1.096 -0.001,1.034 -0.001,0.949 L 0,0.526 V 0.237 H 0.304 V 0 Z" style="fill:#b90030;fill-opacity:1;fill-rule:nonzero;stroke:none" id="path1150" />
          </g>
          <g id="g1152" transform="translate(499.2729,675.6783)">
            <path d="m 0,0 v -1.796 c 0,-0.161 0.017,-0.265 0.051,-0.31 0.034,-0.045 0.1,-0.07 0.198,-0.077 v -0.085 h -1.105 v 0.085 c 0.09,0.004 0.157,0.033 0.2,0.089 0.029,0.037 0.044,0.137 0.044,0.298 v 1.324 c 0,0.159 -0.017,0.261 -0.05,0.306 -0.033,0.044 -0.098,0.069 -0.194,0.075 V 0 Z m -0.305,1.099 c 0.094,0 0.174,-0.037 0.239,-0.111 C 0,0.915 0.032,0.826 0.032,0.723 0.032,0.619 -0.001,0.531 -0.067,0.458 -0.133,0.385 -0.212,0.349 -0.305,0.349 c -0.094,0 -0.173,0.036 -0.239,0.109 -0.065,0.073 -0.098,0.161 -0.098,0.265 0,0.103 0.033,0.192 0.098,0.265 0.066,0.074 0.145,0.111 0.239,0.111" style="fill:#b90030;fill-opacity:1;fill-rule:nonzero;stroke:none" id="path1154" />
          </g>
          <g id="g1156" transform="translate(501.2662,673.6857)">
            <path d="m 0,0 0.068,-0.059 c -0.096,-0.2 -0.216,-0.35 -0.36,-0.447 -0.142,-0.098 -0.296,-0.147 -0.457,-0.147 -0.272,0 -0.49,0.114 -0.652,0.342 -0.164,0.228 -0.245,0.501 -0.245,0.822 0,0.308 0.074,0.58 0.223,0.814 0.178,0.283 0.425,0.424 0.739,0.424 0.211,0 0.379,-0.058 0.504,-0.177 0.124,-0.118 0.187,-0.25 0.187,-0.395 0,-0.093 -0.026,-0.166 -0.076,-0.221 -0.05,-0.055 -0.116,-0.083 -0.198,-0.083 -0.085,0 -0.156,0.032 -0.213,0.095 -0.056,0.063 -0.09,0.177 -0.103,0.339 -0.009,0.102 -0.03,0.174 -0.064,0.215 -0.033,0.04 -0.072,0.06 -0.118,0.06 -0.069,0 -0.129,-0.041 -0.179,-0.123 -0.076,-0.125 -0.113,-0.315 -0.113,-0.573 0,-0.214 0.03,-0.418 0.091,-0.613 0.061,-0.195 0.146,-0.34 0.252,-0.435 0.08,-0.07 0.175,-0.105 0.284,-0.105 0.071,0 0.139,0.019 0.203,0.056 C -0.163,-0.174 -0.087,-0.103 0,0" style="fill:#b90030;fill-opacity:1;fill-rule:nonzero;stroke:none" id="path1158" />
          </g>
          <g id="g1160" transform="translate(503.1517,673.9963)">
            <path d="m 0,0 h -1.119 c 0.013,-0.3 0.085,-0.538 0.216,-0.713 0.1,-0.134 0.221,-0.201 0.362,-0.201 0.088,0 0.167,0.027 0.238,0.081 0.071,0.054 0.148,0.151 0.229,0.291 L 0,-0.595 c -0.111,-0.25 -0.232,-0.428 -0.366,-0.532 -0.134,-0.104 -0.289,-0.156 -0.465,-0.156 -0.302,0 -0.531,0.129 -0.687,0.388 -0.124,0.208 -0.187,0.466 -0.187,0.776 0,0.378 0.092,0.679 0.276,0.903 0.184,0.223 0.399,0.335 0.646,0.335 0.206,0 0.386,-0.094 0.538,-0.282 C -0.093,0.649 -0.012,0.37 0,0 m -0.536,0.161 c 0,0.26 -0.013,0.439 -0.038,0.536 -0.025,0.097 -0.065,0.17 -0.119,0.221 -0.03,0.028 -0.071,0.043 -0.122,0.043 C -0.89,0.961 -0.952,0.92 -1,0.837 -1.085,0.694 -1.128,0.497 -1.128,0.246 V 0.161 Z" style="fill:#b90030;fill-opacity:1;fill-rule:nonzero;stroke:none" id="path1162" />
          </g>
          <g id="g1164" transform="translate(503.9458,674.8198)">
            <path d="m 0,0 v -0.293 c 0.105,0.125 0.205,0.217 0.301,0.275 0.097,0.057 0.2,0.085 0.311,0.085 0.132,0 0.242,-0.041 0.329,-0.123 0.088,-0.081 0.146,-0.183 0.175,-0.304 0.024,-0.093 0.036,-0.27 0.036,-0.532 v -0.884 c 0,-0.175 0.013,-0.283 0.042,-0.326 0.028,-0.043 0.087,-0.07 0.177,-0.081 V -2.268 H 0.337 v 0.085 c 0.078,0.011 0.133,0.047 0.167,0.106 0.023,0.041 0.035,0.141 0.035,0.301 v 1.01 c 0,0.187 -0.006,0.304 -0.02,0.352 -0.013,0.048 -0.035,0.087 -0.066,0.113 -0.032,0.027 -0.066,0.04 -0.104,0.04 C 0.224,-0.261 0.108,-0.36 0,-0.557 v -1.219 c 0,-0.17 0.014,-0.277 0.043,-0.322 0.028,-0.045 0.082,-0.074 0.159,-0.085 v -0.085 h -1.034 v 0.085 c 0.086,0.009 0.146,0.04 0.182,0.092 0.025,0.035 0.038,0.14 0.038,0.315 v 1.284 c 0,0.17 -0.015,0.277 -0.043,0.319 -0.028,0.042 -0.087,0.069 -0.177,0.082 V 0 Z" style="fill:#b90030;fill-opacity:1;fill-rule:nonzero;stroke:none" id="path1166" />
          </g>
          <g id="g1168" transform="translate(506.1677,675.4336)">
            <path d="M 0,0 V -0.829 H 0.483 V -1.067 H 0 v -1.402 c 0,-0.132 0.005,-0.217 0.016,-0.255 0.011,-0.038 0.03,-0.068 0.058,-0.092 0.027,-0.023 0.053,-0.035 0.076,-0.035 0.095,0 0.183,0.08 0.268,0.24 l 0.065,-0.053 c -0.117,-0.31 -0.309,-0.465 -0.574,-0.465 -0.13,0 -0.239,0.04 -0.329,0.12 -0.089,0.08 -0.146,0.17 -0.17,0.269 -0.015,0.054 -0.022,0.203 -0.022,0.446 v 1.227 h -0.267 v 0.085 c 0.184,0.144 0.34,0.294 0.469,0.452 0.129,0.159 0.241,0.335 0.337,0.53 z" style="fill:#b90030;fill-opacity:1;fill-rule:nonzero;stroke:none" id="path1170" />
          </g>
          <g id="g1172" transform="translate(507.6247,674.5509)">
            <path d="m 0,0 v -1.796 c 0,-0.161 0.017,-0.265 0.051,-0.31 0.033,-0.045 0.099,-0.07 0.198,-0.077 v -0.085 h -1.105 v 0.085 c 0.09,0.003 0.156,0.033 0.2,0.089 0.029,0.037 0.044,0.137 0.044,0.298 v 1.324 c 0,0.159 -0.017,0.261 -0.05,0.306 -0.034,0.044 -0.098,0.069 -0.194,0.075 V 0 Z m -0.306,1.099 c 0.094,0 0.174,-0.037 0.24,-0.111 0.065,-0.073 0.098,-0.162 0.098,-0.265 0,-0.104 -0.033,-0.192 -0.099,-0.265 -0.066,-0.073 -0.146,-0.109 -0.239,-0.109 -0.093,0 -0.172,0.036 -0.238,0.109 -0.065,0.073 -0.098,0.161 -0.098,0.265 0,0.103 0.033,0.192 0.098,0.265 0.066,0.074 0.145,0.111 0.238,0.111" style="fill:#b90030;fill-opacity:1;fill-rule:nonzero;stroke:none" id="path1174" />
          </g>
          <g id="g1176" transform="translate(509.0766,672.5569)">
            <path d="m 0,0 c -0.248,-0.245 -0.472,-0.366 -0.67,-0.366 -0.116,0 -0.213,0.042 -0.29,0.127 -0.077,0.085 -0.115,0.191 -0.115,0.319 0,0.173 0.067,0.329 0.2,0.467 C -0.741,0.686 -0.449,0.87 0,1.1 v 0.227 c 0,0.171 -0.008,0.28 -0.025,0.323 -0.017,0.045 -0.048,0.084 -0.094,0.117 -0.047,0.033 -0.099,0.05 -0.158,0.05 -0.094,0 -0.172,-0.024 -0.233,-0.071 -0.038,-0.029 -0.057,-0.063 -0.057,-0.101 0,-0.034 0.021,-0.077 0.062,-0.126 0.054,-0.07 0.082,-0.137 0.082,-0.202 0,-0.079 -0.026,-0.146 -0.08,-0.202 -0.052,-0.056 -0.122,-0.084 -0.208,-0.084 -0.092,0 -0.169,0.031 -0.23,0.093 -0.063,0.061 -0.093,0.133 -0.093,0.215 0,0.117 0.041,0.228 0.124,0.333 0.083,0.107 0.199,0.188 0.347,0.244 0.149,0.057 0.303,0.085 0.463,0.085 0.194,0 0.347,-0.046 0.46,-0.137 C 0.473,1.773 0.546,1.674 0.579,1.567 0.599,1.499 0.609,1.343 0.609,1.099 V 0.218 c 0,-0.103 0.004,-0.168 0.011,-0.195 0.008,-0.027 0.019,-0.046 0.033,-0.06 0.015,-0.012 0.032,-0.019 0.05,-0.019 0.038,0 0.077,0.03 0.117,0.09 L 0.885,-0.024 C 0.812,-0.144 0.737,-0.231 0.659,-0.285 0.581,-0.339 0.492,-0.366 0.393,-0.366 0.277,-0.366 0.186,-0.336 0.12,-0.275 0.055,-0.215 0.015,-0.123 0,0 M 0,0.176 V 0.937 C -0.176,0.822 -0.307,0.699 -0.393,0.568 -0.449,0.481 -0.478,0.392 -0.478,0.303 c 0,-0.074 0.025,-0.14 0.073,-0.197 0.036,-0.043 0.087,-0.065 0.152,-0.065 0.073,0 0.157,0.045 0.253,0.135" style="fill:#b90030;fill-opacity:1;fill-rule:nonzero;stroke:none" id="path1178" />
          </g>
          <g id="g1180" transform="translate(531.7806,683.269)">
            <path d="M 0,0 C 0.009,0.107 -0.006,0.321 -0.201,0.56 -0.746,1.226 -2.322,1.564 -4.886,1.564 L -5.641,1.563 c 0,0 -1.07,0.001 -1.352,0.001 V 5.711 L -7.571,5.332 c -0.063,-0.04 -1.595,-0.971 -5.317,-0.971 -2.056,0 -3.28,-0.315 -3.742,-0.962 -0.144,-0.204 -0.184,-0.393 -0.184,-0.528 0,-0.041 0.004,-0.077 0.01,-0.107 0,0 10e-4,-3.446 0.002,-3.798 -2.088,0.068 -3.533,0.172 -3.668,0.202 -1.104,0.248 -1.32,-0.424 -1.327,-0.449 l -0.025,-0.078 c 0,0 -0.054,-2.607 -0.06,-2.917 -1.833,-0.168 -4.828,0.149 -8.94,0.956 -2.284,0.449 -6.11,0.673 -10.773,0.63 h -0.007 c -4.662,0.043 -8.489,-0.181 -10.773,-0.63 -4.111,-0.807 -7.106,-1.124 -8.939,-0.956 -0.007,0.31 -0.06,2.917 -0.06,2.917 l -0.026,0.078 c -0.007,0.025 -0.222,0.697 -1.326,0.449 -0.135,-0.03 -1.581,-0.134 -3.668,-0.202 0,0.352 0.002,3.798 0.002,3.798 0.005,0.03 0.009,0.066 0.009,0.107 0,0.135 -0.039,0.324 -0.184,0.528 -0.461,0.647 -1.685,0.962 -3.741,0.962 -3.722,0 -5.254,0.931 -5.318,0.971 l -0.577,0.379 V 1.564 c -0.282,0 -1.353,-0.001 -1.353,-0.001 l -0.755,0.001 c -2.563,0 -4.139,-0.338 -4.684,-1.004 C -83.19,0.321 -83.205,0.107 -83.196,0 l -0.002,-10.187 0.225,-0.098 c 5.566,-2.447 15.066,-2.056 19.099,-1.752 v -1.428 c 0.131,-0.647 1.346,-2.485 11.64,-0.593 6.966,1.279 10.601,1.159 10.636,1.157 0.034,0.002 3.67,0.122 10.636,-1.157 10.293,-1.892 11.509,-0.054 11.64,0.593 v 1.428 c 4.033,-0.304 13.533,-0.695 19.099,1.752 l 0.224,0.098 z m -12.888,3.611 c 2.718,0 4.322,0.461 5.145,0.805 V 1.571 c -2.744,0.038 -5.626,0.255 -8.26,1.411 0.156,0.196 0.767,0.629 3.115,0.629 m -62.565,0.805 c 0.823,-0.344 2.427,-0.805 5.145,-0.805 2.348,0 2.959,-0.433 3.115,-0.629 -2.634,-1.156 -5.517,-1.373 -8.26,-1.411 z m 11.582,-7.913 c 0,0 -0.002,-7.456 -0.002,-7.789 -12.039,-1.21 -18.574,1.601 -18.574,1.601 v 9.164 c 0,0 11.145,-2.046 20.304,-1.021 -0.034,-0.181 -0.152,-0.541 -0.583,-0.626 -0.989,-0.195 -1.126,-1.067 -1.145,-1.329 m 43.799,-9.878 c -0.119,-0.172 -1.447,-1.656 -10.755,0.054 -6.491,1.192 -10.292,1.136 -10.771,1.136 -0.479,0 -4.28,0.056 -10.772,-1.136 -9.307,-1.71 -10.635,-0.226 -10.754,-0.054 v 8.805 c 0,0 0.753,-0.499 2.37,-0.499 3.642,0 8.525,1.014 8.525,1.014 2.233,0.438 6.008,0.657 10.627,0.615 h 0.007 c 4.62,0.042 8.394,-0.177 10.628,-0.615 0,0 4.882,-1.014 8.524,-1.014 1.618,0 2.371,0.499 2.371,0.499 z m 19.323,3.69 c 0,0 -6.536,-2.811 -18.574,-1.601 0,0.333 -0.003,7.789 -0.003,7.789 -0.019,0.262 -0.156,1.134 -1.144,1.329 -0.432,0.085 -0.549,0.445 -0.584,0.626 9.16,-1.025 20.305,1.021 20.305,1.021 z" style="fill:#b90030;fill-opacity:1;fill-rule:nonzero;stroke:none" id="path1182" />
          </g>
        </g>
      </g>
      <g id="g1184">
        <g id="g1186">
          <g id="g1192">
            <g id="g1194">
              <path d="m 491.798,761.77 c 0.068,-1.129 0.611,-3.731 4.166,-4.274 v 0 c 6.67,-0.758 13.085,-2.845 18.578,-6.046 v 0 c 0.027,-0.013 0.167,-0.094 0.167,-0.094 v 0 c 2.043,-1.205 3.965,-2.56 5.729,-4.037 v 0 c 0.053,-0.044 0.102,-0.091 0.154,-0.136 v 0 14 c -6.888,6.16 -17.196,10.178 -28.794,10.516 v 0 z m -31.952,-0.587 v -14.001 c 0.051,0.045 0.102,0.092 0.155,0.137 v 0 c 1.762,1.476 3.684,2.831 5.716,4.028 v 0 c 0.014,0.009 0.152,0.087 0.152,0.087 v 0 c 5.588,3.256 11.816,5.285 18.543,6.049 v 0 c 4.545,0.703 4.235,4.771 4.23,4.812 v 0 9.404 c -11.6,-0.338 -21.907,-4.355 -28.796,-10.516 m 10.649,-10.888 -0.024,-0.012 -0.026,-0.014 c -0.385,-0.234 -2.298,-1.573 -2.115,-4.92 v 0 c 0.61,-8.774 2.957,-16.821 6.968,-23.923 v 0 c 1.761,-3.115 3.863,-6.074 6.27,-8.854 v 0 c 0.087,6.268 2.012,9.05 3.731,11.533 v 0 c 1.51,2.181 2.814,4.064 2.668,8.321 v 0 c -0.045,1.297 -0.471,2.254 -1.303,2.924 v 0 c -2.18,1.762 -6.458,1.049 -6.48,1.047 v 0 c -0.1,-0.024 -2.443,-0.637 -2.349,-4.395 v 0 c 0.017,-0.665 -0.448,-1.204 -1.082,-1.257 v 0 c -0.649,-0.055 -1.222,0.428 -1.278,1.078 v 0 c -0.019,0.223 -0.415,5.45 3.143,6.508 v 0 c 0.78,0.232 1.378,0.776 1.774,1.608 v 0 c 0.086,0.192 0.105,0.355 0.054,0.484 v 0 c -0.076,0.193 -0.291,0.285 -0.291,0.291 v 0 c -2.572,1.12 -4.38,3.632 -4.72,6.553 v 0 c -0.037,0.315 0.051,0.625 0.247,0.873 v 0 c 0.197,0.248 0.477,0.404 0.792,0.44 v 0 c 0.314,0.038 0.624,-0.051 0.872,-0.247 v 0 c 0.247,-0.196 0.404,-0.478 0.44,-0.79 v 0 c 0.125,-1.069 0.521,-2.071 1.127,-2.891 v 0 c 0.071,-0.071 0.418,-0.388 0.509,0.217 v 0 6.001 c 0,0.652 0.531,1.183 1.184,1.183 v 0 c 0.653,0 1.183,-0.531 1.183,-1.183 v 0 -7.1 c 0,-0.046 0.004,-1.136 0.809,-1.276 v 0 l 0.458,-0.025 c 0,0 0.425,0.023 0.43,0.021 v 0 c 0.821,0.143 0.837,1.204 0.837,1.282 v 0 7.098 c 0,0.652 0.53,1.183 1.183,1.183 v 0 c 0.653,0 1.184,-0.531 1.184,-1.183 v 0 l -10e-4,-5.97 c 0,-0.011 0.002,-0.024 0.003,-0.036 v 0 c 0.087,-0.557 0.392,-0.323 0.49,-0.23 v 0 c 0.622,0.838 1.017,1.84 1.143,2.908 v 0 c 0.036,0.314 0.192,0.596 0.441,0.792 v 0 c 0.248,0.196 0.558,0.284 0.871,0.246 v 0 c 0.603,-0.069 1.048,-0.584 1.048,-1.177 v 0 c 0,-0.045 -0.002,-0.09 -0.008,-0.136 v 0 c -0.45,-3.853 -3.417,-6.856 -7.056,-7.142 v 0 l -0.255,-0.012 c -0.261,-0.043 -0.432,-0.176 -0.517,-0.386 v 0 c 0,0 -0.076,-0.205 -0.117,-0.316 v 0 c -0.004,-0.012 -0.167,-0.485 0.319,-0.522 v 0 l 0.145,-0.008 c 2.073,-0.14 3.74,-0.707 4.951,-1.685 v 0 c 1.382,-1.112 2.117,-2.689 2.186,-4.688 v 0 c 0.009,-0.245 0.013,-0.486 0.013,-0.72 v 0 c 0,-4.554 -1.575,-6.828 -3.101,-9.032 v 0 c -1.631,-2.355 -3.313,-4.785 -3.313,-10.637 v 0 c 0,-0.526 0.014,-1.079 0.042,-1.662 v 0 -0.493 c 0.865,-0.886 1.755,-1.758 2.687,-2.6 v 0 l 0.021,-0.02 0.024,-0.016 c 1.15,-0.841 4.194,-2.474 7.632,0.552 v 0 c 2.45,2.27 4.654,4.699 6.616,7.254 v 0 c -0.181,7.426 -1.348,14.222 -3.482,20.227 v 0 c -0.044,0.083 -0.083,0.142 -0.11,0.174 v 0 c -0.034,-0.039 -0.072,-0.091 -0.093,-0.139 v 0 c -1.607,-4.511 -3.523,-12.078 -3.523,-22.516 v 0 c 0,-0.652 -0.531,-1.183 -1.183,-1.183 v 0 c -0.654,0 -1.185,0.531 -1.185,1.183 v 0 c 0,11.88 2.343,20.237 4.307,25.151 v 0 c 0.329,0.847 0.048,1.562 0.023,1.625 v 0 c -0.663,1.401 -1.366,2.686 -2.083,3.808 v 0 c -0.148,0.219 -0.299,0.353 -0.405,0.355 v 0 c -0.094,0.004 -0.197,-0.099 -0.219,-0.125 v 0 c -0.477,-0.758 -0.785,-1.637 -0.89,-2.546 v 0 c -0.077,-0.649 -0.666,-1.114 -1.313,-1.038 v 0 c -0.315,0.036 -0.597,0.193 -0.792,0.442 v 0 c -0.197,0.248 -0.284,0.557 -0.247,0.871 v 0 c 0.246,2.115 1.244,4.018 2.834,5.38 v 0 c 0.753,0.637 1.606,1.115 2.546,1.432 v 0 c 0.913,0.276 1.044,0.762 1.056,0.934 v 0 1.831 c 0,0.652 0.532,1.183 1.186,1.183 v 0 c 0.652,0 1.182,-0.531 1.182,-1.183 v 0 -1.809 c 0.014,-0.197 0.145,-0.684 1.067,-0.964 v 0 c 2.891,-0.945 5,-3.617 5.371,-6.803 v 0 c 0.037,-0.315 -0.052,-0.625 -0.248,-0.873 v 0 c -0.196,-0.248 -0.478,-0.405 -0.791,-0.441 v 0 c -0.647,-0.075 -1.235,0.389 -1.313,1.039 v 0 c -0.106,0.906 -0.413,1.785 -0.868,2.512 v 0 c -0.044,0.057 -0.157,0.162 -0.262,0.158 v 0 c -0.115,-0.004 -0.267,-0.134 -0.411,-0.347 v 0 c -0.721,-1.13 -1.423,-2.416 -2.08,-3.801 v 0 c -0.032,-0.08 -0.309,-0.801 0.014,-1.636 v 0 c 2.321,-5.808 3.711,-12.439 4.152,-19.765 v 0 c 0.685,1.034 1.341,2.084 1.947,3.156 v 0 c 3.973,7.033 6.312,14.985 6.951,23.638 v 0 c 0.317,3.572 -1.709,4.972 -2.119,5.216 v 0 l -0.022,0.012 -0.024,0.011 c -5.982,2.849 -12.797,4.358 -19.708,4.358 v 0 c -6.918,0 -13.738,-1.51 -19.724,-4.366 m 8.282,-21.527 v 5.217 c 0,0.653 0.53,1.184 1.184,1.184 v 0 c 0.652,0 1.183,-0.531 1.183,-1.184 v 0 -0.076 c 0.002,-0.068 0.051,-0.227 0.419,-0.237 v 0 h 2.073 c 0.377,0.01 0.424,0.165 0.428,0.228 v 0 0.046 c 0,0.653 0.531,1.184 1.185,1.184 v 0 c 0.653,0 1.184,-0.531 1.184,-1.184 v 0 -5.178 c 0,-1.839 -1.496,-3.335 -3.335,-3.335 v 0 h -0.988 c -1.838,0 -3.333,1.496 -3.333,3.335 m 16.792,17.102 c -0.025,-0.012 -0.239,-0.134 -0.286,-0.32 v 0 c -0.007,-0.027 -0.01,-0.054 -0.01,-0.084 v 0 c 0,-0.103 0.042,-0.222 0.126,-0.351 v 0 c 0.628,-0.937 1.249,-1.992 1.838,-3.127 v 0 c 0.038,-0.066 0.101,-0.134 0.143,-0.163 v 0 c 0.021,0.021 0.055,0.057 0.106,0.152 v 0 c 0.599,1.152 1.219,2.208 1.843,3.135 v 0 c 0.072,0.109 0.149,0.256 0.149,0.39 v 0 c 0,0.027 -0.002,0.053 -0.009,0.077 v 0 c -0.04,0.153 -0.202,0.248 -0.264,0.282 v 0 c -0.592,0.237 -1.205,0.36 -1.824,0.36 v 0 c -0.63,0 -1.252,-0.124 -1.812,-0.351 m 20.876,-0.901 c -0.759,-0.325 -1.236,-1.154 -1.421,-2.467 v 0 c -0.901,-8.26 -3.318,-15.895 -7.185,-22.713 v 0 c -3.088,-5.438 -6.938,-10.214 -11.776,-14.598 v 0 l -0.02,-0.018 c 0,0 -0.047,-0.049 -0.063,-0.067 v 0 c -0.161,-0.148 -1.242,-1.185 -1.242,-2.512 v 0 c 0,-0.058 0.004,-0.113 0.007,-0.17 v 0 c 0.061,-0.867 0.575,-1.621 1.526,-2.244 v 0 c 7.337,-4.539 14.017,-6.834 16.706,-7.65 v 0 c 8.241,6.847 7.615,17.485 7.615,17.485 v 0 32.88 c -0.541,0.534 -1.097,1.059 -1.683,1.569 v 0 l -0.018,0.016 -0.021,0.014 c -0.238,0.171 -0.933,0.618 -1.708,0.618 v 0 c -0.235,0 -0.477,-0.041 -0.717,-0.143 m -54.858,-0.458 -0.023,-0.017 -0.02,-0.018 c -0.591,-0.513 -1.153,-1.043 -1.698,-1.582 v 0 -32.879 c 0,0 -0.626,-10.638 7.616,-17.487 v 0 c 2.684,0.817 9.363,3.109 16.694,7.644 v 0 c 0.966,0.634 1.482,1.391 1.545,2.257 v 0 c 0.104,1.472 -1.195,2.634 -1.25,2.683 v 0 l -0.289,0.268 c -4.756,4.31 -8.429,8.887 -11.561,14.409 v 0 c -3.863,6.813 -6.279,14.44 -7.183,22.675 v 0 c -0.182,1.336 -0.659,2.172 -1.416,2.501 v 0 c -0.241,0.104 -0.486,0.147 -0.723,0.147 v 0 c -0.767,0 -1.456,-0.435 -1.692,-0.601 m 20.018,-13.206 c -0.288,0 -0.455,-0.086 -0.461,-0.23 v 0 -2.307 c 0,-0.532 0.433,-0.966 0.966,-0.966 v 0 h 0.988 c 0.533,0 0.966,0.434 0.966,0.966 v 0 2.301 c -0.006,0.15 -0.174,0.236 -0.461,0.236 v 0 z m 5.94,-32.719 -0.028,-0.014 -0.024,-0.017 c -6.657,-4.379 -12.891,-6.944 -16.708,-8.271 v 0 l -0.001,-10e-4 c 0.63,-0.347 1.288,-0.678 1.993,-0.981 v 0 c 13.808,-5.931 17.441,-8.848 17.441,-8.848 v 0 c 0,0 3.632,2.917 17.443,8.848 v 0 c 0.706,0.303 1.365,0.635 1.995,0.982 v 0 c -3.773,1.313 -9.908,3.835 -16.469,8.115 v 0 l -0.021,0.012 -0.026,0.011 c -1.089,0.589 -2.105,0.786 -2.977,0.786 v 0 c -1.21,0 -2.144,-0.38 -2.618,-0.622 m 22.111,-8.302 c 10e-4,0 10e-4,0 10e-4,0 v 0 l 0.001,10e-4 c -0.001,0 -0.001,-10e-4 -0.002,-10e-4" style="fill:url(#linearGradient1200);stroke:none" id="path1202" />
            </g>
          </g>
        </g>
      </g>
      <g id="g1204">
        <g id="g1206" clip-path="url(#clipPath1210)">
          <g id="g1212" transform="translate(482.1102,725.4337)">
            <path d="m 0,0 h 0.988 c 1.839,0 3.335,1.496 3.335,3.335 v 5.178 c 0,0.652 -0.531,1.183 -1.184,1.183 -0.653,0 -1.185,-0.531 -1.185,-1.183 V 8.466 C 1.951,8.404 1.902,8.248 1.526,8.239 h -2.073 c -0.368,0.009 -0.416,0.168 -0.419,0.236 v 0.076 c 0,0.654 -0.531,1.185 -1.183,1.185 -0.654,0 -1.185,-0.531 -1.185,-1.185 V 3.335 C -3.334,1.496 -1.838,0 0,0 m -0.966,5.642 c 0.006,0.143 0.173,0.229 0.461,0.229 h 1.999 c 0.286,0 0.454,-0.086 0.46,-0.236 v -2.3 C 1.954,2.802 1.521,2.368 0.988,2.368 H 0 c -0.533,0 -0.966,0.434 -0.966,0.967 z m -10.36,-40.793 0.001,0.001 c 3.816,1.328 10.05,3.893 16.708,8.272 l 0.025,0.016 0.027,0.014 c 0.816,0.419 2.996,1.242 5.595,-0.164 l 0.026,-0.011 0.021,-0.011 c 6.561,-4.281 16.471,-8.115 16.471,-8.115 l 0.103,0.049 c 1.197,0.668 2.26,1.409 3.209,2.199 -2.694,0.818 -9.369,3.112 -16.7,7.647 -0.95,0.623 -1.463,1.378 -1.525,2.244 -0.004,0.057 -0.007,0.113 -0.007,0.17 0,1.327 1.081,2.365 1.242,2.512 0.016,0.018 0.063,0.068 0.063,0.068 l 0.02,0.018 c 4.838,4.383 8.688,9.159 11.775,14.598 3.867,6.817 6.285,14.453 7.186,22.712 0.184,1.313 0.663,2.142 1.421,2.467 1.028,0.44 2.115,-0.252 2.425,-0.474 l 0.021,-0.014 0.017,-0.017 c 0.587,-0.509 1.142,-1.035 1.684,-1.569 v 4.288 c -0.052,0.045 -0.101,0.092 -0.155,0.137 -1.763,1.477 -3.685,2.831 -5.728,4.036 0,0 -0.14,0.081 -0.167,0.094 -5.493,3.202 -11.909,5.289 -18.578,6.046 -3.555,0.544 -4.098,3.146 -4.167,4.274 v 9.936 c -0.523,0.016 -1.049,0.027 -1.577,0.027 -0.529,0 -1.055,-0.009 -1.579,-0.025 v -9.412 c 0.006,-0.041 0.317,-4.109 -4.229,-4.812 -6.727,-0.764 -12.956,-2.794 -18.543,-6.049 0,0 -0.138,-0.079 -0.152,-0.088 -2.031,-1.196 -3.954,-2.551 -5.716,-4.027 -0.054,-0.045 -0.103,-0.093 -0.155,-0.138 v -4.287 c 0.545,0.539 1.107,1.069 1.698,1.582 l 0.02,0.018 0.023,0.017 c 0.309,0.217 1.396,0.895 2.415,0.454 0.757,-0.33 1.234,-1.166 1.416,-2.502 0.903,-8.235 3.32,-15.862 7.183,-22.674 3.132,-5.523 6.804,-10.1 11.561,-14.409 l 0.289,-0.268 c 0.055,-0.05 1.354,-1.212 1.25,-2.684 -0.062,-0.866 -0.579,-1.623 -1.545,-2.257 -7.327,-4.532 -14.002,-6.825 -16.689,-7.642 0.958,-0.796 2.034,-1.542 3.247,-2.213 z M 29.982,19.631 C 29.342,10.978 27.003,3.025 23.031,-4.008 22.425,-5.08 21.769,-6.129 21.084,-7.164 20.643,0.163 19.253,6.794 16.932,12.602 c -0.324,0.835 -0.047,1.556 -0.014,1.636 0.657,1.385 1.358,2.67 2.08,3.8 0.144,0.214 0.296,0.344 0.41,0.348 0.106,0.004 0.218,-0.102 0.263,-0.158 0.454,-0.728 0.762,-1.607 0.868,-2.513 0.077,-0.649 0.666,-1.114 1.313,-1.039 0.314,0.036 0.595,0.193 0.791,0.441 0.197,0.248 0.284,0.558 0.248,0.873 -0.372,3.187 -2.48,5.858 -5.371,6.803 -0.922,0.28 -1.054,0.768 -1.068,0.965 l 10e-4,1.808 c 0,0.652 -0.53,1.184 -1.182,1.184 -0.654,0 -1.186,-0.532 -1.186,-1.184 v -1.831 c -0.013,-0.171 -0.143,-0.658 -1.056,-0.934 -0.94,-0.316 -1.794,-0.795 -2.545,-1.432 -1.591,-1.362 -2.589,-3.265 -2.835,-5.38 -0.037,-0.313 0.05,-0.623 0.246,-0.871 0.197,-0.248 0.477,-0.406 0.792,-0.442 0.648,-0.076 1.237,0.39 1.314,1.038 0.105,0.909 0.413,1.789 0.89,2.547 0.022,0.025 0.125,0.128 0.218,0.125 0.107,-0.003 0.259,-0.136 0.406,-0.355 0.717,-1.123 1.42,-2.407 2.083,-3.809 0.025,-0.063 0.306,-0.777 -0.023,-1.625 -1.963,-4.914 -4.307,-13.271 -4.307,-25.15 0,-0.653 0.531,-1.184 1.185,-1.184 0.653,0 1.184,0.531 1.184,1.184 0,10.437 1.915,18.005 3.522,22.516 0.022,0.048 0.059,0.1 0.093,0.139 0.027,-0.032 0.066,-0.091 0.11,-0.174 2.134,-6.005 3.301,-12.802 3.482,-20.228 -1.962,-2.555 -4.166,-4.983 -6.617,-7.254 -3.437,-3.026 -6.482,-1.392 -7.63,-0.552 l -0.024,0.017 -0.022,0.019 c -0.932,0.843 -1.822,1.714 -2.687,2.6 v 0.493 c -0.028,0.583 -0.042,1.137 -0.042,1.662 0,5.853 1.682,8.282 3.312,10.638 1.527,2.203 3.102,4.478 3.102,9.032 0,0.234 -0.004,0.473 -0.012,0.72 C 8.155,9.073 7.419,10.65 6.038,11.763 4.825,12.74 3.16,13.307 1.086,13.447 l -0.145,0.009 c -0.487,0.037 -0.323,0.51 -0.319,0.521 0.041,0.111 0.117,0.316 0.117,0.316 0.084,0.21 0.256,0.343 0.517,0.386 l 0.255,0.013 c 3.639,0.285 6.606,3.289 7.056,7.141 0.005,0.047 0.008,0.092 0.008,0.137 0,0.593 -0.445,1.107 -1.048,1.177 C 7.214,23.184 6.904,23.096 6.656,22.9 6.408,22.704 6.251,22.422 6.214,22.108 6.089,21.04 5.693,20.038 5.071,19.201 4.973,19.108 4.669,18.874 4.582,19.431 4.581,19.442 4.579,19.455 4.578,19.466 l 0.002,5.97 c 0,0.653 -0.531,1.184 -1.184,1.184 -0.653,0 -1.183,-0.531 -1.183,-1.184 V 18.338 C 2.213,18.261 2.198,17.2 1.377,17.056 1.371,17.059 0.946,17.036 0.946,17.036 L 0.488,17.06 c -0.806,0.141 -0.809,1.23 -0.809,1.276 v 7.1 c 0,0.653 -0.53,1.184 -1.183,1.184 -0.653,0 -1.184,-0.531 -1.184,-1.184 v -6.001 c -0.091,-0.604 -0.439,-0.288 -0.509,-0.217 -0.606,0.82 -1.002,1.822 -1.127,2.891 -0.036,0.313 -0.193,0.594 -0.44,0.79 -0.248,0.197 -0.558,0.285 -0.872,0.248 -0.315,-0.036 -0.595,-0.193 -0.791,-0.44 -0.197,-0.249 -0.285,-0.559 -0.248,-0.873 0.34,-2.922 2.148,-5.433 4.719,-6.553 10e-4,-0.006 0.216,-0.098 0.292,-0.292 0.051,-0.129 0.033,-0.291 -0.054,-0.484 C -2.114,13.673 -2.712,13.13 -3.491,12.898 -7.05,11.839 -6.654,6.612 -6.635,6.39 c 0.056,-0.65 0.63,-1.134 1.279,-1.079 0.633,0.053 1.098,0.593 1.082,1.257 -0.095,3.758 2.248,4.371 2.348,4.395 0.021,0.002 4.3,0.715 6.48,-1.046 C 5.386,9.246 5.811,8.29 5.857,6.993 6.003,2.735 4.699,0.852 3.189,-1.329 1.47,-3.811 -0.455,-6.594 -0.543,-12.861 c -2.406,2.78 -4.509,5.738 -6.269,8.853 -4.011,7.103 -6.357,15.15 -6.967,23.924 -0.184,3.347 1.729,4.685 2.115,4.919 l 0.025,0.014 0.024,0.012 c 5.985,2.856 12.805,4.366 19.724,4.366 6.911,0 13.726,-1.508 19.708,-4.358 l 0.024,-0.01 0.022,-0.013 c 0.41,-0.244 2.435,-1.643 2.119,-5.215 M 15.376,16.544 c -0.052,-0.096 -0.085,-0.132 -0.106,-0.153 -0.042,0.03 -0.105,0.098 -0.143,0.163 -0.589,1.135 -1.21,2.19 -1.838,3.126 -0.084,0.13 -0.126,0.25 -0.126,0.353 0,0.029 0.003,0.056 0.01,0.083 0.047,0.186 0.261,0.308 0.285,0.321 0.561,0.227 1.183,0.35 1.813,0.35 0.619,0 1.233,-0.122 1.824,-0.36 0.061,-0.033 0.223,-0.128 0.263,-0.281 0.007,-0.025 0.009,-0.051 0.009,-0.077 0,-0.134 -0.077,-0.282 -0.148,-0.391 -0.624,-0.927 -1.244,-1.983 -1.843,-3.134" style="fill:#ffffff;fill-opacity:1;fill-rule:nonzero;stroke:none" id="path1214" />
          </g>
        </g>
      </g>
    </g>
  </g>
</svg>
