<svg xmlns="http://www.w3.org/2000/svg" viewBox="0 0 64 64" width="64" height="64" aria-hidden="true" focusable="false">
  <defs>
    <linearGradient id="crest-gradient" x1="0" y1="0" x2="0" y2="1">
      <stop offset="0" stop-color="#ffcc00"/>
      <stop offset="0.5" stop-color="#ff4d00"/>
      <stop offset="0.74" stop-color="#cc0088"/>
      <stop offset="1" stop-color="#4f2a91"/>
    </linearGradient>
  </defs>
  <path transform="translate(8.3299 4) scale(0.19244)" fill="url(#crest-gradient)" fill-rule="evenodd" d="M24,216 26,220 138,220 139,221 139,227 138,228 30,228 34,235 138,235 139,236 139,241 138,242 39,242 47,250 138,250 139,251 139,255 138,256 53,256 66,265 138,265 139,266 139,269 138,270 77,270 90,275 102,277 103,278 109,278 110,279 138,279 139,278 150,277 166,272 182,264 192,257 204,246 212,236 220,223 221,219 224,214 223,213 222,214 221,213 220,214 219,213 218,214 217,213 216,214 215,213 214,214 213,213 212,214 211,213 210,214 209,213 208,214 207,213 206,214 205,213 204,214 203,213 202,214 201,213 200,214 199,213 198,214 197,213 196,214 195,213 194,214 193,213 192,214 191,213 190,214 189,213 188,214 187,213 186,214 185,213 184,214 183,213 182,214 181,213 180,214 179,213 178,214 177,213 176,214 175,213 174,214 173,213 172,214 171,213 170,214 169,213 168,214 167,213 166,214 165,213 164,214 163,213 162,214 161,213 160,214 159,213 158,214 157,213 156,214 155,213 154,214 153,213 152,214 151,213 150,214 149,213 148,214 147,213 146,214 145,213 144,214 143,213 142,214 141,213 140,214 139,213 138,214 137,213 136,214 135,213 134,214 133,213 132,214 131,213 130,214 129,213 128,214 127,213 126,214 125,213 124,214 123,213 122,214 121,213 120,214 119,213 118,214 117,213 116,214 115,213 114,214 113,213 112,214 111,213 110,214 109,213 108,214 107,213 106,214 105,213 104,214 103,213 102,214 101,213 100,214 99,213 98,214 97,213 96,214 95,213 94,214 93,213 92,214 91,213 90,214 89,213 88,214 87,213 86,214 85,213 84,214 83,213 82,214 81,213 80,214 79,213 78,214 77,213 76,214 75,213 74,214 73,213 72,214 71,213 70,214 69,213 68,214 67,213 66,214 65,213 64,214 63,213 62,214 61,213 60,214 59,213 58,214 57,213 56,214 55,213 54,214 53,213 52,214 51,213 50,214 49,213 48,214 47,213 46,214 45,213 44,214 43,213 42,214 41,213 40,214 39,213 38,214 37,213 36,214 35,213 34,214 33,213 32,214 31,213 30,214 29,213 28,214 25,213ZM19,199 21,205 84,205 84,199ZM230,193 229,194 223,194 222,195 216,195 215,196 209,196 208,197 202,197 201,198 174,201 167,203 140,206 139,207 139,210 144,210 145,209 161,209 162,208 178,208 179,207 194,207 195,206 211,206 212,205 227,205ZM17,185 19,190 20,189 21,190 22,189 23,190 24,189 25,190 26,189 27,190 28,189 29,190 30,189 31,190 32,189 33,190 34,189 35,190 36,189 37,190 38,189 39,190 40,189 41,190 42,189 43,190 44,189 45,190 46,189 47,190 48,189 49,190 50,189 51,190 52,189 53,190 54,189 55,190 56,189 57,190 58,189 59,190 60,189 61,190 62,189 63,190 64,189 65,190 66,189 67,190 68,189 69,190 70,189 71,190 72,189 73,190 74,189 75,190 76,189 77,190 78,189 79,190 80,189 81,190 84,189 84,184 83,185 82,184 81,185 80,184 79,185 78,184 77,185 76,184 75,185 74,184 73,185 72,184 71,185 70,184 69,185 68,184 67,185 66,184 65,185 64,184 63,185 62,184 61,185 60,184 59,185 58,184 57,185 56,184 55,185 54,184 53,185 52,184 51,185 50,184 49,185 48,184 47,185 46,184 45,185 44,184 43,185 42,184 41,185 40,184 39,185 38,184 37,185 36,184 35,185 34,184 33,185 32,184 31,185 30,184 29,185 28,184 27,185 26,184 25,185 24,184 23,185 22,184 21,185 20,184ZM232,172 214,178 193,183 186,186 179,187 175,189 172,189 168,191 165,191 161,193 138,199 138,202 154,200 155,199 159,199 160,198 164,198 165,197 169,197 170,196 174,196 175,195 179,195 180,194 184,194 185,193 189,193 195,191 200,191 210,188 215,188 225,185 230,185 232,181ZM17,170 17,174 84,174 84,170ZM232,150 225,154 223,154 218,157 209,160 186,171 184,171 163,181 161,181 156,184 154,184 149,187 136,192 136,195 139,195 154,190 157,188 160,188 163,186 232,163ZM232,126 132,186 134,189 232,140ZM232,96 128,180 130,182 133,181 186,145 189,142 230,115 232,113ZM232,59 125,172 124,174 125,176 128,175 232,81ZM232,12 177,87 175,91 169,98 167,102 161,109 146,131 140,138 138,142 121,164 118,170 120,171 122,170 162,122 232,41ZM216,11 192,11 190,13 189,17 187,19 179,36 176,40 176,42 174,44 167,59 164,63 164,65 162,67 154,84 152,86 151,90 149,92 141,109 139,111 139,113 137,115 116,157 114,159 111,165 114,167 116,165 121,156 129,145 130,142 142,125 143,122 157,102 158,99ZM177,11 157,11 156,12 135,75 133,78 120,118 118,121 112,141 110,144 106,158 104,162 108,163 110,159 110,157 121,135 125,124 132,111 136,100 143,87 147,76 152,67 152,65 154,63 154,61 163,43 163,41 165,39 165,37 174,19 174,17 176,15ZM144,11 125,11 125,15 123,20 122,30 121,31 121,35 120,36 120,40 118,46 118,51 117,52 117,56 116,57 116,61 115,62 115,66 113,72 111,88 109,93 108,103 107,104 107,108 106,109 106,113 104,119 102,135 100,140 99,150 97,156 97,160 100,161ZM113,11 96,11 95,12 95,29 94,30 95,33 94,34 94,52 93,53 94,56 93,57 93,76 92,77 93,80 92,81 92,99 91,100 92,103 91,104 91,122 90,123 91,126 90,127 89,159 93,159 93,153 94,152 94,146 95,145 95,137 97,130 98,116 99,115 101,94 102,93 102,87 104,80 104,73 105,72 105,66 106,65 106,59 107,58 108,44 110,37ZM17,11 17,158 18,159 84,159 84,11Z"/>
</svg>
