<svg xmlns="http://www.w3.org/2000/svg" viewBox="0 0 64 64" width="64" height="64" aria-hidden="true" focusable="false">
  <g transform="translate(4 7.17985) scale(0.941606)">
    <defs id="defs2" />
    <g id="layer1" transform="translate(-69.386462,-74.582011)">
      <g aria-label="學德" transform="scale(1.0573606,0.94575115)" style="font-style:normal;font-variant:normal;font-weight:normal;font-stretch:normal;font-size:5.46241999px;line-height:1.25;font-family:Helvetica;-inkscape-font-specification:Helvetica;letter-spacing:0px;word-spacing:0px;fill:#0000d3;fill-opacity:1;stroke:none;stroke-width:0.13656051" id="text924-9" />
      <g id="g1800">
        <path id="path1708-8" d="m 71.597632,108.86932 -0.002,0.60513 c -0.006,1.21408 0.27919,2.61509 0.63097,3.92224 -0.76792,0.77912 -1.46954,1.38189 -2.44533,2.04484 l -0.39481,0.26768 5.74952,3.35174 -0.56172,1.96628 0.23255,0.10749 c 7.66402,3.57685 15.77856,6.1324 24.31634,6.16603 h 0.002 c 8.537788,-0.0336 16.650258,-2.58918 24.314278,-6.16603 l 0.23254,-0.10749 -0.5612,-1.96525 5.74848,-3.35277 -0.39274,-0.26768 c -0.97536,-0.66265 -1.6778,-1.26624 -2.44533,-2.04484 0.35175,-1.30706 0.6369,-2.70825 0.63097,-3.92224 l -0.004,-0.60513 -0.48059,0.37104 c -2.85422,2.19712 -6.24185,3.63705 -9.39477,4.94336 l -0.24185,0.0992 0.56224,2.16628 0.0315,-0.008 c -5.9444,2.3864 -11.03084,3.95641 -17.999928,3.92844 h -0.002 c -6.97008,0.028 -12.05859,-1.54248 -18.00461,-3.92947 l 0.0357,0.009 0.56069,-2.16628 -0.24029,-0.0992 c -3.15292,-1.3063 -6.54212,-2.74624 -9.39633,-4.94336 z" style="color:#000000;font-style:normal;font-variant:normal;font-weight:normal;font-stretch:normal;font-size:medium;line-height:normal;font-family:sans-serif;font-variant-ligatures:normal;font-variant-position:normal;font-variant-caps:normal;font-variant-numeric:normal;font-variant-alternates:normal;font-feature-settings:normal;text-indent:0;text-align:start;text-decoration:none;text-decoration-line:none;text-decoration-style:solid;text-decoration-color:#000000;letter-spacing:normal;word-spacing:normal;text-transform:none;writing-mode:lr-tb;direction:ltr;text-orientation:mixed;dominant-baseline:auto;baseline-shift:baseline;text-anchor:start;white-space:normal;shape-padding:0;clip-rule:nonzero;display:inline;overflow:visible;visibility:visible;opacity:1;isolation:auto;mix-blend-mode:normal;color-interpolation:sRGB;color-interpolation-filters:linearRGB;solid-color:#000000;solid-opacity:1;vector-effect:none;fill:#f9d1b8;fill-opacity:1;fill-rule:nonzero;stroke:none;stroke-width:0.60000002;stroke-linecap:butt;stroke-linejoin:miter;stroke-miterlimit:4;stroke-dasharray:none;stroke-dashoffset:0;stroke-opacity:1;color-rendering:auto;image-rendering:auto;shape-rendering:auto;text-rendering:auto;enable-background:accumulate" />
        <path id="path1116-9-7" d="M 100.14033,82.970154 H 80.7967 v 15.851455 c 0,7.037601 7.46068,14.511301 16.143176,16.868761 1.581595,0.40371 2.935178,0.28169 4.378834,-0.10215 8.52579,-2.46479 15.77875,-9.82766 15.77875,-16.76661 V 82.970155 H 97.753833" style="opacity:1;fill:#fbf2c6;fill-opacity:1;stroke:none;stroke-width:0.9000001;stroke-linecap:butt;stroke-linejoin:miter;stroke-miterlimit:4;stroke-dasharray:none;stroke-opacity:1" />
        <path id="path1427" transform="scale(0.26458333)" d="m 310.99805,314.30664 v 82.53125 h 2.64453 v -82.53125 z m 6.82226,0 v 92.53125 h 2.64258 v -92.53125 z m 6.8125,0 v 100.53125 h 2.65039 V 314.30664 Z m 6.82227,0 v 106.53125 h 2.64258 V 314.30664 Z m 6.82031,0 v 110.53125 h 2.64258 V 314.30664 Z m 6.8125,0 v 114.53125 h 2.65039 V 314.30664 Z m 6.82227,0 v 118.53125 h 2.64257 V 314.30664 Z m 6.82031,0 v 120.53125 h 2.64258 V 314.30664 Z m 6.8125,0 v 122.53125 h 2.65039 V 314.30664 Z m 6.82226,0 v 124.53125 h 2.64258 V 314.30664 Z m 6.82032,0 v 122.53125 h 2.64257 V 314.30664 Z m 6.81445,0 v 120.53125 h 2.64844 V 314.30664 Z m 6.82031,0 v 118.53125 h 2.65039 V 314.30664 Z m 6.82031,0 v 114.53125 h 2.64258 V 314.30664 Z m 6.82032,0 v 110.53125 h 2.64258 V 314.30664 Z m 6.81445,0 v 106.53125 h 2.65039 V 314.30664 Z m 6.82031,0 v 100.53125 h 2.64258 V 314.30664 Z m 6.82032,0 v 94.53125 h 2.64257 v -94.53125 z m 6.81445,0 v 84.53125 h 2.65039 v -84.53125 z" style="color:#000000;font-style:normal;font-variant:normal;font-weight:normal;font-stretch:normal;font-size:medium;line-height:normal;font-family:sans-serif;font-variant-ligatures:normal;font-variant-position:normal;font-variant-caps:normal;font-variant-numeric:normal;font-variant-alternates:normal;font-feature-settings:normal;text-indent:0;text-align:start;text-decoration:none;text-decoration-line:none;text-decoration-style:solid;text-decoration-color:#000000;letter-spacing:normal;word-spacing:normal;text-transform:none;writing-mode:lr-tb;direction:ltr;text-orientation:mixed;dominant-baseline:auto;baseline-shift:baseline;text-anchor:start;white-space:normal;shape-padding:0;clip-rule:nonzero;display:inline;overflow:visible;visibility:visible;opacity:1;isolation:auto;mix-blend-mode:normal;color-interpolation:sRGB;color-interpolation-filters:linearRGB;solid-color:#000000;solid-opacity:1;vector-effect:none;fill:#9f8a5a;fill-opacity:1;fill-rule:nonzero;stroke:none;stroke-width:2.64566922;stroke-linecap:butt;stroke-linejoin:miter;stroke-miterlimit:4;stroke-dasharray:none;stroke-dashoffset:0;stroke-opacity:1;color-rendering:auto;image-rendering:auto;shape-rendering:auto;text-rendering:auto;enable-background:accumulate" />
        <path id="path1184-4-0-3-01" d="m 82.227579,96.446237 -0.01654,0.02997 c -0.115361,0.207653 -0.266774,0.350952 -0.458885,0.367419 l -0.03049,0.0026 v 3.799254 l 0.03876,-0.007 c 1.343797,-0.21839 1.857679,-0.17758 2.10013,-0.0858 0.121229,0.0459 0.176702,0.10339 0.243914,0.15709 0.06722,0.0537 0.14741,0.1003 0.29714,0.10646 h 0.0016 0.0016 c 0.149731,-0.006 0.229923,-0.0527 0.297138,-0.10646 0.06722,-0.0537 0.122169,-0.11119 0.243395,-0.15709 0.242451,-0.0918 0.756848,-0.13262 2.100648,0.0858 l 0.0382,0.007 v -3.799253 l -0.03051,-0.0026 c -0.192075,-0.01648 -0.342965,-0.159764 -0.458335,-0.367417 l -0.0165,-0.02997 -0.0295,0.01757 c -0.185309,0.113249 -0.472229,0.259487 -0.8263,0.183451 -0.256209,-0.05502 -0.497917,-0.144819 -0.725534,-0.152445 -0.216421,-0.0073 -0.418904,0.07808 -0.593247,0.324012 -0.07131,-0.101397 -0.145902,-0.183722 -0.226343,-0.233577 -0.161253,-0.09994 -0.337331,-0.104847 -0.519864,-0.07493 -0.182531,0.02992 -0.37382,0.09393 -0.574125,0.136943 -0.354071,0.07604 -0.641509,-0.0702 -0.826823,-0.183451 z" style="color:#000000;font-style:normal;font-variant:normal;font-weight:normal;font-stretch:normal;font-size:medium;line-height:normal;font-family:sans-serif;font-variant-ligatures:normal;font-variant-position:normal;font-variant-caps:normal;font-variant-numeric:normal;font-variant-alternates:normal;font-feature-settings:normal;text-indent:0;text-align:start;text-decoration:none;text-decoration-line:none;text-decoration-style:solid;text-decoration-color:#000000;letter-spacing:normal;word-spacing:normal;text-transform:none;writing-mode:lr-tb;direction:ltr;text-orientation:mixed;dominant-baseline:auto;baseline-shift:baseline;text-anchor:start;white-space:normal;shape-padding:0;clip-rule:nonzero;display:inline;overflow:visible;visibility:visible;opacity:1;isolation:auto;mix-blend-mode:normal;color-interpolation:sRGB;color-interpolation-filters:linearRGB;solid-color:#000000;solid-opacity:1;vector-effect:none;fill:#fbf2c6;fill-opacity:1;fill-rule:nonzero;stroke:none;stroke-width:0.06620283px;stroke-linecap:butt;stroke-linejoin:miter;stroke-miterlimit:4;stroke-dasharray:none;stroke-dashoffset:0;stroke-opacity:1;color-rendering:auto;image-rendering:auto;shape-rendering:auto;text-rendering:auto;enable-background:accumulate" />
        <path id="path1184-4-0-3-9" d="m 110.93692,96.446241 -0.0165,0.02997 c -0.11536,0.207653 -0.26678,0.350952 -0.45889,0.367419 l -0.0305,0.0026 v 3.79925 l 0.0388,-0.007 c 1.3438,-0.21839 1.85768,-0.17758 2.10013,-0.0858 0.12123,0.0459 0.17671,0.10339 0.24392,0.1571 0.0672,0.0537 0.14741,0.1003 0.29714,0.10645 h 0.002 0.002 c 0.14973,-0.006 0.22992,-0.0528 0.29714,-0.10645 0.0672,-0.0537 0.12216,-0.11119 0.24339,-0.1571 0.24245,-0.0918 0.75685,-0.13261 2.10065,0.0858 l 0.0382,0.007 v -3.799249 l -0.0305,-0.0026 c -0.19207,-0.01648 -0.34296,-0.159764 -0.45833,-0.367417 l -0.0165,-0.02997 -0.0295,0.01757 c -0.18531,0.113249 -0.47223,0.259487 -0.8263,0.183451 -0.25621,-0.05502 -0.49792,-0.144819 -0.72554,-0.152445 -0.21642,-0.0073 -0.4189,0.07808 -0.59324,0.324012 -0.0713,-0.101397 -0.1459,-0.183722 -0.22635,-0.233577 -0.16125,-0.09994 -0.33733,-0.104847 -0.51986,-0.07493 -0.18253,0.02992 -0.37382,0.09393 -0.57412,0.136943 -0.35408,0.07604 -0.64151,-0.0702 -0.82683,-0.183451 z" style="color:#000000;font-style:normal;font-variant:normal;font-weight:normal;font-stretch:normal;font-size:medium;line-height:normal;font-family:sans-serif;font-variant-ligatures:normal;font-variant-position:normal;font-variant-caps:normal;font-variant-numeric:normal;font-variant-alternates:normal;font-feature-settings:normal;text-indent:0;text-align:start;text-decoration:none;text-decoration-line:none;text-decoration-style:solid;text-decoration-color:#000000;letter-spacing:normal;word-spacing:normal;text-transform:none;writing-mode:lr-tb;direction:ltr;text-orientation:mixed;dominant-baseline:auto;baseline-shift:baseline;text-anchor:start;white-space:normal;shape-padding:0;clip-rule:nonzero;display:inline;overflow:visible;visibility:visible;opacity:1;isolation:auto;mix-blend-mode:normal;color-interpolation:sRGB;color-interpolation-filters:linearRGB;solid-color:#000000;solid-opacity:1;vector-effect:none;fill:#fbf2c6;fill-opacity:1;fill-rule:nonzero;stroke:none;stroke-width:0.06620283px;stroke-linecap:butt;stroke-linejoin:miter;stroke-miterlimit:4;stroke-dasharray:none;stroke-dashoffset:0;stroke-opacity:1;color-rendering:auto;image-rendering:auto;shape-rendering:auto;text-rendering:auto;enable-background:accumulate" />
        <path id="path1184-4-0-3-0" d="m 110.93595,84.987055 -0.0165,0.02997 c -0.11536,0.207653 -0.26677,0.350952 -0.45888,0.36742 l -0.0305,0.0026 v 3.79925 l 0.0388,-0.0067 c 1.34379,-0.21839 1.85768,-0.177581 2.10013,-0.08578 0.12123,0.0459 0.1767,0.103389 0.24391,0.157096 0.0672,0.05371 0.14741,0.100302 0.29714,0.106456 h 0.002 0.002 c 0.14973,-0.0062 0.22992,-0.05275 0.29714,-0.106456 0.0672,-0.05371 0.12217,-0.11119 0.24339,-0.157096 0.24245,-0.0918 0.75685,-0.132611 2.10065,0.08578 l 0.0382,0.0067 v -3.79925 l -0.0305,-0.0026 c -0.19208,-0.01648 -0.34297,-0.159765 -0.45834,-0.367418 l -0.0165,-0.02997 -0.0295,0.01757 c -0.18531,0.113249 -0.47223,0.259487 -0.8263,0.183451 -0.25621,-0.05502 -0.49792,-0.144819 -0.72553,-0.152445 -0.21642,-0.0073 -0.41891,0.07808 -0.59325,0.324013 -0.0713,-0.101398 -0.1459,-0.183723 -0.22634,-0.233578 -0.16126,-0.09994 -0.33733,-0.104847 -0.51987,-0.07493 -0.18253,0.02992 -0.37382,0.09393 -0.57412,0.136943 -0.35407,0.07604 -0.64151,-0.0702 -0.82682,-0.183451 z" style="color:#000000;font-style:normal;font-variant:normal;font-weight:normal;font-stretch:normal;font-size:medium;line-height:normal;font-family:sans-serif;font-variant-ligatures:normal;font-variant-position:normal;font-variant-caps:normal;font-variant-numeric:normal;font-variant-alternates:normal;font-feature-settings:normal;text-indent:0;text-align:start;text-decoration:none;text-decoration-line:none;text-decoration-style:solid;text-decoration-color:#000000;letter-spacing:normal;word-spacing:normal;text-transform:none;writing-mode:lr-tb;direction:ltr;text-orientation:mixed;dominant-baseline:auto;baseline-shift:baseline;text-anchor:start;white-space:normal;shape-padding:0;clip-rule:nonzero;display:inline;overflow:visible;visibility:visible;opacity:1;isolation:auto;mix-blend-mode:normal;color-interpolation:sRGB;color-interpolation-filters:linearRGB;solid-color:#000000;solid-opacity:1;vector-effect:none;fill:#fbf2c6;fill-opacity:1;fill-rule:nonzero;stroke:none;stroke-width:0.06620283px;stroke-linecap:butt;stroke-linejoin:miter;stroke-miterlimit:4;stroke-dasharray:none;stroke-dashoffset:0;stroke-opacity:1;color-rendering:auto;image-rendering:auto;shape-rendering:auto;text-rendering:auto;enable-background:accumulate" />
        <path id="path1184-4-0-3" d="m 96.58216,84.987056 -0.01654,0.02997 c -0.115361,0.207653 -0.266774,0.350952 -0.458885,0.367419 l -0.03049,0.0026 v 3.79925 l 0.03876,-0.0067 c 1.343797,-0.21839 1.857679,-0.177581 2.10013,-0.08578 0.121229,0.0459 0.176702,0.103389 0.243914,0.157097 0.06722,0.05371 0.14741,0.100301 0.29714,0.106455 h 0.0016 0.0016 c 0.149731,-0.0062 0.229923,-0.05275 0.297138,-0.106455 0.06722,-0.05371 0.122169,-0.111191 0.243395,-0.157097 0.242451,-0.0918 0.756848,-0.132611 2.100648,0.08578 l 0.0382,0.0067 v -3.799249 l -0.0305,-0.0026 c -0.1921,-0.01648 -0.34299,-0.159765 -0.45836,-0.367418 l -0.0165,-0.02997 -0.0295,0.01757 c -0.18531,0.113249 -0.47223,0.259487 -0.8263,0.183451 -0.256209,-0.05502 -0.497917,-0.144819 -0.725535,-0.152445 -0.216421,-0.0073 -0.418904,0.07808 -0.593246,0.324012 -0.07131,-0.101397 -0.145902,-0.183722 -0.226343,-0.233577 -0.161253,-0.09994 -0.337331,-0.104847 -0.519864,-0.07493 -0.182531,0.02992 -0.37382,0.09393 -0.574125,0.136943 -0.354071,0.07604 -0.641509,-0.0702 -0.826823,-0.183451 z" style="color:#000000;font-style:normal;font-variant:normal;font-weight:normal;font-stretch:normal;font-size:medium;line-height:normal;font-family:sans-serif;font-variant-ligatures:normal;font-variant-position:normal;font-variant-caps:normal;font-variant-numeric:normal;font-variant-alternates:normal;font-feature-settings:normal;text-indent:0;text-align:start;text-decoration:none;text-decoration-line:none;text-decoration-style:solid;text-decoration-color:#000000;letter-spacing:normal;word-spacing:normal;text-transform:none;writing-mode:lr-tb;direction:ltr;text-orientation:mixed;dominant-baseline:auto;baseline-shift:baseline;text-anchor:start;white-space:normal;shape-padding:0;clip-rule:nonzero;display:inline;overflow:visible;visibility:visible;opacity:1;isolation:auto;mix-blend-mode:normal;color-interpolation:sRGB;color-interpolation-filters:linearRGB;solid-color:#000000;solid-opacity:1;vector-effect:none;fill:#fbf2c6;fill-opacity:1;fill-rule:nonzero;stroke:none;stroke-width:0.06620283px;stroke-linecap:butt;stroke-linejoin:miter;stroke-miterlimit:4;stroke-dasharray:none;stroke-dashoffset:0;stroke-opacity:1;color-rendering:auto;image-rendering:auto;shape-rendering:auto;text-rendering:auto;enable-background:accumulate" />
        <path id="path1184-4-0" d="m 82.22745,84.987057 -0.01654,0.02997 c -0.115361,0.207653 -0.266774,0.350952 -0.458885,0.367419 l -0.03049,0.0026 v 3.79925 l 0.03876,-0.0067 c 1.343797,-0.21839 1.857679,-0.177581 2.10013,-0.08578 0.121229,0.0459 0.176702,0.103389 0.243914,0.157097 0.06722,0.05371 0.14741,0.100301 0.29714,0.106455 h 0.0016 0.0016 c 0.149731,-0.0062 0.229923,-0.05275 0.297138,-0.106455 0.06722,-0.05371 0.122169,-0.111191 0.243395,-0.157097 0.242451,-0.0918 0.756854,-0.132611 2.100649,0.08578 l 0.03824,0.0067 v -3.799249 l -0.03049,-0.0026 c -0.192113,-0.01648 -0.343007,-0.159766 -0.458374,-0.367419 l -0.01654,-0.02997 -0.02946,0.01757 c -0.185312,0.113249 -0.472234,0.259487 -0.826304,0.183451 -0.256212,-0.05502 -0.49792,-0.144819 -0.725538,-0.152445 -0.216421,-0.0073 -0.418904,0.07808 -0.593246,0.324012 -0.07131,-0.101397 -0.145902,-0.183722 -0.226343,-0.233577 -0.161253,-0.09994 -0.337331,-0.104847 -0.519864,-0.07493 -0.182531,0.02992 -0.37382,0.09393 -0.574125,0.136943 -0.354071,0.07604 -0.641509,-0.0702 -0.826823,-0.183451 z" style="color:#000000;font-style:normal;font-variant:normal;font-weight:normal;font-stretch:normal;font-size:medium;line-height:normal;font-family:sans-serif;font-variant-ligatures:normal;font-variant-position:normal;font-variant-caps:normal;font-variant-numeric:normal;font-variant-alternates:normal;font-feature-settings:normal;text-indent:0;text-align:start;text-decoration:none;text-decoration-line:none;text-decoration-style:solid;text-decoration-color:#000000;letter-spacing:normal;word-spacing:normal;text-transform:none;writing-mode:lr-tb;direction:ltr;text-orientation:mixed;dominant-baseline:auto;baseline-shift:baseline;text-anchor:start;white-space:normal;shape-padding:0;clip-rule:nonzero;display:inline;overflow:visible;visibility:visible;opacity:1;isolation:auto;mix-blend-mode:normal;color-interpolation:sRGB;color-interpolation-filters:linearRGB;solid-color:#000000;solid-opacity:1;vector-effect:none;fill:#fbf2c6;fill-opacity:1;fill-rule:nonzero;stroke:none;stroke-width:0.06620283px;stroke-linecap:butt;stroke-linejoin:miter;stroke-miterlimit:4;stroke-dasharray:none;stroke-dashoffset:0;stroke-opacity:1;color-rendering:auto;image-rendering:auto;shape-rendering:auto;text-rendering:auto;enable-background:accumulate" />
        <path id="rect1135" d="m 80.7967,75.032654 h 36.26973 v 7.951271 H 80.7967 Z" style="opacity:1;fill:#f9d1b8;fill-opacity:1;stroke:none;stroke-width:0.65442735;stroke-linecap:round;stroke-miterlimit:4;stroke-dasharray:none;stroke-dashoffset:0;stroke-opacity:1" />
        <g id="text828" style="font-style:normal;font-variant:normal;font-weight:normal;font-stretch:normal;font-size:5.34628057px;line-height:1.25;font-family:Helvetica;-inkscape-font-specification:Helvetica;letter-spacing:0px;word-spacing:0px;fill:#000000;fill-opacity:1;stroke:none;stroke-width:0.13365701" transform="translate(-0.09449405,-0.1889881)" aria-label="SHAW  COLLEGE">
          <path id="path895" style="font-style:normal;font-variant:normal;font-weight:bold;font-stretch:normal;font-family:'Times New Roman';-inkscape-font-specification:'Times New Roman, Bold';fill:#c83e29;fill-opacity:1;stroke-width:0.13365701" d="m 81.587303,118.35758 -0.479241,1.07861 -0.09672,-0.0458 q 0.121591,-0.43347 -0.03223,-0.80387 -0.150342,-0.37165 -0.461746,-0.51918 -0.24063,-0.114 -0.44365,-0.0513 -0.199542,0.0615 -0.278898,0.22894 -0.05029,0.10616 -0.03987,0.2122 0.01588,0.1433 0.115453,0.32335 0.074,0.13038 0.381161,0.51855 0.430702,0.54203 0.51027,0.88014 0.07721,0.337 -0.07256,0.65312 -0.190006,0.40105 -0.641243,0.54257 -0.447761,0.14028 -0.929021,-0.0877 -0.150984,-0.0715 -0.270924,-0.1659 -0.11994,-0.0944 -0.282587,-0.27543 -0.09089,-0.10083 -0.164017,-0.13548 -0.06134,-0.0291 -0.152105,-0.0143 -0.09077,0.0148 -0.179057,0.0914 l -0.08729,-0.0414 0.572252,-1.20787 0.08729,0.0414 q -0.137618,0.55875 0.02986,0.9674 0.170952,0.4074 0.513024,0.56947 0.264221,0.12518 0.488102,0.055 0.226239,-0.069 0.316771,-0.26011 0.05365,-0.11324 0.04261,-0.24846 -0.0087,-0.1341 -0.08665,-0.28659 -0.07685,-0.15484 -0.315604,-0.45572 -0.334728,-0.42145 -0.454285,-0.66296 -0.119558,-0.24152 -0.135062,-0.47707 -0.01315,-0.23443 0.09303,-0.45854 0.181064,-0.38218 0.589215,-0.51812 0.40815,-0.13593 0.835151,0.0664 0.155702,0.0738 0.284084,0.18081 0.09747,0.0808 0.218644,0.23357 0.124655,0.1515 0.188351,0.18167 0.06134,0.0291 0.114607,0.008 0.05327,-0.021 0.152116,-0.15035 z" />
          <path id="path897" style="font-style:normal;font-variant:normal;font-weight:bold;font-stretch:normal;font-family:'Times New Roman';-inkscape-font-specification:'Times New Roman, Bold';fill:#c83e29;fill-opacity:1;stroke-width:0.13365701" d="m 82.432027,120.79861 -0.400417,1.02067 q -0.09915,0.25274 -0.09721,0.32641 0.0044,0.0746 0.0655,0.15469 0.06451,0.0786 0.203031,0.13293 l 0.109358,0.0429 -0.03528,0.0899 -1.722991,-0.67595 0.03527,-0.0899 0.109357,0.0429 q 0.14338,0.0563 0.250887,0.0395 0.07653,-0.009 0.142969,-0.0785 0.04961,-0.0478 0.146857,-0.29571 l 0.850409,-2.16771 q 0.09915,-0.25274 0.09721,-0.32641 -0.0019,-0.0737 -0.06646,-0.15226 -0.06113,-0.0801 -0.199648,-0.13441 l -0.109358,-0.0429 0.03527,-0.0899 1.722991,0.67595 -0.03527,0.0899 -0.109358,-0.0429 q -0.14338,-0.0563 -0.250887,-0.0395 -0.07653,0.009 -0.145399,0.0776 -0.04961,0.0478 -0.146857,0.29572 l -0.366096,0.93318 1.164052,0.45667 0.366096,-0.93319 q 0.09915,-0.25273 0.09721,-0.32641 -0.0019,-0.0737 -0.06646,-0.15226 -0.06356,-0.081 -0.202078,-0.13536 l -0.106927,-0.0419 0.03527,-0.0899 1.720561,0.67499 -0.03527,0.0899 -0.106928,-0.0419 q -0.14581,-0.0572 -0.250887,-0.0395 -0.07653,0.009 -0.145399,0.0776 -0.04961,0.0478 -0.146857,0.29571 l -0.850409,2.16771 q -0.09915,0.25274 -0.09721,0.32641 0.0019,0.0737 0.0655,0.15469 0.06451,0.0786 0.203031,0.13293 l 0.106928,0.0419 -0.03527,0.0899 -1.720561,-0.67499 0.03527,-0.0899 0.106928,0.0419 q 0.14581,0.0572 0.250887,0.0395 0.07653,-0.009 0.145399,-0.0776 0.04961,-0.0478 0.146857,-0.29571 l 0.400416,-1.02068 z" />
          <path id="path899" style="font-style:normal;font-variant:normal;font-weight:bold;font-stretch:normal;font-family:'Times New Roman';-inkscape-font-specification:'Times New Roman, Bold';fill:#c83e29;fill-opacity:1;stroke-width:0.13365701" d="m 86.747064,123.04541 -1.194963,-0.36827 -0.243684,0.28548 q -0.120595,0.14312 -0.153655,0.25039 -0.04382,0.1422 0.05017,0.24492 0.05505,0.0607 0.313343,0.16213 l -0.02845,0.0923 -1.125111,-0.34674 0.02845,-0.0923 q 0.190571,0.0287 0.345495,-0.0574 0.155693,-0.0886 0.446997,-0.42223 l 2.041813,-2.32638 0.0474,0.0146 0.364962,3.15007 q 0.05315,0.44798 0.133892,0.58486 0.06099,0.10348 0.211814,0.16362 l -0.02845,0.0923 -1.636525,-0.50435 0.02845,-0.0923 0.06736,0.0208 q 0.197081,0.0607 0.293826,0.0305 0.06718,-0.023 0.09025,-0.0978 0.01384,-0.0449 0.01348,-0.0969 0.0019,-0.024 -0.01718,-0.21017 z m -0.02793,-0.21075 -0.144883,-1.32033 -0.877945,1.00511 z" />
          <path id="path901" style="font-style:normal;font-variant:normal;font-weight:bold;font-stretch:normal;font-family:'Times New Roman';-inkscape-font-specification:'Times New Roman, Bold';fill:#c83e29;fill-opacity:1;stroke-width:0.13365701" d="m 93.354656,121.99508 -0.01995,0.0945 q -0.09868,-0.0128 -0.174792,0.0191 -0.07611,0.032 -0.147147,0.11568 -0.02179,0.0274 -0.244484,0.36193 l -1.688855,2.62902 -0.09961,-0.021 -0.386988,-2.41353 -1.41628,2.03288 -0.09451,-0.02 -0.542327,-3.06797 q -0.08365,-0.46321 -0.133739,-0.56716 -0.05009,-0.10396 -0.210327,-0.15379 l 0.01995,-0.0945 1.501872,0.31703 -0.01995,0.0945 q -0.182427,-0.0332 -0.254511,0.005 -0.06899,0.0361 -0.08463,0.1102 -0.02049,0.0971 0.03835,0.43764 l 0.324652,1.82409 0.821173,-1.19802 -0.0654,-0.398 q -0.05387,-0.3262 -0.0967,-0.43929 -0.04229,-0.11565 -0.117412,-0.17686 -0.07257,-0.0607 -0.233483,-0.0946 l 0.01995,-0.0945 1.678113,0.35423 -0.01995,0.0945 q -0.17678,-0.0346 -0.258797,-0.0253 -0.05741,0.007 -0.09723,0.0435 -0.03928,0.0344 -0.0506,0.088 -0.0124,0.0587 0.03892,0.3844 l 0.284748,1.77297 0.877731,-1.36484 q 0.137921,-0.211 0.176147,-0.29098 0.03823,-0.08 0.05332,-0.15149 0.02211,-0.10473 -0.03701,-0.17857 -0.05858,-0.0764 -0.259282,-0.1241 l 0.01995,-0.0945 z" />
          <path id="path903" style="font-style:normal;font-variant:normal;font-weight:bold;font-stretch:normal;font-family:'Times New Roman';-inkscape-font-specification:'Times New Roman, Bold';fill:#c83e29;fill-opacity:1;stroke-width:0.13365701" d="m 99.322774,122.31765 -0.05309,1.22578 -0.101713,-0.004 q -0.09397,-0.48485 -0.395864,-0.754 -0.301895,-0.26914 -0.698317,-0.28631 -0.331222,-0.0144 -0.615921,0.16406 -0.284699,0.17842 -0.425822,0.48063 -0.181365,0.3867 -0.202263,0.86919 -0.02056,0.47466 0.08247,0.87106 0.103139,0.3938 0.350029,0.60569 0.247003,0.20928 0.653858,0.2269 0.333829,0.0145 0.616608,-0.11962 0.285386,-0.13396 0.608611,-0.47793 l -0.01322,0.30514 q -0.31076,0.29748 -0.640257,0.42431 -0.326777,0.12433 -0.757104,0.10569 -0.565945,-0.0245 -0.996877,-0.2705 -0.428323,-0.24588 -0.64985,-0.68139 -0.218919,-0.43539 -0.198134,-0.91527 0.02192,-0.50596 0.304983,-0.94835 0.285676,-0.44227 0.745104,-0.67322 0.462036,-0.23083 0.967996,-0.20891 0.372951,0.0161 0.780626,0.19581 0.235873,0.10428 0.301074,0.10711 0.08346,0.004 0.146041,-0.0538 0.0653,-0.0599 0.08932,-0.1921 z" />
          <path id="path905" style="font-style:normal;font-variant:normal;font-weight:bold;font-stretch:normal;font-family:'Times New Roman';-inkscape-font-specification:'Times New Roman, Bold';fill:#c83e29;fill-opacity:1;stroke-width:0.13365701" d="m 101.36486,122.27533 q 0.84353,-0.0693 1.39392,0.43112 0.55299,0.50034 0.58845,1.28791 0.0303,0.67282 -0.34047,1.20169 -0.49104,0.70153 -1.4429,0.74439 -0.95447,0.043 -1.50517,-0.58029 -0.43505,-0.49258 -0.466637,-1.19409 -0.03546,-0.78757 0.475547,-1.33582 0.51349,-0.55098 1.29726,-0.55491 z m 0.0388,0.16549 q -0.48506,0.0219 -0.71571,0.52873 -0.18771,0.4161 -0.15342,1.17759 0.0407,0.90492 0.3784,1.3235 0.23529,0.29253 0.63429,0.27456 0.2686,-0.0121 0.44268,-0.15059 0.22197,-0.17723 0.33332,-0.54809 0.11122,-0.37346 0.0847,-0.96283 -0.0316,-0.70151 -0.1776,-1.04248 -0.14613,-0.34358 -0.356,-0.47786 -0.20726,-0.13439 -0.47065,-0.12253 z" />
          <path id="path907" style="font-style:normal;font-variant:normal;font-weight:bold;font-stretch:normal;font-family:'Times New Roman';-inkscape-font-specification:'Times New Roman, Bold';fill:#c83e29;fill-opacity:1;stroke-width:0.13365701" d="m 106.80276,124.08671 0.0282,1.24938 -3.1168,0.40525 -0.0125,-0.0958 0.11649,-0.0152 q 0.15274,-0.0199 0.23886,-0.0863 0.0626,-0.045 0.0874,-0.13772 0.0204,-0.0658 -0.0139,-0.32988 l -0.30023,-2.30912 q -0.035,-0.26922 -0.0722,-0.33283 -0.0372,-0.0636 -0.13164,-0.10134 -0.0922,-0.0407 -0.23972,-0.0215 l -0.11649,0.0151 -0.0125,-0.0958 1.87163,-0.24335 0.0125,0.0958 -0.15273,0.0199 q -0.15274,0.0199 -0.23886,0.0863 -0.0626,0.045 -0.09,0.13806 -0.0204,0.0658 0.0139,0.32988 l 0.29081,2.23663 q 0.035,0.26923 0.0758,0.34026 0.0405,0.0684 0.13581,0.0929 0.0677,0.0149 0.31626,-0.0174 l 0.29252,-0.038 q 0.27958,-0.0364 0.45318,-0.15895 0.17359,-0.12261 0.2806,-0.35238 0.10961,-0.23011 0.17742,-0.66013 z" />
          <path id="path909" style="font-style:normal;font-variant:normal;font-weight:bold;font-stretch:normal;font-family:'Times New Roman';-inkscape-font-specification:'Times New Roman, Bold';fill:#c83e29;fill-opacity:1;stroke-width:0.13365701" d="m 110.20888,123.38595 0.12391,1.24354 -3.07655,0.64304 -0.0198,-0.0945 0.11499,-0.024 q 0.15076,-0.0315 0.23153,-0.1044 0.059,-0.0497 0.0766,-0.14401 0.0153,-0.0672 -0.0392,-0.32784 l -0.4764,-2.2793 q -0.0555,-0.26575 -0.0975,-0.32632 -0.042,-0.0606 -0.13902,-0.091 -0.095,-0.0335 -0.24065,-0.003 l -0.11499,0.024 -0.0198,-0.0945 1.84746,-0.38614 0.0198,0.0945 -0.15076,0.0315 q -0.15076,0.0315 -0.23154,0.1044 -0.059,0.0496 -0.0791,0.14455 -0.0153,0.0672 0.0392,0.32783 l 0.46145,2.20776 q 0.0555,0.26575 0.10169,0.33344 0.0456,0.0651 0.14253,0.0822 0.0687,0.01 0.314,-0.0416 l 0.28874,-0.0603 q 0.27597,-0.0577 0.43965,-0.19323 0.16369,-0.13556 0.25277,-0.37286 0.0916,-0.23784 0.12628,-0.67179 z" />
          <path id="path911" style="font-style:normal;font-variant:normal;font-weight:bold;font-stretch:normal;font-family:'Times New Roman';-inkscape-font-specification:'Times New Roman, Bold';fill:#c83e29;fill-opacity:1;stroke-width:0.13365701" d="m 111.12866,120.95164 0.4005,1.38421 0.0677,-0.0196 q 0.32348,-0.0936 0.41016,-0.33879 0.0867,-0.2452 0.0122,-0.65301 l 0.0953,-0.0276 0.51513,1.78042 -0.0953,0.0276 q -0.11425,-0.28218 -0.26574,-0.43945 -0.14898,-0.158 -0.29501,-0.18368 -0.14675,-0.0282 -0.38999,0.0422 l 0.27715,0.95791 q 0.0813,0.28086 0.12197,0.33702 0.0432,0.0554 0.12002,0.0767 0.0768,0.0212 0.22225,-0.0208 l 0.20312,-0.0588 q 0.47645,-0.13785 0.69847,-0.44123 0.22454,-0.30411 0.21932,-0.79176 l 0.0928,-0.0268 0.15974,1.12505 -2.93895,0.85033 -0.0268,-0.0928 0.11284,-0.0327 q 0.14795,-0.0428 0.22299,-0.12159 0.055,-0.054 0.0655,-0.14938 0.0102,-0.0682 -0.0638,-0.32395 l -0.64718,-2.23681 q -0.0667,-0.2307 -0.0945,-0.27974 -0.0505,-0.0805 -0.13196,-0.10856 -0.1156,-0.0427 -0.28111,0.005 l -0.11284,0.0326 -0.0268,-0.0928 2.84617,-0.82349 0.29094,1.00556 -0.0953,0.0276 q -0.17937,-0.34758 -0.35871,-0.46961 -0.17683,-0.12276 -0.43933,-0.12834 -0.15349,-0.005 -0.53967,0.10722 z" />
          <path id="path913" style="font-style:normal;font-variant:normal;font-weight:bold;font-stretch:normal;font-family:'Times New Roman';-inkscape-font-specification:'Times New Roman, Bold';fill:#c83e29;fill-opacity:1;stroke-width:0.13365701" d="m 116.25715,118.88533 0.44265,1.16667 -0.0903,0.0343 q -0.34503,-0.41634 -0.76654,-0.5412 -0.42151,-0.12486 -0.80959,0.0224 -0.37098,0.14075 -0.53786,0.44419 -0.1678,0.30099 -0.12862,0.71331 0.0392,0.41232 0.18826,0.80528 0.18058,0.47594 0.42898,0.79213 0.2484,0.31618 0.56125,0.39014 0.31529,0.073 0.65943,-0.0576 0.1196,-0.0454 0.23481,-0.11701 0.11673,-0.075 0.23001,-0.17382 l -0.26114,-0.68828 q -0.0741,-0.19526 -0.12223,-0.24121 -0.0491,-0.0484 -0.15209,-0.0623 -0.10058,-0.0149 -0.22018,0.0305 l -0.0854,0.0324 -0.0343,-0.0903 1.60844,-0.61026 0.0343,0.0903 q -0.17842,0.0816 -0.23683,0.14849 -0.0569,0.0635 -0.0626,0.16615 -0.004,0.0547 0.0642,0.23532 l 0.26115,0.68828 q -0.26359,0.26195 -0.58087,0.4633 -0.31392,0.20286 -0.68247,0.3427 -0.47106,0.17872 -0.83163,0.17034 -0.35905,-0.0118 -0.67695,-0.12846 -0.31639,-0.12008 -0.54971,-0.3303 -0.29865,-0.272 -0.457,-0.68936 -0.28337,-0.74686 0.046,-1.46095 0.32936,-0.71409 1.12504,-1.01598 0.24651,-0.0935 0.45902,-0.12949 0.1148,-0.0212 0.38918,-0.0192 0.2759,-0.001 0.31983,-0.018 0.0683,-0.0259 0.1084,-0.097 0.0391,-0.0735 0.0352,-0.23112 z" />
          <path id="path915" style="font-style:normal;font-variant:normal;font-weight:bold;font-stretch:normal;font-family:'Times New Roman';-inkscape-font-specification:'Times New Roman, Bold';fill:#c83e29;fill-opacity:1;stroke-width:0.13365701" d="m 117.8572,118.45553 0.61929,1.30112 0.0636,-0.0303 q 0.30406,-0.14472 0.3499,-0.40072 0.0458,-0.256 -0.0937,-0.64637 l 0.0896,-0.0426 0.79656,1.67355 -0.0896,0.0426 q -0.15843,-0.25996 -0.33338,-0.39064 -0.17259,-0.13179 -0.32085,-0.1335 -0.14938,-0.004 -0.37802,0.10476 l 0.42857,0.90041 q 0.12565,0.264 0.17491,0.31283 0.0516,0.0477 0.13086,0.0562 0.0792,0.009 0.21594,-0.0565 l 0.19093,-0.0909 q 0.44785,-0.21316 0.61783,-0.54848 0.17234,-0.33645 0.0883,-0.81682 l 0.0872,-0.0415 0.33976,1.08435 -2.76254,1.31487 -0.0415,-0.0872 0.10607,-0.0505 q 0.13907,-0.0662 0.20037,-0.15608 0.0456,-0.0622 0.0404,-0.15801 -0.001,-0.0689 -0.11543,-0.30934 l -1.00074,-2.10254 q -0.10322,-0.21686 -0.13856,-0.26075 -0.0628,-0.0713 -0.1478,-0.0858 -0.12098,-0.0234 -0.27655,0.0507 l -0.10607,0.0505 -0.0415,-0.0872 2.67532,-1.27337 0.44988,0.94521 -0.0896,0.0426 q -0.23327,-0.31396 -0.43,-0.40536 -0.19438,-0.0925 -0.45432,-0.0555 -0.15219,0.0204 -0.51518,0.19317 z" />
        </g>
        <g id="text920" style="font-style:normal;font-variant:normal;font-weight:normal;font-stretch:normal;font-size:5.77592325px;line-height:1.25;font-family:Helvetica;-inkscape-font-specification:Helvetica;letter-spacing:0px;word-spacing:0px;fill:#c83e29;fill-opacity:1;stroke:none;stroke-width:0.14439808" aria-label="院書夫逸">
          <path id="path1169" style="font-style:normal;font-variant:normal;font-weight:normal;font-stretch:normal;font-family:DFPNMingXBold-B5;-inkscape-font-specification:DFPNMingXBold-B5;letter-spacing:3.55335426px;fill:#c83e29;fill-opacity:1;stroke-width:0.14439808" d="m 83.989379,76.224888 q 0.08461,0 0.377917,0.242543 0.219981,0.191779 0.219981,0.253825 0,0.06205 -0.152294,0.112811 -0.191779,0.05076 -0.219982,0.10153 -0.349714,0.750193 -0.676866,1.218359 0.389198,0.321511 0.547134,0.586617 0.118451,0.169216 0.180497,0.400479 0.07333,0.214341 0.07333,0.456884 0,0.30459 -0.10717,0.445604 -0.129733,0.186138 -0.270747,0.270746 -0.157935,0.08461 -0.242543,0.08461 -0.07897,0 -0.118452,-0.180498 -0.05641,-0.197419 -0.400479,-0.360995 v 1.489105 q 0,0.118452 -0.298949,0.174857 -0.118452,0.0056 -0.174857,0.0056 -0.180498,0 -0.180498,-0.180498 0.02256,-0.30459 0.02256,-0.597898 v -3.632515 q 0,-0.434322 -0.04512,-0.846082 0.394839,0.118451 0.806599,0.293309 h 0.265106 q 0.135373,-0.141014 0.219981,-0.248185 0.107171,-0.09025 0.174857,-0.09025 z m -0.789677,0.496368 v 2.97257 q 0.197419,0.03948 0.338433,0.03948 0.129733,0 0.186138,-0.06205 0.05076,-0.08461 0.05076,-0.287668 0,-0.372277 -0.08461,-0.60918 -0.124092,-0.315871 -0.366636,-0.62046 0.214341,-0.637383 0.349714,-1.4327 z m 2.233658,-0.496368 q 0.355355,0.03384 0.710709,0.09589 0.214341,0.01128 0.214341,0.118451 0,0.0282 -0.141014,0.09025 -0.129732,0.06769 -0.129732,0.157936 v 0.372276 H 86.663 q 0.112811,-0.112811 0.197419,-0.174857 0.107171,-0.141014 0.174857,-0.141014 0.07897,0 0.372277,0.253825 0.270746,0.219981 0.270746,0.321511 0,0.06769 -0.124092,0.09025 -0.163576,0 -0.180498,0.02256 -0.248184,0.174857 -0.597898,0.338433 0.02256,0.01128 0.02256,0.01128 0.20306,0.219982 0.20306,0.282028 0,0.09025 -0.09025,0.09025 h -1.601916 q -0.490728,0 -0.699428,0.01128 l -0.09025,-0.225622 q 0.276387,0.04512 0.789677,0.04512 h 0.778396 q 0.01692,-0.0056 0.169216,-0.20306 0.191779,-0.214341 0.225622,-0.214341 0.04512,0 0.124092,0.04512 0.07897,-0.191779 0.146655,-0.394839 h -1.951631 q -0.01128,0.214341 -0.03384,0.315871 -0.05076,0.219982 -0.191779,0.321511 -0.07897,0.05076 -0.157935,0.05076 -0.169217,0 -0.293309,-0.101529 -0.10153,-0.09025 -0.10153,-0.236904 0,-0.08461 0.191779,-0.186138 0.197419,-0.118451 0.30459,-0.242543 0.118451,-0.135374 0.191779,-0.394839 l 0.101529,0.02256 q 0,0.174857 -0.0056,0.293309 h 0.659944 v -0.349714 q 0,-0.242544 -0.03384,-0.485087 z m -1.173234,2.684901 q 0.265105,0.04512 0.778395,0.04512 h 1.590636 q 0.02256,-0.01128 0.186138,-0.219982 0.197419,-0.253824 0.242543,-0.253824 0.09589,0 0.327152,0.248184 0.236903,0.242543 0.236903,0.304589 0,0.07897 -0.124092,0.07897 h -0.992737 v 1.53423 q 0,0.163576 0.09025,0.186138 0.06769,0.01692 0.236903,0.01692 0.124093,-0.0056 0.186139,-0.07897 0.08461,-0.163576 0.2087,-0.744553 l 0.124092,0.02256 0.02256,0.372277 q 0,0.20306 0.141014,0.355354 0.118452,0.118452 0.118452,0.242544 0,0.163576 -0.118452,0.225622 -0.2087,0.124092 -0.682507,0.124092 h -0.338433 q -0.169216,0 -0.31587,-0.04512 -0.293309,-0.05076 -0.293309,-0.428682 v -1.782414 h -0.355355 q -0.04512,0.648663 -0.174857,0.981456 -0.129732,0.30459 -0.31023,0.541493 -0.191779,0.231262 -0.490728,0.406119 -0.377917,0.236903 -0.857363,0.40612 L 83.6171,81.301378 q 0.253825,-0.112811 0.496368,-0.332793 0.242544,-0.214341 0.41176,-0.496368 0.169217,-0.265106 0.231263,-0.552774 0.09589,-0.332793 0.112811,-0.806599 -0.360995,0.0056 -0.530212,0.02256 z" />
          <path id="path1171" style="font-style:normal;font-variant:normal;font-weight:normal;font-stretch:normal;font-family:DFPNMingXBold-B5;-inkscape-font-specification:DFPNMingXBold-B5;letter-spacing:3.55335426px;fill:#c83e29;fill-opacity:1;stroke-width:0.14439808" d="m 92.246952,76.743818 q 0.383557,0.04512 0.92505,0.04512 h 0.800958 v -0.06769 q 0,-0.242544 -0.0564,-0.496368 0.383557,0.03384 0.72763,0.09589 0.219982,0.01128 0.219982,0.118451 0,0.03384 -0.118452,0.09589 -0.152294,0.07897 -0.152294,0.174857 v 0.07897 h 0.72199 q 0.112811,-0.09025 0.191779,-0.174858 0.112811,-0.141013 0.180497,-0.141013 0.08461,0 0.31023,0.197419 0.265106,0.20306 0.265106,0.265106 0,0.07333 -0.10153,0.152295 -0.124092,0.10153 -0.124092,0.174857 v 0.124092 h 0.169217 q 0.01692,-0.01128 0.135373,-0.191779 0.163576,-0.20306 0.191779,-0.20306 0.10153,0 0.282027,0.20306 0.191779,0.214341 0.191779,0.248184 0,0.09025 -0.07897,0.09025 h -0.891207 q 0.0056,0.298949 0.02256,0.383558 v 0.146654 q 0,0.10153 -0.29895,0.152295 -0.135373,0.01692 -0.197419,0.01692 -0.118451,0 -0.141014,-0.10153 h -0.82916 v 0.428682 h 1.071704 q 0.01692,-0.01128 0.129733,-0.169216 0.157935,-0.180498 0.186138,-0.180498 0.07333,0 0.253825,0.186138 0.174857,0.186138 0.174857,0.231263 0,0.07897 -0.07897,0.07897 h -1.737289 v 0.473806 h 1.44398 q 0.02256,-0.0056 0.186138,-0.197419 0.19742,-0.219982 0.231263,-0.219982 0.09025,0 0.298949,0.214341 0.208701,0.219981 0.208701,0.282027 0,0.09025 -0.07897,0.09025 h -4.433472 q -0.490728,0 -0.699429,0.01128 l -0.09025,-0.225622 q 0.276387,0.04512 0.789678,0.04512 H 93.97296 V 78.70673 h -1.105548 q -0.496368,0 -0.710709,0.02256 l -0.07897,-0.225622 q 0.270747,0.0564 0.789677,0.0564 h 1.105548 V 78.131386 H 92.96894 q -0.394838,0 -0.643023,0.02256 L 92.22439,77.917053 q 0.31587,0.04512 0.744552,0.04512 h 1.004018 v -0.428682 h -1.477824 q -0.490728,0 -0.688147,0.03384 l -0.10153,-0.225622 q 0.276387,0.04512 0.789677,0.04512 h 1.477824 v -0.439963 h -0.800958 q -0.580977,0 -0.82352,0.02256 z m 2.346469,0.20306 v 0.439963 h 0.82352 v -0.439963 z m 0,0.586617 v 0.428682 h 0.82352 v -0.428682 z m -2.188534,1.917787 q 0.41176,0.118452 0.812239,0.30459 h 2.098285 q 0.135373,-0.141014 0.231262,-0.231263 0.09589,-0.09589 0.163576,-0.09589 0.05641,0 0.310231,0.163576 0.287668,0.197419 0.287668,0.265106 0,0.07897 -0.107171,0.163576 -0.09589,0.06205 -0.09589,0.152295 v 0.406119 q 0,0.265106 0.03384,0.721991 0,0.118451 -0.298949,0.174857 -0.118451,0.01692 -0.174857,0.01692 -0.157935,0 -0.157935,-0.191778 V 81.143445 H 93.09303 v 0.157936 q 0,0.118451 -0.287668,0.174857 -0.135373,0.01692 -0.186138,0.01692 -0.191779,0 -0.191779,-0.191778 0.02256,-0.293309 0.02256,-0.597899 v -0.406119 q 0,-0.439963 -0.04512,-0.846083 z m 0.688147,1.545511 h 2.414156 v -0.473806 h -2.414156 z m 0,-0.643023 h 2.414156 v -0.451244 h -2.414156 z" />
          <path id="path1173" style="font-style:normal;font-variant:normal;font-weight:normal;font-stretch:normal;font-family:DFPNMingXBold-B5;-inkscape-font-specification:DFPNMingXBold-B5;letter-spacing:3.55335426px;fill:#c83e29;fill-opacity:1;stroke-width:0.14439808" d="m 101.5311,77.409403 q 0.27639,0.03384 0.80096,0.03384 h 0.93633 v -0.304589 q 0,-0.355355 -0.0677,-0.891207 0.30459,0.05076 0.60918,0.118451 0.38355,0.07333 0.38355,0.152295 0,0.07897 -0.14665,0.141014 -0.13537,0.04512 -0.14665,0.10717 0,0.383558 -0.006,0.676866 h 0.72764 q 0.0282,-0.01128 0.21998,-0.253824 0.24254,-0.276387 0.27638,-0.276387 0.12974,0 0.38356,0.270746 0.25947,0.265106 0.25947,0.327152 0,0.10153 -0.1241,0.10153 h -1.74293 q -0.0169,0.868645 -0.0677,1.263483 h 1.31425 q 0.0282,-0.01128 0.21998,-0.253825 0.2369,-0.287668 0.27638,-0.287668 0.12974,0 0.38356,0.270747 0.25947,0.270746 0.25947,0.327152 0,0.101529 -0.12409,0.101529 h -2.14341 q 0.13537,0.344074 0.36099,0.643023 0.26511,0.360995 0.71071,0.620461 0.54713,0.304589 1.20708,0.496368 l -0.0113,0.135373 q -0.31023,0.112811 -0.41176,0.30459 -0.0959,0.236903 -0.17486,0.236903 -0.10717,0 -0.37228,-0.186138 -0.30459,-0.180498 -0.6543,-0.50765 -0.26511,-0.248184 -0.48509,-0.671225 -0.21434,-0.366636 -0.34407,-1.071705 h -0.0395 q -0.006,0.01128 -0.006,0.01692 -0.10717,0.592258 -0.41176,1.02658 -0.29894,0.400479 -0.80659,0.738912 -0.47381,0.332793 -1.41578,0.654304 l -0.0564,-0.10153 q 0.8066,-0.406119 1.31989,-0.902488 0.43996,-0.400479 0.67687,-1.111188 0.0451,-0.135373 0.0677,-0.321512 h -1.34245 q -0.49072,0 -0.68814,0.02256 l -0.10153,-0.225622 q 0.27638,0.04512 0.78967,0.04512 h 1.36502 q 0.062,-0.485087 0.0733,-1.263483 h -0.93069 q -0.50765,0 -0.69943,0.02256 z" />
          <path id="path1175" style="font-style:normal;font-variant:normal;font-weight:normal;font-stretch:normal;font-family:DFPNMingXBold-B5;-inkscape-font-specification:DFPNMingXBold-B5;letter-spacing:3.55335426px;fill:#c83e29;fill-opacity:1;stroke-width:0.14439808" d="m 112.63152,76.191044 q 0.30459,0.08461 0.53585,0.146655 0.28767,0.09589 0.28767,0.157935 0,0.08461 -0.17486,0.118451 -0.12409,0.02256 -0.1523,0.07333 -0.062,0.06769 -0.10717,0.124092 h 0.64867 q 0.062,-0.08461 0.15229,-0.180498 0.11845,-0.169216 0.17486,-0.169216 0.0846,0 0.31587,0.259465 0.25947,0.270746 0.25947,0.394838 0,0.06205 -0.18614,0.07333 -0.2087,0.0056 -0.26511,0.0282 l -0.57533,0.372277 h 0.77839 q 0.11281,-0.141014 0.23126,-0.231263 0.0846,-0.09589 0.14102,-0.09589 0.0677,0 0.32715,0.163576 0.29331,0.197419 0.29331,0.265106 0,0.08461 -0.12973,0.174857 -0.0733,0.06769 -0.0733,0.174857 v 0.06769 q 0,0.270747 0.0226,0.744553 0,0.10153 -0.29895,0.163576 -0.14665,0.01692 -0.19742,0.01692 -0.16921,0 -0.16921,-0.180497 h -0.34972 v 0.902488 q 0,0.191779 0.0564,0.259465 0.0733,0.03384 0.4174,0.03384 0.24818,-0.01692 0.33279,-0.04512 0.14665,-0.0056 0.18614,-0.225622 l 0.1805,-0.552774 0.10153,0.03384 q 0.0169,0.569696 0.0282,0.569696 0.0169,0.09589 0.062,0.157935 0.10153,0.07897 0.10153,0.141014 0,0.180498 -0.11845,0.253825 -0.12973,0.10153 -0.37791,0.118451 -0.1805,0.04512 -0.49637,0.04512 -0.49073,0 -0.70507,-0.0282 -0.19178,-0.03948 -0.23126,-0.118451 -0.13538,-0.112811 -0.13538,-0.451244 V 79.32719 q -0.0677,0.118452 -0.13537,0.231263 -0.21434,0.276387 -0.55841,0.490727 -0.42305,0.270747 -0.97582,0.473807 l -0.0677,-0.124092 q 0.30459,-0.141014 0.60918,-0.411761 0.29895,-0.259465 0.50201,-0.609179 0.1523,-0.259465 0.24819,-0.524571 h -0.42305 v 0.0564 q 0,0.118452 -0.27638,0.169217 -0.12973,0.02256 -0.18614,0.02256 -0.1805,0 -0.1805,-0.169216 0.0226,-0.152295 0.0226,-0.349715 v -0.767114 q 0,-0.09589 -0.0113,-0.186139 -0.15793,0.09589 -0.36099,0.208701 l -0.0677,-0.10153 q 0.25383,-0.242544 0.54149,-0.676866 0.24255,-0.349714 0.42869,-0.868645 z m 0.0902,2.493123 h 0.46817 q 0.10153,-0.406119 0.10717,-0.947612 h -0.57534 z m 1.20708,-0.947612 q -0.0395,0.597898 -0.14665,0.947612 h 0.68815 v -0.947612 z m -1.16759,-0.146654 h 0.6543 l 0.37792,-0.620461 h -0.89121 q -0.16357,0.186138 -0.32715,0.30459 -0.0902,0.09589 -0.18614,0.157935 0.1805,0.06205 0.37228,0.157936 z m 1.50603,1.489105 q 0.35535,0.07897 0.53585,0.186138 0.21998,0.10717 0.21998,0.219981 0,0.157936 -0.12973,0.270747 -0.0564,0.06769 -0.17486,0.06769 -0.0677,0 -0.12409,-0.04512 -0.0508,-0.03384 -0.10153,-0.180498 -0.0508,-0.219981 -0.27075,-0.496368 z m -3.67764,-2.617215 q 0.65994,0.10717 0.91377,0.242543 0.22562,0.129733 0.22562,0.287668 0,0.157936 -0.14102,0.287668 -0.079,0.107171 -0.23126,0.107171 -0.15229,0 -0.27639,-0.225622 -0.14101,-0.315871 -0.52457,-0.620461 z m -0.079,0.981455 q 0.60354,0.129733 0.84044,0.259466 0.2087,0.135373 0.2087,0.304589 0,0.157936 -0.12973,0.315871 -0.10153,0.09025 -0.24254,0.09025 -0.14666,0 -0.24819,-0.231263 -0.13537,-0.327152 -0.47381,-0.648663 z m -0.19178,1.466543 q 0.27639,0.06769 0.62046,0.06769 0.10153,-0.10153 0.16922,-0.191779 0.13537,-0.146654 0.1805,-0.146654 0.0902,0 0.31023,0.20306 0.25382,0.20306 0.25382,0.259465 0,0.07333 -0.11281,0.157935 -0.12973,0.09589 -0.13537,0.169217 v 0.947612 q 0.25382,0.270747 0.64302,0.321512 0.43432,0.05076 1.68088,0.05076 0.75584,0 1.69217,-0.124092 l 0.0226,0.124092 q -0.22562,0.05076 -0.36664,0.439963 -0.0338,0.157935 -0.10717,0.157935 h -1.4327 q -0.48508,0 -1.24656,-0.06205 -0.73327,-0.152295 -1.05478,-0.705069 -0.0395,0 -0.062,0.05076 -0.18613,0.338433 -0.46816,0.637382 0,0.225622 -0.0903,0.225622 -0.0395,0 -0.10153,-0.135373 -0.1523,-0.282027 -0.32715,-0.688147 0.40612,-0.08461 0.62046,-0.146654 V 79.1354 q -0.40048,0 -0.5979,0.04512 z" />
        </g>
        <path id="path1184-0-9" d="m 93.805713,91.50473 c -1.46345,0.31427 -2.65114,-0.28966 -3.40067,-0.74771 -0.47247,0.85045 -1.11031,1.46466 -1.93713,1.53553 v 14.90643 c 10.756572,-1.74814 8.28398,0.61421 10.583342,0.70871 2.299355,-0.0945 -0.17323,-2.45685 10.583335,-0.70871 V 92.29255 c -0.82682,-0.0709 -1.46466,-0.68508 -1.93713,-1.53553 -0.74953,0.45805 -1.93722,1.06198 -3.40067,0.74772 -2.07159,-0.44486 -3.8443,-1.42056 -5.245535,0.74056 -1.401242,-2.16112 -3.173952,-1.18543 -5.245542,-0.74057 z" style="opacity:1;fill:#f8cdb1;fill-opacity:1;stroke:none;stroke-width:0.26458332px;stroke-linecap:butt;stroke-linejoin:miter;stroke-opacity:1" />
        <g id="text924" style="font-style:normal;font-variant:normal;font-weight:normal;font-stretch:normal;font-size:5.46241999px;line-height:1.25;font-family:Helvetica;-inkscape-font-specification:Helvetica;letter-spacing:0px;word-spacing:0px;fill:#000000;fill-opacity:1;stroke:none;stroke-width:0.1365605" transform="scale(1.0573606,0.94575116)" aria-label="講 修">
          <path id="path1110" transform="scale(0.25022999,0.27975999)" d="m 352.76562,349.89844 c -0.0853,0 -0.3538,0.24156 -0.80859,0.72461 -0.35531,0.40677 -0.55503,0.62301 -0.59765,0.64843 h -0.46876 c -1.29329,0 -2.27344,-0.0643 -2.9414,-0.1914 l 0.29687,0.76367 c 0.52585,-0.0509 1.40809,-0.0762 2.64453,-0.0762 h 3.36719 c 0.19897,0 0.29883,-0.0896 0.29883,-0.26758 0,-0.11441 -0.2414,-0.40661 -0.72461,-0.87695 -0.45478,-0.48305 -0.81059,-0.72461 -1.06641,-0.72461 z m 37.78516,0 c -0.21318,1.1822 -0.51276,2.21759 -0.89648,3.10742 -0.31266,0.80085 -0.79547,1.68429 -1.44922,2.65039 l 0.25586,0.22852 c 0.9522,-0.67373 1.72731,-1.3273 2.32422,-1.96289 0.17054,-0.13982 0.31935,-0.30541 0.44726,-0.4961 0.31266,0.69915 0.65393,1.27675 1.02344,1.73438 0.14211,0.25423 0.32001,0.48411 0.5332,0.6875 -0.18474,0.16526 -0.36992,0.32402 -0.55468,0.47656 -1.26487,1.00423 -2.64978,1.83703 -4.15626,2.49805 l 0.2129,0.26757 c 1.39277,-0.34322 2.67055,-0.77569 3.83593,-1.29687 0.59691,-0.29236 1.16698,-0.5914 1.70703,-0.89649 l 0.27735,0.24805 c 0.75323,0.55933 1.6408,1.03564 2.66406,1.42969 1.06591,0.39407 1.71935,0.5918 1.96094,0.5918 0.0853,0 0.19969,-0.20456 0.34179,-0.61133 0.21318,-0.45763 0.59613,-0.81412 1.1504,-1.06836 l 0.16992,-0.3418 c -1.42121,-0.2161 -2.75716,-0.52195 -4.00782,-0.91601 -0.36951,-0.15254 -0.72336,-0.28599 -1.06445,-0.4004 0.86693,-0.67372 1.82527,-1.65847 2.87695,-2.95507 h 1.55665 c 0.31267,0 0.46875,-0.11494 0.46875,-0.34375 0,-0.1017 -0.2705,-0.3754 -0.81055,-0.82032 -0.89535,-0.69914 -1.43438,-1.04882 -1.61914,-1.04882 -0.15633,0 -0.53396,0.31948 -1.13086,0.95507 -0.46899,0.48305 -0.71767,0.72461 -0.74609,0.72461 H 392 c 0.15633,-0.27966 0.29787,-0.56018 0.42578,-0.83984 0.0426,-0.089 0.24963,-0.15328 0.61914,-0.19141 0.32688,-0.0508 0.49024,-0.17747 0.49024,-0.38086 0,-0.17795 -0.31218,-0.34841 -0.9375,-0.51367 -0.65375,-0.19068 -1.33628,-0.36309 -2.04688,-0.51562 z m -33.34961,0.11328 c 0.11371,0.52119 0.16992,1.04327 0.16992,1.56445 v 0.80078 c -0.98062,0 -1.76301,-0.0389 -2.3457,-0.11523 l 0.29883,0.76367 c 0.45478,-0.0382 1.13731,-0.0635 2.04687,-0.0762 v 1.50586 c -0.72481,-0.0509 -1.32202,-0.10832 -1.79101,-0.17188 l 0.38476,0.76368 c 0.29846,-0.0381 0.76672,-0.0566 1.40625,-0.0566 v 1.65821 c -1.06589,-0.0127 -1.90451,-0.0634 -2.51562,-0.15235 l 0.3418,0.76172 c 0.51163,-0.0254 1.39192,-0.0371 2.64257,-0.0371 h 1.6211 v 1.37305 h -1.55664 c -0.78166,-0.3431 -1.64209,-0.59829 -2.58008,-0.76367 0.11371,1.25848 0.17187,2.35133 0.17187,3.2793 v 2.09765 h -1.4082 v -0.3418 c 0,-0.22883 0.0853,-0.41975 0.25586,-0.57226 0.25582,-0.16536 0.38477,-0.33095 0.38477,-0.49609 0,-0.19069 -0.36308,-0.50822 -1.0879,-0.95313 -0.63954,-0.33052 -1.02976,-0.49609 -1.17187,-0.49609 -0.17056,0 -0.37755,0.10808 -0.61914,0.32422 -0.2416,0.27964 -0.53196,0.59037 -0.87305,0.93359 h -0.5332 c -0.9522,-0.35593 -1.86886,-0.65982 -2.75,-0.91406 0.11355,0.90193 0.16992,1.82853 0.16992,2.78125 v 1.60156 c 0,0.66102 -0.0291,1.30972 -0.0859,1.94531 0,0.43221 0.22881,0.64844 0.6836,0.64844 0.14212,0 0.35443,-0.0185 0.63867,-0.0566 0.68217,-0.13984 1.02344,-0.33756 1.02344,-0.5918 v -0.87695 h 1.62109 v 0.76367 c 0,0.4068 0.21231,0.60937 0.63867,0.60937 0.12791,0 0.36204,-0.0185 0.70313,-0.0566 0.72481,-0.13988 1.08789,-0.32396 1.08789,-0.55273 -0.0569,-1.02964 -0.0859,-1.84394 -0.0859,-2.44141 v -0.68554 h 1.4082 c 0,1.02967 -0.0582,2.21018 -0.17187,3.54492 0,0.35592 0.27049,0.53516 0.81055,0.53516 0.0995,-10e-6 0.30452,-0.006 0.61718,-0.0176 0.66797,-0.10169 1.00196,-0.27409 1.00196,-0.51563 v -3.54687 h 5.07421 v 1.02929 c 0,0.40678 -0.12699,0.61133 -0.38281,0.61133 -0.54005,0 -1.22258,-0.0644 -2.04687,-0.1914 l -0.0859,0.34375 c 0.99483,0.40677 1.57023,0.8899 1.72656,1.44921 0.12792,0.48306 0.26414,0.72461 0.40625,0.72461 0.39794,0 0.8662,-0.14025 1.40625,-0.41992 0.76745,-0.31779 1.15039,-0.78729 1.15039,-1.41015 v -2.13672 h 1.96289 c 0.0853,0 0.12696,-0.10118 0.12696,-0.30469 0,-0.19066 -0.17064,-0.55886 -0.51172,-1.10547 -0.28425,-0.61017 -0.49656,-0.91602 -0.63867,-0.91602 -0.14212,10e-6 -0.3273,0.27371 -0.55469,0.82032 -0.0995,0.34322 -0.19935,0.65395 -0.29883,0.93359 h -0.0859 v -2.7832 c 0,-0.22886 0.17791,-0.45873 0.53321,-0.6875 0.32687,-0.17799 0.49023,-0.34163 0.49023,-0.49414 0,-0.15254 -0.31217,-0.44475 -0.9375,-0.87696 -0.65375,-0.40677 -1.09487,-0.61132 -1.32227,-0.61132 -0.14211,0 -0.38352,0.14027 -0.7246,0.41992 -0.1279,0.089 -0.28399,0.22928 -0.46875,0.41992 h -0.98047 v -1.37305 h 5.11718 c 0.2274,0 0.33985,-0.1013 0.33985,-0.30468 0,-0.12712 -0.25595,-0.43297 -0.76758,-0.91602 -0.48321,-0.45763 -0.82447,-0.68555 -1.02344,-0.68555 -0.0853,0 -0.36835,0.23474 -0.85156,0.70508 -0.36951,0.40686 -0.58377,0.61628 -0.64063,0.62891 h -0.16992 v -1.67774 h 2.5586 c 0.17053,0 0.25586,-0.0896 0.25586,-0.26758 0,-0.089 -0.18518,-0.3169 -0.55469,-0.68554 -0.39794,-0.38136 -0.68298,-0.57227 -0.85352,-0.57227 -0.0711,0 -0.29064,0.18409 -0.66015,0.55274 -0.27002,0.29237 -0.43338,0.45113 -0.49024,0.47656 h -0.25586 v -1.52539 h 2.90039 c 0.25582,0 0.38282,-0.11494 0.38282,-0.34375 0,-0.1017 -0.24868,-0.38027 -0.7461,-0.83789 -0.49742,-0.45763 -0.84596,-0.6875 -1.04492,-0.6875 -0.0711,0 -0.31973,0.22987 -0.74609,0.6875 -0.3411,0.40678 -0.53355,0.60937 -0.57618,0.60937 H 363.5957 V 351.5 c 0,-0.17797 0.17791,-0.34356 0.53321,-0.49609 0.27002,-0.12711 0.40429,-0.21673 0.40429,-0.26758 0,-0.2289 -0.25594,-0.3487 -0.76758,-0.36133 -0.82429,-0.16525 -1.6629,-0.28505 -2.51562,-0.36133 0.11371,0.54661 0.17187,1.08038 0.17188,1.60156 v 0.76172 h -1.87696 v -0.95312 c 0,-0.2034 0.15077,-0.36899 0.44922,-0.4961 0.32688,-0.1144 0.49024,-0.20402 0.49024,-0.26757 0,-0.2289 -0.25595,-0.3487 -0.76758,-0.36133 -0.79587,-0.11441 -1.63448,-0.21083 -2.51563,-0.28711 z m 26.01563,0 c -0.27003,1.97034 -0.62584,3.65443 -1.06641,5.05273 -0.45478,1.34746 -1.07913,2.80364 -1.875,4.36719 l 0.29883,0.26563 c 0.56848,-0.58474 1.09296,-1.18768 1.57617,-1.81055 v 5.16797 c 0,1.42372 -0.0562,2.82049 -0.16992,4.19336 0,0.40677 0.25594,0.61133 0.76758,0.61133 0.1279,0 0.34022,-0.006 0.63867,-0.0176 0.68217,-0.12711 1.02344,-0.32483 1.02344,-0.5918 v -10.86914 c 0,-0.25424 0.10712,-0.42469 0.32031,-0.51367 0.24162,-0.12711 0.36328,-0.28588 0.36328,-0.47657 0,-0.12711 -0.23608,-0.24887 -0.70508,-0.36328 -0.12792,-0.0381 -0.26219,-0.0771 -0.40429,-0.11523 0.46899,-0.92797 0.86648,-1.97504 1.19335,-3.14453 0.0568,-0.089 0.27839,-0.15328 0.66211,-0.19141 0.38373,-0.0508 0.57422,-0.17747 0.57422,-0.38086 0,-0.2288 -0.34853,-0.42653 -1.04492,-0.59179 -0.68217,-0.20339 -1.39911,-0.40111 -2.15234,-0.5918 z m -29.89649,2.32812 c -0.0853,0 -0.37562,0.25325 -0.87304,0.76172 -0.41215,0.4322 -0.64823,0.66208 -0.70508,0.6875 h -1.78907 c -1.29329,0 -2.27539,-0.0526 -2.94335,-0.15429 l 0.29882,0.72461 c 0.52585,-0.0509 1.40809,-0.0762 2.64453,-0.0762 h 4.98829 c 0.19896,0 0.29882,-0.0877 0.29882,-0.26562 0,-0.11441 -0.26321,-0.42707 -0.78906,-0.93555 -0.52584,-0.49576 -0.90347,-0.74219 -1.13086,-0.74219 z m 32.24219,0.41797 c 0.11371,0.94068 0.16992,2.04718 0.16992,3.31836 v 5.79688 c 0,0.94068 -0.0562,2.00822 -0.16992,3.20312 0,0.38135 0.2414,0.57227 0.72461,0.57227 0.15633,0 0.36864,-0.0185 0.63867,-0.0566 0.65375,-0.11446 0.98047,-0.28686 0.98047,-0.51563 v -10.71679 c 0,-0.2161 0.16336,-0.34954 0.49023,-0.4004 0.41215,-0.12713 0.61914,-0.29758 0.61914,-0.51367 0,-0.16526 -0.34126,-0.28019 -1.02343,-0.34375 -0.96642,-0.15253 -1.77594,-0.26747 -2.42969,-0.34375 z m 6.07422,0.11524 h 3.73242 c -0.45478,0.72457 -1.01031,1.41711 -1.66406,2.07812 -0.63954,-0.40678 -1.3492,-1.07399 -2.13086,-2.00195 0.0142,-0.0127 0.0341,-0.038 0.0625,-0.0762 z m -32.0918,0.0762 h 1.87696 v 1.52539 h -1.87696 z m -6.94922,1.94531 c -0.0568,0 -0.34188,0.26006 -0.85351,0.78125 -0.41216,0.44491 -0.63902,0.67965 -0.68164,0.70508 h -0.16993 c -1.29329,0 -2.27344,-0.0506 -2.9414,-0.15234 l 0.29687,0.76367 c 0.52585,-0.0509 1.40809,-0.0762 2.64453,-0.0762 h 3.36719 c 0.19897,0 0.29883,-0.11494 0.29883,-0.34375 0,-0.089 -0.26322,-0.39484 -0.78906,-0.91602 -0.51163,-0.50847 -0.90185,-0.76172 -1.17188,-0.76172 z m 6.94922,0.0762 h 1.87696 v 1.67774 h -1.87696 z m -6.94922,2.51563 c -0.0568,0 -0.34188,0.26202 -0.85351,0.7832 -0.41216,0.43302 -0.63902,0.6541 -0.68164,0.66602 h -0.084 c -1.29329,0 -2.28994,-0.037 -2.98633,-0.11328 l 0.3418,0.76171 c 0.52585,-0.0507 1.40809,-0.0762 2.64453,-0.0762 h 3.28125 c 0.19897,0 0.29883,-0.11303 0.29883,-0.34179 0,-0.11441 -0.26322,-0.42026 -0.78906,-0.91602 -0.51163,-0.50848 -0.90185,-0.76367 -1.17188,-0.76367 z m 40.6836,0.49609 c -0.34109,0.66102 -0.99453,1.38085 -1.96094,2.15625 -0.8243,0.64832 -1.77731,1.25124 -2.85742,1.81055 l 0.1289,0.26758 c 1.83335,-0.41948 3.17658,-0.81982 4.0293,-1.20118 0.76745,-0.33052 1.48438,-0.71915 2.15234,-1.16406 0.0426,-0.10175 0.22782,-0.15234 0.55469,-0.15234 0.31267,-0.0126 0.46875,-0.1022 0.46875,-0.26758 0,-0.17796 -0.30685,-0.39907 -0.91797,-0.66602 -0.46899,-0.24154 -1.00075,-0.50355 -1.59765,-0.7832 z m -35.52539,1.10742 h 1.70703 v 1.75391 h -1.70703 z m 3.83789,0 h 1.23632 v 1.75391 h -1.23632 z m 34.03125,0.83789 c -0.55427,0.82626 -1.56883,1.69122 -3.04688,2.59375 -1.23644,0.78816 -2.66499,1.49918 -4.28515,2.13477 l 0.16992,0.30664 c 2.54394,-0.55934 4.41361,-1.09991 5.60742,-1.62109 1.08011,-0.41948 2.06754,-0.90942 2.96289,-1.46875 0.0568,-0.11439 0.27643,-0.17188 0.66016,-0.17188 0.32687,-0.0255 0.49023,-0.10816 0.49023,-0.24805 0,-0.15253 -0.32672,-0.38728 -0.98047,-0.70507 -0.44057,-0.20339 -0.96701,-0.47709 -1.57812,-0.82032 z m -37.86914,1.44922 h 1.70703 v 1.83008 h -1.70703 z m 3.83789,0 h 1.23632 v 1.83008 h -1.23632 z m -11.46875,0.76367 h 1.61914 v 3.43165 h -1.61914 z m 47.20703,0.22852 c -0.58269,0.69915 -1.30158,1.30889 -2.1543,1.83008 -0.78166,0.55931 -1.66922,1.03561 -2.66406,1.42969 -1.20802,0.50848 -2.81447,1.02373 -4.81836,1.54492 l 0.12891,0.41992 c 2.3734,-0.3305 4.16307,-0.64318 5.37109,-0.93555 1.17959,-0.29237 2.16702,-0.6099 2.96289,-0.95312 1.02326,-0.44493 1.91278,-0.90759 2.66602,-1.39063 0.0995,-0.12701 0.32634,-0.20497 0.68164,-0.23047 0.36949,-0.0381 0.55468,-0.12574 0.55468,-0.26562 0,-0.19066 -0.37763,-0.43905 -1.13086,-0.74414 -0.41214,-0.16526 -0.9439,-0.40001 -1.59765,-0.70508 z m -6.31446,10.61719 c 0.11371,0.54661 0.16993,1.08038 0.16993,1.60156 v 0.41992 h -2.13086 c -1.27908,0 -2.25923,-0.0506 -2.94141,-0.15234 l 0.29688,0.76172 c 0.52584,-0.0508 1.40809,-0.0762 2.64453,-0.0762 h 2.13086 v 1.60156 h -2.2168 c -0.63954,-0.22877 -1.27843,-0.43137 -1.91797,-0.60938 0.0853,0.53389 0.12695,0.99168 0.12695,1.37305 v 2.74414 c 0,0.36865 -0.0126,0.71345 -0.041,1.03125 0,0.27965 0.19777,0.41797 0.5957,0.41797 0.11371,0 0.29161,-0.0185 0.5332,-0.0566 0.5827,-0.0762 0.875,-0.22136 0.875,-0.4375 v -0.19141 h 6.56446 v 0.19141 c 0,0.3305 0.19972,0.49414 0.59765,0.49414 0.14212,0 0.37625,-0.0185 0.70313,-0.0566 0.69639,-0.10168 1.04492,-0.28577 1.04492,-0.55274 -0.0568,-0.91523 -0.0859,-1.63991 -0.0859,-2.17382 v -0.68555 c 0,-0.22884 0.0926,-0.41975 0.27735,-0.57227 0.32687,-0.16535 0.49023,-0.33095 0.49023,-0.49609 0,-0.17796 -0.32672,-0.45847 -0.98047,-0.83984 -0.56848,-0.30507 -0.93688,-0.45704 -1.10742,-0.45704 -0.15632,0 -0.31437,0.0711 -0.4707,0.21094 -0.24161,0.21614 -0.51014,0.43725 -0.8086,0.66602 h -1.91992 v -1.60156 h 5.92774 c 0.25581,0 0.38281,-0.0896 0.38281,-0.26758 0,-0.11441 -0.27776,-0.43682 -0.83203,-0.97071 -0.5827,-0.52118 -0.98745,-0.7832 -1.21485,-0.7832 -0.11369,0 -0.40405,0.2669 -0.87304,0.80078 -0.41215,0.43213 -0.63368,0.662 -0.66211,0.6875 h -2.72852 v -0.57226 c 0,-0.20351 0.15077,-0.36908 0.44922,-0.4961 0.32688,-0.10175 0.49024,-0.19132 0.49024,-0.26757 0,-0.24145 -0.2705,-0.3749 -0.81055,-0.4004 -0.79587,-0.13988 -1.64903,-0.23439 -2.5586,-0.28515 z m -32.61718,0.0371 v 0.002 c -0.11368,0.36865 -0.29159,0.73001 -0.53321,1.08594 -0.52584,-0.16536 -1.15941,-0.31049 -1.89843,-0.4375 l -0.16992,0.26562 c 0.55426,0.34323 1.05161,0.69971 1.49218,1.06836 -0.0142,0.0508 -0.036,0.0947 -0.0645,0.13281 -0.469,0.62287 -1.0153,1.20242 -1.64063,1.73633 l 0.0859,0.22852 c 1.0659,-0.44491 1.87542,-0.87057 2.42969,-1.27735 0.55425,0.80083 0.9372,1.20118 1.15039,1.20118 0.2274,0 0.42712,-0.12177 0.59766,-0.36328 0.22739,-0.19072 0.34179,-0.40014 0.34179,-0.62891 0,-0.30514 -0.13622,-0.57201 -0.40625,-0.80078 -0.11368,-0.16529 -0.27704,-0.32405 -0.49023,-0.47656 0.0711,-0.0636 0.12729,-0.12112 0.16992,-0.17188 0.0426,-0.10175 0.23508,-0.15234 0.57617,-0.15234 0.24159,-0.0255 0.36328,-0.11507 0.36328,-0.26758 0,-0.12725 -0.24867,-0.29283 -0.74609,-0.49609 -0.3553,-0.19067 -0.7746,-0.4069 -1.25781,-0.64844 z m 24.43164,0 c -0.18476,0.94068 -0.55511,1.92738 -1.10938,2.95703 -0.46899,0.85171 -1.00802,1.65917 -1.61914,2.42187 l 0.16992,0.3418 c 1.29329,-0.59746 2.23904,-1.19357 2.83594,-1.79102 0.49742,-0.49575 0.97295,-1.05679 1.42774,-1.67968 0.0711,-0.11439 0.327,-0.16992 0.76757,-0.16992 0.36952,-0.051 0.55469,-0.15908 0.55469,-0.32422 0,-0.17799 -0.37762,-0.44486 -1.13086,-0.80078 -0.54005,-0.25425 -1.17167,-0.57373 -1.89648,-0.95508 z m -29.03711,0.0762 v 0.002 c -0.19897,0.3178 -0.51841,0.63533 -0.95899,0.95313 -0.24161,0.17798 -0.48301,0.34163 -0.7246,0.49414 l -2.06836,-0.68555 c 0.19896,0.99154 0.29882,1.94414 0.29882,2.85938 l 0.16993,4.46289 h -0.46875 v -0.83985 l -0.46875,-0.0371 c -0.1279,0.49581 -0.29853,0.85717 -0.51172,1.08594 -0.25582,0.27969 -0.56799,0.51444 -0.9375,0.70508 -0.36951,0.22886 -0.55469,0.41975 -0.55469,0.57227 0,0.33037 0.11441,0.59727 0.3418,0.80078 0.31266,0.2035 0.68106,0.30664 1.10742,0.30664 0.14213,0 0.28562,-0.0506 0.42773,-0.15235 0.19896,-0.16523 0.35504,-0.47108 0.46875,-0.91601 0.0426,-0.20339 0.077,-0.52092 0.10547,-0.95313 h 14.60352 c -0.28424,0.59747 -0.59642,1.18187 -0.9375,1.75391 l 0.29687,0.11523 c 1.08011,-0.40677 1.9769,-0.80224 2.6875,-1.18359 0.0426,-0.0763 0.26949,-0.11328 0.68164,-0.11328 0.31267,-0.0384 0.46875,-0.1415 0.46875,-0.30664 0,-0.17799 -0.3049,-0.48869 -0.91601,-0.9336 -0.68218,-0.52118 -1.10148,-0.78125 -1.25782,-0.78125 -0.0995,0 -0.2701,0.076 -0.51171,0.22852 l 0.25585,-4.5 c 0.0284,-0.22877 0.22619,-0.43332 0.59571,-0.61133 0.45478,-0.16524 0.68359,-0.35417 0.68359,-0.57031 0,-0.11441 -0.31945,-0.39494 -0.95898,-0.83985 -0.55427,-0.40677 -0.94644,-0.60937 -1.17383,-0.60937 -0.18476,0 -0.42616,0.14513 -0.72461,0.4375 -0.25582,0.20339 -0.49722,0.42645 -0.72461,0.66797 -0.68217,0 -1.54988,-0.0506 -2.60156,-0.15234 l 0.38476,0.76171 c 0.68218,-0.0762 1.4917,-0.11328 2.42969,-0.11328 l -0.10547,1.60157 c -1.08011,0 -2.01131,-0.0506 -2.79297,-0.15235 l 0.33985,0.76172 c 0.61111,-0.0508 1.42259,-0.0762 2.43164,-0.0762 l -0.0859,1.83008 c -1.05169,0 -1.94652,-0.0506 -2.68555,-0.15235 l 0.33985,0.76367 c 0.58269,-0.0255 1.35053,-0.0391 2.30273,-0.0391 l -0.10547,1.64063 H 352.4707 l -0.041,-1.60157 h 2.77148 c 0.19897,0 0.29688,-0.0896 0.29688,-0.26757 0,-0.0763 -0.18322,-0.26717 -0.55274,-0.57227 -0.56847,-0.45763 -0.89714,-0.68555 -0.98242,-0.68555 -0.11369,0 -0.37496,0.2026 -0.78711,0.60938 -0.25591,0.25424 -0.39213,0.38086 -0.40625,0.38086 h -0.36133 l -0.043,-1.94531 h 2.75 c 0.19897,0 0.29883,-0.10118 0.29883,-0.30469 0,-0.10168 -0.1779,-0.27896 -0.5332,-0.53321 -0.58268,-0.48305 -0.91667,-0.7246 -1.00195,-0.7246 -0.1137,0 -0.37692,0.20259 -0.78907,0.60937 -0.2559,0.25424 -0.39017,0.38086 -0.40429,0.38086 h -0.3418 l -0.043,-1.50586 c 0.63954,-0.0381 1.14416,-0.0821 1.51367,-0.13281 0.38373,-0.0634 0.76135,-0.12778 1.13086,-0.19141 0.0568,-0.0508 0.26189,-0.0762 0.61719,-0.0762 0.27003,-0.0253 0.4043,-0.0877 0.4043,-0.18945 0,-0.16526 -0.26854,-0.36981 -0.8086,-0.61133 -0.38372,-0.19069 -0.83939,-0.43224 -1.36523,-0.72461 z m 4.51953,3.85351 c -0.19897,0.39406 -0.46946,0.80121 -0.81055,1.22071 -0.52584,-0.15249 -1.13564,-0.27911 -1.83203,-0.38086 l -0.17187,0.26562 c 0.45478,0.27967 0.8959,0.56018 1.32226,0.83985 l -0.0215,0.0176 c -0.61112,0.59746 -1.30091,1.14974 -2.06836,1.6582 l 0.0859,0.26758 c 1.26486,-0.39406 2.22515,-0.7944 2.8789,-1.20118 0.0853,0.0763 0.17058,0.16583 0.25586,0.26758 0.63954,0.77543 1.07144,1.16211 1.29883,1.16211 0.2274,0 0.42712,-0.11979 0.59766,-0.36133 0.22739,-0.19071 0.34179,-0.40013 0.34179,-0.6289 0,-0.29235 -0.14349,-0.54754 -0.42773,-0.76367 -0.17054,-0.20334 -0.41195,-0.39426 -0.72461,-0.57227 0.12791,-0.0763 0.25686,-0.16582 0.38477,-0.26758 0.0142,-0.12701 0.19211,-0.18945 0.5332,-0.18945 0.27002,-0.0126 0.4043,-0.0886 0.4043,-0.22852 -1e-5,-0.10173 -0.26323,-0.26732 -0.78907,-0.49609 -0.3553,-0.19064 -0.7746,-0.39324 -1.25781,-0.60938 z m 25.66797,0.15235 c -0.32688,1.15678 -0.90227,2.40159 -1.72656,3.73633 -0.72481,1.13135 -1.54161,2.16185 -2.45118,3.08984 l 0.12696,0.41797 c 0.96641,-0.49576 1.77789,-0.99057 2.43164,-1.48633 v 3.35547 c 0,1.39832 -0.0582,2.7717 -0.17188,4.11914 0,0.38135 0.24141,0.57227 0.72461,0.57227 0.15634,0 0.3706,-0.0205 0.64063,-0.0586 0.65375,-0.10168 0.98047,-0.27213 0.98047,-0.51367 v -8.42773 c 0,-0.24154 0.0926,-0.40031 0.27734,-0.47657 0.29845,-0.11436 0.44727,-0.26144 0.44727,-0.43945 0,-0.0889 -0.21232,-0.20387 -0.63868,-0.34375 0.36951,-0.39408 0.71078,-0.83823 1.02344,-1.33398 0.0568,-0.13989 0.30552,-0.20899 0.74609,-0.20899 0.38373,-0.0255 0.57422,-0.12197 0.57422,-0.28711 0,-0.17796 -0.36112,-0.44483 -1.08593,-0.80078 -0.55427,-0.25422 -1.18784,-0.55811 -1.89844,-0.91406 z m 5.16015,0.60937 h 0.9375 v 3.20313 h -0.9375 z m 2.8125,0 h 0.93946 v 3.20313 h -0.93946 z m 2.81446,0 h 0.9375 v 3.20313 h -0.9375 z m 3.2832,4.11914 c -0.0711,0 -0.32701,0.22792 -0.76758,0.68555 -0.29846,0.36944 -0.46909,0.56035 -0.51172,0.57227 h -7.8457 c -1.3075,0 -2.3022,-0.0506 -2.98437,-0.15235 l 0.29882,0.76367 c 0.54006,-0.0507 1.4349,-0.0762 2.68555,-0.0762 H 399.5 c 0.22739,0 0.3418,-0.0896 0.3418,-0.26757 0,-0.12711 -0.25596,-0.40764 -0.76758,-0.83985 -0.48321,-0.45763 -0.82448,-0.68555 -1.02344,-0.68555 z m -37.00976,0.4961 c -0.2274,0 -0.5323,0.15876 -0.91602,0.47656 -0.17053,0.11453 -0.36298,0.27329 -0.57617,0.47656 h -5.20117 c -1.08011,0 -2.07481,-0.0896 -2.98438,-0.26758 l 0.38281,0.91602 c 0.8243,-0.10175 1.692,-0.15234 2.60157,-0.15234 h 5.28711 c -0.38373,0.48305 -0.78122,0.9204 -1.19336,1.31445 h -0.0215 c -0.36951,-0.0889 -1.13008,-0.22238 -2.28125,-0.40039 0.12799,0.75 0.19877,1.30908 0.21289,1.67773 h -5.58594 c -1.29329,0 -2.28798,-0.0506 -2.98437,-0.15234 l 0.38477,0.76367 c 0.49742,-0.0508 1.36316,-0.0762 2.5996,-0.0762 h 5.58594 v 1.48633 c 0,0.17801 -0.18517,0.26758 -0.55468,0.26758 -0.54006,0 -1.39322,-0.0896 -2.5586,-0.26758 l -0.084,0.34375 c 1.43542,0.58474 2.22312,1.16914 2.36523,1.7539 0.0569,0.35593 0.17852,0.53321 0.36328,0.53321 0.63954,0 1.27116,-0.18409 1.89649,-0.55274 0.55426,-0.29237 0.83203,-0.84465 0.83203,-1.6582 v -1.90625 h 8.18555 c 0.31266,0 0.46874,-0.0896 0.46874,-0.26758 1e-5,-0.15253 -0.3049,-0.51585 -0.91601,-1.08789 -0.5969,-0.57204 -1.0453,-0.85742 -1.34375,-0.85742 -0.0711,0 -0.36869,0.29902 -0.89453,0.89648 -0.42635,0.49569 -0.66776,0.75576 -0.72461,0.78125 h -4.73242 c 0.0711,-0.12701 0.25623,-0.22153 0.55468,-0.28515 0.34109,-0.11429 0.50977,-0.27306 0.50977,-0.47656 0,-0.0636 -0.049,-0.13469 -0.14844,-0.21094 0.58269,-0.19067 1.25795,-0.45073 2.02539,-0.78125 0.17055,-0.0889 0.48272,-0.14638 0.9375,-0.17188 0.56848,-0.0126 0.85352,-0.0955 0.85352,-0.24804 0,-0.21612 -0.34126,-0.57748 -1.02344,-1.08594 -0.65375,-0.52119 -1.09487,-0.78125 -1.32226,-0.78125 z m 30.99804,1.52539 -0.16992,0.3418 c 0.62532,0.69914 1.0645,1.43746 1.32031,2.21289 0.19897,0.53388 0.41324,0.80078 0.64063,0.80078 0.34109,0 0.59704,-0.0965 0.76758,-0.28711 0.31266,-0.25424 0.46875,-0.53963 0.46875,-0.85742 0,-0.45763 -0.207,-0.84432 -0.61914,-1.16211 -0.45479,-0.36865 -1.25704,-0.71833 -2.40821,-1.04883 z m -3.19726,0.91406 c 0.14211,0.59747 0.21289,1.47408 0.21289,2.63086 v 1.52539 c 0,0.67377 0.23413,1.10624 0.70312,1.29688 0.17055,0.13988 0.5409,0.25486 1.10938,0.34375 0.5969,0.0762 1.44279,0.11523 2.53711,0.11523 0.81008,0 1.54883,-0.0644 2.21679,-0.19141 0.65376,-0.10173 1.12929,-0.22834 1.42774,-0.38085 0.29845,-0.15254 0.44726,-0.38241 0.44726,-0.6875 0,-0.13984 -0.20504,-0.33075 -0.61718,-0.57227 -0.24162,-0.17796 -0.38511,-0.42439 -0.42774,-0.74219 -0.0284,-0.29237 -0.0774,-0.80762 -0.14844,-1.54492 h -0.38476 c -0.25583,0.69915 -0.4536,1.25143 -0.5957,1.6582 -0.0995,0.31789 -0.27011,0.52245 -0.51172,0.61133 -0.2416,0.11439 -0.70986,0.16992 -1.40625,0.16992 -0.72481,0 -1.27307,-0.0624 -1.64258,-0.18945 -0.38373,-0.10168 -0.57617,-0.35687 -0.57617,-0.76367 v -1.67774 c 0,-0.21611 0.14349,-0.36124 0.42773,-0.4375 0.36951,-0.12713 0.55274,-0.31121 0.55274,-0.55273 0,-0.12725 -0.33932,-0.23533 -1.02149,-0.32422 -0.89535,-0.12701 -1.66319,-0.22348 -2.30273,-0.28711 z m 7.63086,0.11524 -0.25586,0.22851 c 0.78166,1.0678 1.27174,1.97656 1.4707,2.72656 0.15631,0.67368 0.278,1.08083 0.36328,1.22071 0.14213,0.11438 0.31276,0.17187 0.51172,0.17187 0.31266,0 0.58316,-0.15876 0.81055,-0.47656 0.31265,-0.27967 0.46875,-0.64299 0.46875,-1.08789 0,-0.35595 -0.25596,-0.74944 -0.76758,-1.18164 -0.48321,-0.47033 -1.35091,-1.0041 -2.60156,-1.60156 z m -9.12305,0.49609 c -0.15629,0.6727 -0.37087,1.17567 -0.64063,1.50586 -0.28423,0.38135 -0.66718,0.70571 -1.15039,0.97266 -0.42636,0.30504 -0.64062,0.54659 -0.64062,0.7246 0,0.41953 0.12895,0.72343 0.38476,0.91407 0.3553,0.27967 0.75279,0.41992 1.19336,0.41992 0.2274,0 0.42712,-0.0644 0.59766,-0.19141 0.28425,-0.26694 0.49656,-0.67897 0.63867,-1.23828 0.11371,-0.54661 0.16992,-1.55668 0.16992,-3.03125 z" style="font-style:normal;font-variant:normal;font-weight:normal;font-stretch:normal;font-family:DFPNMingXBold-B5;-inkscape-font-specification:DFPNMingXBold-B5;fill:#9f8a5a;fill-opacity:1;stroke-width:0.5161342" />
        </g>
        <path id="path1184-6" d="m 90.331953,90.57272 -0.0667,0.12092 c -0.46104,0.82986 -1.06424,1.40077 -1.83193,1.46658 l -0.12093,0.01 v 15.18563 l 0.15193,-0.0253 c 5.37054,-0.87282 7.42801,-0.71051 8.39691,-0.34365 0.48446,0.18343 0.70391,0.41425 0.97255,0.62891 0.268642,0.21466 0.591152,0.39915 1.189592,0.42374 l 0.004,0.002 0.006,-0.002 c 0.59844,-0.0246 0.91888,-0.20908 1.187515,-0.42374 0.26864,-0.21466 0.49017,-0.44548 0.97462,-0.62891 0.9689,-0.36686 3.02378,-0.52917 8.39432,0.34365 l 0.15451,0.0253 V 92.17023 l -0.12142,-0.01 c -0.76769,-0.0658 -1.37296,-0.63671 -1.834,-1.46658 l -0.0661,-0.12092 -0.11731,0.0718 c -0.7406,0.45259 -1.88972,1.03456 -3.30471,0.7307 -1.02393,-0.21988 -1.98671,-0.57878 -2.89646,-0.60926 -0.8666,-0.029 -1.678945,0.31335 -2.376595,1.3007 -0.69763,-0.98725 -1.508482,-1.32973 -2.375042,-1.3007 -0.90975,0.0305 -1.8746,0.38938 -2.89854,0.60926 -1.41499,0.30386 -2.56204,-0.27811 -3.30264,-0.7307 z m 0.18138,0.39946 c 0.76407,0.44619 1.89616,0.96381 3.29696,0.663 1.04765,-0.22497 2.00462,-0.57734 2.84944,-0.60565 0.82642,-0.0277 1.542242,0.22945 2.211232,1.22474 v 13.06586 c -0.68975,-0.52134 -1.409702,-0.72844 -2.123382,-0.74 -0.79752,-0.0129 -1.587,0.18499 -2.34146,0.3576 -0.75446,0.1726 -1.47388,0.31908 -2.127,0.23047 -0.64387,-0.0873 -1.22878,-0.39293 -1.76579,-1.15445 z m 17.027387,0.001 v 13.04313 c -0.53651,0.75946 -1.12271,1.06461 -1.76579,1.15187 -0.65311,0.0886 -1.37254,-0.0579 -2.127,-0.23048 -0.75446,-0.17261 -1.54186,-0.37053 -2.33939,-0.3576 -0.73021,0.0118 -1.467635,0.22716 -2.171955,0.77567 V 92.31982 l 0.002,-0.003 c 0.68179,-1.05152 1.410855,-1.31556 2.255675,-1.28726 0.84482,0.0283 1.80385,0.38067 2.8515,0.60565 1.39968,0.30057 2.53085,-0.21602 3.29489,-0.66198 z m 0.26562,0.2036 c 0.10458,0.15142 0.21379,0.29583 0.33227,0.42478 v 13.26375 c -0.11642,-0.2624 -0.22496,-0.53802 -0.33227,-0.83251 z m -17.556547,0.008 v 12.8478 c -0.12341,0.33874 -0.2496,0.65096 -0.38655,0.94826 V 91.67355 h -0.0114 c 0.14265,-0.14592 0.27536,-0.30997 0.39791,-0.48886 z m 18.152367,0.67283 c 0.11191,0.0951 0.23032,0.17721 0.35347,0.24908 v 13.88422 c -0.12989,-0.19156 -0.24565,-0.38766 -0.35347,-0.58911 z m -18.805047,0.047 v 13.6002 c -0.10774,0.1934 -0.22375,0.38245 -0.35347,0.5674 V 92.14223 h -0.009 c 0.12596,-0.068 0.24766,-0.14578 0.36225,-0.23771 z m 19.424137,0.33383 c 0.14572,0.06 0.29679,0.10779 0.45682,0.13281 v 14.50247 c -0.17528,-0.18248 -0.33504,-0.3647 -0.47749,-0.54777 h 0.0207 z m -20.041157,0.0202 v 14.16399 c -0.12233,0.15125 -0.25878,0.30203 -0.40411,0.4532 V 92.3712 c 0.14095,-0.022 0.27419,-0.0633 0.40411,-0.11265 z m 1.44333,12.02252 c 0.54517,0.69926 1.16179,1.05886 1.82056,1.14825 0.71639,0.0972 1.46491,-0.0607 2.2226,-0.2341 0.7577,-0.17334 1.52464,-0.36357 2.27532,-0.3514 0.75067,0.0122 1.483702,0.21842 2.199342,0.8475 l 0.0858,0.076 0.0879,-0.076 c 0.71564,-0.62908 1.446605,-0.83534 2.197275,-0.8475 0.75067,-0.0122 1.51969,0.17806 2.27739,0.3514 0.75769,0.17335 1.5062,0.33129 2.2226,0.2341 0.65876,-0.0894 1.27539,-0.44899 1.82056,-1.14825 0.38976,1.03616 0.81956,1.88986 1.61437,2.73523 -5.05015,-0.79426 -7.11744,-0.66738 -8.14575,-0.27802 -0.5294,0.20045 -0.79432,0.4695 -1.0449,0.66973 -0.249595,0.19944 -0.482845,0.34182 -1.029395,0.36535 -0.54456,-0.0239 -0.77815,-0.16625 -1.027322,-0.36535 -0.25059,-0.20023 -0.5155,-0.46928 -1.0449,-0.66973 -1.02835,-0.38937 -3.09529,-0.51682 -8.14576,0.2775 0.44505,-0.47341 0.77677,-0.95015 1.04904,-1.45934 h 0.005 v -0.01 c 0.21156,-0.39705 0.39011,-0.81346 0.56017,-1.26555 z" style="color:#000000;font-style:normal;font-variant:normal;font-weight:normal;font-stretch:normal;font-size:medium;line-height:normal;font-family:sans-serif;font-variant-ligatures:normal;font-variant-position:normal;font-variant-caps:normal;font-variant-numeric:normal;font-variant-alternates:normal;font-feature-settings:normal;text-indent:0;text-align:start;text-decoration:none;text-decoration-line:none;text-decoration-style:solid;text-decoration-color:#000000;letter-spacing:normal;word-spacing:normal;text-transform:none;writing-mode:lr-tb;direction:ltr;text-orientation:mixed;dominant-baseline:auto;baseline-shift:baseline;text-anchor:start;white-space:normal;shape-padding:0;clip-rule:nonzero;display:inline;overflow:visible;visibility:visible;opacity:1;isolation:auto;mix-blend-mode:normal;color-interpolation:sRGB;color-interpolation-filters:linearRGB;solid-color:#000000;solid-opacity:1;vector-effect:none;fill:#de0027;fill-opacity:1;fill-rule:nonzero;stroke:none;stroke-width:0.26499999;stroke-linecap:butt;stroke-linejoin:miter;stroke-miterlimit:4;stroke-dasharray:none;stroke-dashoffset:0;stroke-opacity:1;color-rendering:auto;image-rendering:auto;shape-rendering:auto;text-rendering:auto;enable-background:accumulate" />
        <path id="path1184-4-9" d="m 82.227538,96.446236 -0.01654,0.02997 c -0.115361,0.207653 -0.266774,0.350951 -0.458885,0.367419 l -0.03049,0.0026 v 3.799255 l 0.03876,-0.007 c 1.343797,-0.21839 1.857679,-0.17759 2.10013,-0.0858 0.121229,0.0459 0.176702,0.10338 0.243914,0.15709 0.06722,0.0537 0.14741,0.1003 0.29714,0.10646 h 0.0016 0.0016 c 0.149731,-0.006 0.229923,-0.0528 0.297138,-0.10646 0.06722,-0.0537 0.122169,-0.11119 0.243395,-0.15709 0.242451,-0.0918 0.756854,-0.13262 2.100649,0.0858 l 0.03824,0.007 v -3.799254 l -0.03049,-0.0026 c -0.192113,-0.01648 -0.343007,-0.159766 -0.458374,-0.367419 l -0.01654,-0.02997 -0.02946,0.01757 c -0.185312,0.11325 -0.472234,0.259488 -0.826304,0.183452 -0.256212,-0.05502 -0.49792,-0.14482 -0.725538,-0.152445 -0.216421,-0.0073 -0.418904,0.07808 -0.593246,0.324011 -0.07131,-0.101396 -0.145902,-0.183721 -0.226343,-0.233577 -0.161253,-0.09994 -0.337331,-0.104846 -0.519864,-0.07493 -0.182531,0.02992 -0.37382,0.09393 -0.574125,0.136943 -0.354071,0.07604 -0.641509,-0.0702 -0.826823,-0.183452 z m 28.709352,0 -0.0165,0.02997 c -0.11536,0.207653 -0.26677,0.350951 -0.45888,0.367419 l -0.0305,0.0026 v 3.799255 l 0.0388,-0.007 c 1.3438,-0.21839 1.85819,-0.17759 2.10064,-0.0858 0.12122,0.0459 0.17671,0.10338 0.24392,0.15709 0.0672,0.0537 0.1474,0.1003 0.29714,0.10646 h 0.001 0.002 c 0.14973,-0.006 0.22992,-0.0528 0.29713,-0.10646 0.0672,-0.0537 0.12217,-0.11119 0.2434,-0.15709 0.24245,-0.0918 0.75736,-0.13262 2.10116,0.0858 l 0.0382,0.007 v -3.799255 l -0.0305,-0.0026 c -0.19218,-0.01648 -0.34306,-0.159766 -0.45842,-0.367419 l -0.0165,-0.02997 -0.03,0.01757 c -0.18532,0.11325 -0.47224,0.259488 -0.82631,0.183452 -0.25621,-0.05502 -0.49792,-0.14482 -0.72554,-0.152445 -0.21642,-0.0073 -0.41889,0.07808 -0.59325,0.324011 -0.0713,-0.101396 -0.14589,-0.183721 -0.22634,-0.233577 -0.16125,-0.09994 -0.33733,-0.104846 -0.51986,-0.07493 -0.18253,0.02992 -0.37383,0.09393 -0.57413,0.136943 -0.35407,0.07604 -0.64151,-0.0702 -0.82682,-0.183452 z m -28.663878,0.100251 c 0.191151,0.111564 0.473911,0.240077 0.82424,0.164848 0.204936,-0.04401 0.396711,-0.107251 0.571543,-0.135908 0.174821,-0.02866 0.330499,-0.02355 0.474387,0.06563 0.07632,0.0473 0.149646,0.120298 0.22066,0.225824 v 3.269569 c -0.172627,-0.13042 -0.352676,-0.182111 -0.531233,-0.185003 -0.199554,-0.0032 -0.396719,0.04569 -0.585494,0.08888 -0.18878,0.0432 -0.368848,0.0795 -0.532268,0.0574 -0.161067,-0.0219 -0.307496,-0.09844 -0.441835,-0.288884 z m 4.260723,0 v 3.262333 c -0.134366,0.190553 -0.280723,0.26701 -0.441833,0.28887 -0.16342,0.0222 -0.34349,-0.0142 -0.532268,-0.0574 -0.188777,-0.04319 -0.386455,-0.09211 -0.58601,-0.08888 -0.182776,0.003 -0.36736,0.05693 -0.543636,0.19431 v -3.261823 l 0.0011,-0.0011 c 0.170599,-0.263121 0.352905,-0.329545 0.564304,-0.322462 0.2114,0.0071 0.451001,0.09512 0.713134,0.151411 0.350502,0.07527 0.634093,-0.05374 0.825273,-0.165365 z m 24.448635,0 c 0.19115,0.111564 0.47442,0.240077 0.82475,0.164848 0.20494,-0.04401 0.3962,-0.107251 0.57103,-0.135908 0.17482,-0.02866 0.3305,-0.02355 0.47439,0.06563 0.0763,0.0473 0.15015,0.120298 0.22117,0.225824 v 3.269569 c -0.17263,-0.13042 -0.3532,-0.182111 -0.53175,-0.185003 -0.19956,-0.0032 -0.39671,0.04569 -0.58549,0.08888 -0.18877,0.0432 -0.36885,0.0795 -0.53227,0.0574 -0.16107,-0.0219 -0.30749,-0.09844 -0.44183,-0.288884 z m 4.26072,0 v 3.262333 c -0.13436,0.190553 -0.28072,0.26701 -0.44183,0.28887 -0.16342,0.0222 -0.34349,-0.0142 -0.53227,-0.0574 -0.18878,-0.04319 -0.38646,-0.09211 -0.58601,-0.08888 -0.18278,0.003 -0.36684,0.05693 -0.54312,0.19431 v -3.261822 l 0.001,-0.0011 c 0.1706,-0.263121 0.3529,-0.329544 0.5643,-0.322461 0.21141,0.0071 0.451,0.09512 0.71314,0.15141 0.3505,0.07527 0.63357,-0.05374 0.82475,-0.165364 z m -33.03674,0.05323 v 3.214272 c -0.102052,0.280131 -0.208275,0.492711 -0.418063,0.711071 v -3.628722 c 0.171879,-0.02687 0.310121,-0.13893 0.418063,-0.296621 z m 4.393015,0 c 0.108032,0.157696 0.247208,0.26975 0.419094,0.296621 v 3.629242 c -0.21033,-0.21888 -0.31682,-0.4316 -0.419094,-0.712623 z m 24.316855,0 v 3.214272 c -0.10205,0.280131 -0.20879,0.492711 -0.41858,0.711071 v -3.628722 c 0.17188,-0.02687 0.31064,-0.13893 0.41858,-0.296621 z m 4.3925,0 c 0.10803,0.157696 0.24721,0.26975 0.41909,0.296621 v 3.629242 c -0.21032,-0.21888 -0.31681,-0.4316 -0.41909,-0.712623 z m -33.058962,3.276801 c 0.136366,0.174792 0.291549,0.264972 0.456303,0.287322 0.179252,0.0243 0.365937,-0.0155 0.555521,-0.0589 0.18959,-0.0434 0.382162,-0.0909 0.569992,-0.0878 0.187831,0.003 0.370774,0.055 0.549839,0.21239 l 0.0217,0.0191 0.02223,-0.0191 c 0.179064,-0.15741 0.362003,-0.20935 0.549838,-0.21239 0.187831,-0.003 0.379368,0.0445 0.568958,0.0878 0.189587,0.0434 0.377301,0.0832 0.556553,0.0589 0.164661,-0.0223 0.318961,-0.11274 0.455269,-0.287322 0.09761,0.259502 0.205838,0.472552 0.405146,0.684192 -1.264486,-0.19893 -1.781792,-0.1667 -2.039155,-0.0692 -0.132453,0.0502 -0.198778,0.11681 -0.261482,0.16692 -0.06235,0.0498 -0.121079,0.086 -0.257347,0.092 -0.136274,-0.006 -0.194998,-0.0422 -0.25735,-0.092 -0.0627,-0.0501 -0.129029,-0.11676 -0.261482,-0.16692 -0.257321,-0.0974 -0.774607,-0.12957 -2.038636,0.0692 0.199224,-0.21164 0.306499,-0.4247 0.404109,-0.684192 z m 28.709872,0 c 0.13636,0.174792 0.29103,0.264972 0.45579,0.287322 0.17925,0.0243 0.36593,-0.0155 0.55552,-0.0589 0.18959,-0.0434 0.38216,-0.0909 0.56999,-0.0878 0.18783,0.003 0.37077,0.055 0.54984,0.21239 l 0.0222,0.0191 0.0217,-0.0191 c 0.17906,-0.15741 0.36201,-0.20935 0.54984,-0.21239 0.18783,-0.003 0.37988,0.0445 0.56947,0.0878 0.18959,0.0434 0.37679,0.0832 0.55604,0.0589 0.16466,-0.0223 0.31896,-0.11274 0.45527,-0.287322 0.0976,0.259502 0.20583,0.472552 0.40514,0.684192 -1.26449,-0.19894 -1.78179,-0.1667 -2.03915,-0.0692 -0.13246,0.0502 -0.19878,0.11682 -0.26148,0.16692 -0.0623,0.0498 -0.12056,0.086 -0.25683,0.092 -0.13627,-0.006 -0.19551,-0.0422 -0.25787,-0.092 -0.0627,-0.0501 -0.12902,-0.11676 -0.26148,-0.16692 -0.25731,-0.0974 -0.77461,-0.12957 -2.03864,0.0692 0.19923,-0.21164 0.30702,-0.4247 0.40463,-0.684192 z" style="color:#000000;font-style:normal;font-variant:normal;font-weight:normal;font-stretch:normal;font-size:medium;line-height:normal;font-family:sans-serif;font-variant-ligatures:normal;font-variant-position:normal;font-variant-caps:normal;font-variant-numeric:normal;font-variant-alternates:normal;font-feature-settings:normal;text-indent:0;text-align:start;text-decoration:none;text-decoration-line:none;text-decoration-style:solid;text-decoration-color:#000000;letter-spacing:normal;word-spacing:normal;text-transform:none;writing-mode:lr-tb;direction:ltr;text-orientation:mixed;dominant-baseline:auto;baseline-shift:baseline;text-anchor:start;white-space:normal;shape-padding:0;clip-rule:nonzero;display:inline;overflow:visible;visibility:visible;opacity:1;isolation:auto;mix-blend-mode:normal;color-interpolation:sRGB;color-interpolation-filters:linearRGB;solid-color:#000000;solid-opacity:1;vector-effect:none;fill:#9f8a5a;fill-opacity:1;fill-rule:nonzero;stroke:none;stroke-width:0.06620283px;stroke-linecap:butt;stroke-linejoin:miter;stroke-miterlimit:4;stroke-dasharray:none;stroke-dashoffset:0;stroke-opacity:1;color-rendering:auto;image-rendering:auto;shape-rendering:auto;text-rendering:auto;enable-background:accumulate" />
        <path id="path1116-9" transform="scale(0.26458333)" d="m 303.67578,281.88477 v 91.61718 c 0,13.90044 7.30341,27.96316 18.67578,39.69141 11.37238,11.72821 26.8642,21.16322 43.5918,25.70508 h 0.0137 l 0.008,0.006 c 6.28258,1.60365 11.78129,1.10493 17.40625,-0.39063 l 0.0234,-0.008 h 0.0137 c 16.42216,-4.74758 31.56177,-14.17926 42.66016,-25.80664 11.09836,-11.62738 18.20508,-25.4917 18.20508,-39.19727 v -91.61718 h -65.78906 -9.01954 z m 3.39649,3.40234 h 62.39062 9.02149 62.38476 v 26.72266 H 307.07227 Z m 0,28.99023 h 133.79687 v 59.22461 c 0,12.52038 -6.5959,25.67744 -17.25976,36.84961 -10.66243,11.17062 -25.33987,20.31604 -41.13868,24.88477 -0.002,6.4e-4 -0.004,-6.4e-4 -0.008,0 -5.26748,1.3965 -9.99036,1.80876 -15.64258,0.36914 h -0.0137 c -16.07694,-4.37137 -31.08759,-13.51554 -42.0115,-24.78125 -10.93048,-11.27252 -17.72265,-24.62387 -17.72265,-37.32227 z" style="color:#000000;font-style:normal;font-variant:normal;font-weight:normal;font-stretch:normal;font-size:medium;line-height:normal;font-family:sans-serif;font-variant-ligatures:normal;font-variant-position:normal;font-variant-caps:normal;font-variant-numeric:normal;font-variant-alternates:normal;font-feature-settings:normal;text-indent:0;text-align:start;text-decoration:none;text-decoration-line:none;text-decoration-style:solid;text-decoration-color:#000000;letter-spacing:normal;word-spacing:normal;text-transform:none;writing-mode:lr-tb;direction:ltr;text-orientation:mixed;dominant-baseline:auto;baseline-shift:baseline;text-anchor:start;white-space:normal;shape-padding:0;clip-rule:nonzero;display:inline;overflow:visible;visibility:visible;opacity:1;isolation:auto;mix-blend-mode:normal;color-interpolation:sRGB;color-interpolation-filters:linearRGB;solid-color:#000000;solid-opacity:1;vector-effect:none;fill:#de0027;fill-opacity:1;fill-rule:nonzero;stroke:none;stroke-width:3.40157485;stroke-linecap:butt;stroke-linejoin:miter;stroke-miterlimit:4;stroke-dasharray:none;stroke-dashoffset:0;stroke-opacity:1;color-rendering:auto;image-rendering:auto;shape-rendering:auto;text-rendering:auto;enable-background:accumulate" />
        <path id="path1184-4" transform="scale(0.26458333)" d="m 310.78125,321.21094 -0.0625,0.11328 c -0.43601,0.78483 -1.00828,1.32643 -1.73437,1.38867 l -0.11524,0.01 v 14.35937 l 0.14648,-0.0254 c 5.07892,-0.82541 7.02115,-0.67117 7.9375,-0.32422 0.45819,0.17348 0.66785,0.39076 0.92188,0.59375 0.25406,0.203 0.55714,0.37909 1.12305,0.40235 h 0.006 0.006 c 0.56591,-0.0234 0.869,-0.19937 1.12304,-0.40235 0.25406,-0.203 0.46174,-0.42025 0.91992,-0.59375 0.91635,-0.34696 2.86055,-0.50121 7.93946,0.32422 l 0.14453,0.0254 v -14.35937 l -0.11524,-0.01 c -0.72608,-0.0623 -1.29639,-0.60384 -1.73242,-1.38867 l -0.0625,-0.11328 -0.11133,0.0664 c -0.70039,0.42803 -1.78482,0.98074 -3.12304,0.69336 -0.96836,-0.20795 -1.8819,-0.54735 -2.74219,-0.57617 -0.81797,-0.0276 -1.58326,0.2951 -2.24219,1.22461 -0.26952,-0.38323 -0.55144,-0.69438 -0.85547,-0.88281 -0.60946,-0.37773 -1.27495,-0.39627 -1.96484,-0.28321 -0.68988,0.11309 -1.41286,0.35502 -2.16992,0.51758 -1.33822,0.2874 -2.4246,-0.26532 -3.125,-0.69336 z m 54.25391,0 -0.0625,0.11328 c -0.43602,0.78483 -1.00828,1.32643 -1.73438,1.38867 l -0.11523,0.01 v 14.35937 l 0.14648,-0.0254 c 5.07892,-0.82541 7.0231,-0.67117 7.93945,-0.32422 0.45819,0.17348 0.66589,0.39076 0.91993,0.59375 0.25406,0.203 0.55714,0.37909 1.12304,0.40235 h 0.006 0.006 c 0.56592,-0.0234 0.86901,-0.19937 1.12305,-0.40235 0.25406,-0.203 0.46174,-0.42025 0.91992,-0.59375 0.91635,-0.34696 2.86248,-0.50121 7.94141,0.32422 l 0.14257,0.0254 v -14.35937 l -0.11328,-0.01 c -0.72616,-0.0623 -1.29641,-0.60384 -1.73242,-1.38867 l -0.0625,-0.11328 -0.11328,0.0664 c -0.70038,0.42803 -1.78483,0.98074 -3.12305,0.69336 -0.96835,-0.20795 -1.8819,-0.54735 -2.74218,-0.57617 -0.81798,-0.0276 -1.58326,0.2951 -2.24219,1.22461 -0.26952,-0.38323 -0.55144,-0.69438 -0.85547,-0.88281 -0.60946,-0.37773 -1.27496,-0.39627 -1.96484,-0.28321 -0.68989,0.11309 -1.41287,0.35502 -2.16993,0.51758 -1.33821,0.2874 -2.42459,-0.26532 -3.125,-0.69336 z m 54.2539,0 -0.0625,0.11328 c -0.436,0.78483 -1.00829,1.32643 -1.73437,1.38867 l -0.11524,0.01 v 14.35937 l 0.14649,-0.0254 c 5.07893,-0.82541 7.0231,-0.67117 7.93945,-0.32422 0.45815,0.17348 0.66785,0.39076 0.92188,0.59375 0.25398,0.203 0.55713,0.37909 1.12304,0.40235 h 0.004 0.006 c 0.56591,-0.0234 0.86902,-0.19937 1.12304,-0.40235 0.25399,-0.203 0.46173,-0.42025 0.91993,-0.59375 0.91634,-0.34696 2.86247,-0.50121 7.9414,0.32422 l 0.14453,0.0254 v -14.35937 l -0.11523,-0.01 c -0.72616,-0.0623 -1.29642,-0.60384 -1.73242,-1.38867 l -0.0625,-0.11328 -0.11328,0.0664 c -0.70039,0.42803 -1.78483,0.98074 -3.12305,0.69336 -0.96835,-0.20795 -1.88189,-0.54735 -2.74219,-0.57617 -0.81796,-0.0276 -1.58322,0.2951 -2.24219,1.22461 -0.26948,-0.38323 -0.5514,-0.69438 -0.85546,-0.88281 -0.60945,-0.37773 -1.27497,-0.39627 -1.96485,-0.28321 -0.68987,0.11309 -1.41288,0.35502 -2.16992,0.51758 -1.33822,0.2874 -2.42462,-0.26532 -3.125,-0.69336 z m -108.33594,0.3789 c 0.72246,0.42166 1.79116,0.90738 3.11524,0.62305 0.77456,-0.16634 1.49938,-0.40536 2.16016,-0.51367 0.66074,-0.10832 1.24913,-0.089 1.79296,0.24805 0.28846,0.17877 0.56559,0.45467 0.83399,0.85351 v 12.35742 c -0.65245,-0.49291 -1.33295,-0.68829 -2.00781,-0.69922 -0.75422,-0.0121 -1.49941,0.1727 -2.21289,0.33594 -0.7135,0.16324 -1.39407,0.30059 -2.01172,0.2168 -0.60876,-0.0826 -1.16219,-0.37206 -1.66993,-1.0918 z m 16.10352,0 v 12.33008 c -0.50784,0.7202 -1.061,1.00918 -1.66992,1.0918 -0.61765,0.0838 -1.29823,-0.0536 -2.01172,-0.2168 -0.71349,-0.16324 -1.46062,-0.34814 -2.21484,-0.33594 -0.69081,0.0113 -1.38845,0.21515 -2.05469,0.73438 v -12.32813 l 0.004,-0.004 c 0.64479,-0.99447 1.33382,-1.24552 2.13281,-1.21875 0.79899,0.0268 1.70457,0.3595 2.69531,0.57226 1.32473,0.28449 2.39657,-0.20313 3.11914,-0.625 z m 38.15039,0 c 0.72245,0.42166 1.79311,0.90738 3.11719,0.62305 0.77456,-0.16634 1.49743,-0.40536 2.1582,-0.51367 0.66075,-0.10832 1.24914,-0.089 1.79297,0.24805 0.28845,0.17877 0.56754,0.45467 0.83594,0.85351 v 12.35742 c -0.65245,-0.49291 -1.3349,-0.68829 -2.00977,-0.69922 -0.75421,-0.0121 -1.4994,0.1727 -2.21289,0.33594 -0.71349,0.16324 -1.39406,0.30059 -2.01172,0.2168 -0.60876,-0.0826 -1.16218,-0.37206 -1.66992,-1.0918 z m 16.10352,0 v 12.33008 c -0.50782,0.7202 -1.06101,1.00918 -1.66993,1.0918 -0.61761,0.0838 -1.29821,-0.0536 -2.01171,-0.2168 -0.71349,-0.16324 -1.46063,-0.34814 -2.21485,-0.33594 -0.6908,0.0113 -1.38844,0.21515 -2.05468,0.73438 v -12.32813 l 0.004,-0.004 c 0.6448,-0.99447 1.33578,-1.24552 2.13477,-1.21875 0.79899,0.0268 1.70456,0.3595 2.69531,0.57226 1.32472,0.28449 2.39462,-0.20313 3.11719,-0.625 z m 38.15039,0 c 0.72245,0.42166 1.7931,0.90738 3.11718,0.62305 0.77458,-0.16634 1.49743,-0.40536 2.15821,-0.51367 0.66074,-0.10832 1.24913,-0.089 1.79297,0.24805 0.28837,0.17877 0.56751,0.45467 0.83593,0.85351 v 12.35742 c -0.65246,-0.49291 -1.33493,-0.68829 -2.00976,-0.69922 -0.75424,-0.0121 -1.49939,0.1727 -2.21289,0.33594 -0.71346,0.16324 -1.39407,0.30059 -2.01172,0.2168 -0.60877,-0.0826 -1.16218,-0.37206 -1.66992,-1.0918 z m 16.10351,0 v 12.33008 c -0.50781,0.7202 -1.061,1.00918 -1.66992,1.0918 -0.61765,0.0838 -1.29822,-0.0536 -2.01172,-0.2168 -0.7135,-0.16324 -1.46064,-0.34814 -2.21484,-0.33594 -0.69082,0.0113 -1.38648,0.21515 -2.05274,0.73438 v -12.32813 l 0.004,-0.004 c 0.64479,-0.99447 1.33382,-1.24552 2.13281,-1.21875 0.799,0.0268 1.70455,0.3595 2.69532,0.57226 1.32472,0.28449 2.39461,-0.20313 3.11718,-0.625 z m -124.86328,0.20118 v 12.14843 c -0.38571,1.05878 -0.78718,1.86222 -1.58008,2.6875 v -13.71484 c 0.64962,-0.10156 1.17211,-0.52509 1.58008,-1.12109 z m 16.60352,0 c 0.40831,0.59602 0.93433,1.01953 1.58398,1.12109 v 13.7168 c -0.79495,-0.82725 -1.19743,-1.63123 -1.58398,-2.69336 z m 37.65234,0 v 12.14843 c -0.38571,1.05878 -0.78914,1.86222 -1.58203,2.6875 v -13.71484 c 0.64962,-0.10156 1.17406,-0.52509 1.58203,-1.12109 z m 16.60156,0 c 0.40831,0.59602 0.93433,1.01953 1.58399,1.12109 v 13.7168 c -0.79495,-0.82725 -1.19742,-1.63123 -1.58399,-2.69336 z m 37.65235,0 v 12.14843 c -0.3857,1.05878 -0.78916,1.86222 -1.58203,2.6875 v -13.71484 c 0.64962,-0.10156 1.17407,-0.52509 1.58203,-1.12109 z m 16.60156,0 c 0.4083,0.59602 0.93432,1.01953 1.58398,1.12109 v 13.7168 c -0.79494,-0.82725 -1.19741,-1.63123 -1.58398,-2.69336 z m -124.94727,12.38476 c 0.5154,0.66063 1.10192,1.00145 1.72461,1.08594 0.67749,0.0919 1.38307,-0.0587 2.09961,-0.22266 0.71656,-0.16392 1.44439,-0.34352 2.1543,-0.33203 0.70991,0.0117 1.40135,0.20782 2.07813,0.80274 l 0.082,0.0723 0.084,-0.0723 c 0.67678,-0.59494 1.3682,-0.79125 2.07813,-0.80274 0.70991,-0.0117 1.43383,0.16808 2.15039,0.33203 0.71655,0.16392 1.42602,0.31458 2.10351,0.22266 0.62234,-0.0844 1.20552,-0.42611 1.7207,-1.08594 0.36892,0.98081 0.77797,1.78604 1.53126,2.58594 -4.77916,-0.75189 -6.73433,-0.63005 -7.70704,-0.26172 -0.50061,0.18954 -0.75129,0.44149 -0.98828,0.63086 -0.23565,0.1883 -0.45762,0.32502 -0.97265,0.34766 -0.51505,-0.0227 -0.737,-0.15933 -0.97266,-0.34766 -0.23698,-0.18935 -0.48767,-0.44131 -0.98828,-0.63086 -0.97255,-0.36824 -2.92765,-0.48974 -7.70508,0.26172 0.75297,-0.7999 1.15842,-1.60517 1.52734,-2.58594 z m 54.25586,0 c 0.5154,0.66063 1.09997,1.00145 1.72266,1.08594 0.67749,0.0919 1.38306,-0.0587 2.09961,-0.22266 0.71655,-0.16392 1.44438,-0.34352 2.1543,-0.33203 0.7099,0.0117 1.40134,0.20782 2.07812,0.80274 l 0.082,0.0723 0.084,-0.0723 c 0.67677,-0.59494 1.3682,-0.79125 2.07812,-0.80274 0.70992,-0.0117 1.43579,0.16808 2.15235,0.33203 0.71656,0.16392 1.42404,0.31458 2.10156,0.22266 0.62234,-0.0844 1.20551,-0.42611 1.7207,-1.08594 0.36888,0.98081 0.77795,1.78604 1.53125,2.58594 -4.77917,-0.75189 -6.73432,-0.63005 -7.70703,-0.26172 -0.50061,0.18954 -0.75129,0.44149 -0.98828,0.63086 -0.23565,0.1883 -0.45762,0.32502 -0.97266,0.34766 -0.51505,-0.0227 -0.737,-0.15933 -0.97265,-0.34766 -0.23698,-0.18935 -0.48767,-0.44131 -0.98828,-0.63086 -0.97255,-0.36824 -2.92765,-0.48974 -7.70508,0.26172 0.75297,-0.7999 1.16037,-1.60517 1.52929,-2.58594 z m 54.25391,0 c 0.51538,0.66062 1.09994,1.00145 1.72266,1.08594 0.67748,0.0919 1.38304,-0.0587 2.09961,-0.22266 0.71656,-0.16392 1.44438,-0.34352 2.15429,-0.33203 0.70991,0.0117 1.40133,0.20782 2.07813,0.80274 l 0.084,0.0723 0.082,-0.0723 c 0.67677,-0.59494 1.36822,-0.79125 2.07813,-0.80274 0.70991,-0.0117 1.43578,0.16808 2.15234,0.33203 0.71656,0.16392 1.42408,0.31458 2.10156,0.22266 0.62234,-0.0844 1.20552,-0.42611 1.72071,-1.08594 0.36888,0.98081 0.77795,1.78604 1.53125,2.58594 -4.77918,-0.7519 -6.73433,-0.63005 -7.70703,-0.26172 -0.50064,0.18954 -0.75131,0.44149 -0.98828,0.63086 -0.23547,0.1883 -0.45567,0.32502 -0.97071,0.34766 -0.51503,-0.0227 -0.73892,-0.15933 -0.97461,-0.34766 -0.23697,-0.18935 -0.48764,-0.44131 -0.98828,-0.63086 -0.97251,-0.36824 -2.92764,-0.48974 -7.70508,0.26172 0.753,-0.7999 1.16038,-1.60517 1.5293,-2.58594 z" style="color:#000000;font-style:normal;font-variant:normal;font-weight:normal;font-stretch:normal;font-size:medium;line-height:normal;font-family:sans-serif;font-variant-ligatures:normal;font-variant-position:normal;font-variant-caps:normal;font-variant-numeric:normal;font-variant-alternates:normal;font-feature-settings:normal;text-indent:0;text-align:start;text-decoration:none;text-decoration-line:none;text-decoration-style:solid;text-decoration-color:#000000;letter-spacing:normal;word-spacing:normal;text-transform:none;writing-mode:lr-tb;direction:ltr;text-orientation:mixed;dominant-baseline:auto;baseline-shift:baseline;text-anchor:start;white-space:normal;shape-padding:0;clip-rule:nonzero;display:inline;overflow:visible;visibility:visible;opacity:1;isolation:auto;mix-blend-mode:normal;color-interpolation:sRGB;color-interpolation-filters:linearRGB;solid-color:#000000;solid-opacity:1;vector-effect:none;fill:#9f8a5a;fill-opacity:1;fill-rule:nonzero;stroke:none;stroke-width:0.25021541px;stroke-linecap:butt;stroke-linejoin:miter;stroke-miterlimit:4;stroke-dasharray:none;stroke-dashoffset:0;stroke-opacity:1;color-rendering:auto;image-rendering:auto;shape-rendering:auto;text-rendering:auto;enable-background:accumulate" />
        <path id="path1708" transform="scale(0.26458333)" d="m 270.60547,411.47461 -0.008,2.28711 c -0.0223,4.58865 1.0552,9.88381 2.38476,14.82422 -2.90239,2.9447 -5.55415,5.22288 -9.24219,7.72851 l -1.49218,1.01172 21.73047,12.66797 -2.12305,7.43164 0.87891,0.40625 c 28.96638,13.5188 59.63551,23.17758 91.90429,23.30469 h 0.008 c 32.26882,-0.12699 62.93011,-9.78589 91.89649,-23.30469 l 0.87891,-0.40625 -2.1211,-7.42773 21.72656,-12.67188 -1.48437,-1.01172 c -3.6864,-2.5045 -6.34129,-4.78577 -9.24219,-7.72851 1.32945,-4.94007 2.40718,-10.23591 2.38477,-14.82422 l -0.0137,-2.28711 -1.81641,1.40234 c -10.7876,8.30408 -23.59127,13.74636 -35.50781,18.6836 l -0.91407,0.375 2.125,8.1875 0.11914,-0.0312 c -22.46702,9.01946 -41.69139,14.95334 -68.03125,14.84765 h -0.008 c -26.34353,0.10571 -45.57571,-5.82987 -68.04883,-14.85156 l 0.13477,0.0352 2.11914,-8.1875 -0.9082,-0.375 c -11.91655,-4.93724 -24.7261,-10.37952 -35.51367,-18.6836 z m 2.62109,4.53125 c 9.78376,7.06653 20.72826,12.1308 31.15039,16.50391 -4.31461,1.11855 -9.57451,0.87043 -14.68945,0.66015 l -0.89258,-0.0391 -4.17187,14.60937 -18.28516,-10.6582 c 3.20542,-2.28884 5.95133,-4.45485 8.67383,-7.25586 l 0.45117,-0.46679 -0.17773,-0.62696 c -1.18851,-4.27774 -1.81914,-8.70148 -2.0586,-12.72656 z m 202.82422,0.008 c -0.24,4.02346 -0.87272,8.44343 -2.06055,12.71875 l -0.17578,0.62696 0.45703,0.46679 c 2.72368,2.80226 5.46645,4.96596 8.67383,7.25586 l -18.28906,10.66016 -4.17383,-14.61133 -0.89258,0.0391 c -5.11717,0.21056 -10.37357,0.4582 -14.6875,-0.66211 10.41898,-4.37143 21.36773,-9.43156 31.14844,-16.49414 z m -170.20508,18.43945 -1.25,4.82618 c -2.86858,-1.16405 -5.86599,-2.41175 -8.86914,-3.66602 3.48944,0.0358 6.96132,-0.1686 10.11914,-1.16016 z m 137.58399,0 c 3.15794,0.99167 6.63079,1.19579 10.12109,1.16016 -3.00392,1.25463 -6.00192,2.50166 -8.87109,3.66602 z m -153.04297,1.39258 c 29.72527,12.47149 51.73948,21.48989 84.25976,21.35938 32.51664,0.12902 54.52815,-8.88851 84.25196,-21.35938 l 5.80664,20.31055 c -28.52296,13.21848 -58.56164,22.58929 -90.0586,22.71484 -31.49956,-0.12396 -61.54123,-9.49538 -90.0664,-22.71484 z" style="color:#000000;font-style:normal;font-variant:normal;font-weight:normal;font-stretch:normal;font-size:medium;line-height:normal;font-family:sans-serif;font-variant-ligatures:normal;font-variant-position:normal;font-variant-caps:normal;font-variant-numeric:normal;font-variant-alternates:normal;font-feature-settings:normal;text-indent:0;text-align:start;text-decoration:none;text-decoration-line:none;text-decoration-style:solid;text-decoration-color:#000000;letter-spacing:normal;word-spacing:normal;text-transform:none;writing-mode:lr-tb;direction:ltr;text-orientation:mixed;dominant-baseline:auto;baseline-shift:baseline;text-anchor:start;white-space:normal;shape-padding:0;clip-rule:nonzero;display:inline;overflow:visible;visibility:visible;opacity:1;isolation:auto;mix-blend-mode:normal;color-interpolation:sRGB;color-interpolation-filters:linearRGB;solid-color:#000000;solid-opacity:1;vector-effect:none;fill:#de0027;fill-opacity:1;fill-rule:nonzero;stroke:none;stroke-width:2.26771665;stroke-linecap:butt;stroke-linejoin:miter;stroke-miterlimit:4;stroke-dasharray:none;stroke-dashoffset:0;stroke-opacity:1;color-rendering:auto;image-rendering:auto;shape-rendering:auto;text-rendering:auto;enable-background:accumulate" />
      </g>
    </g>
  </g>
</svg>
