<svg xmlns="http://www.w3.org/2000/svg" viewBox="0 0 64 64" width="64" height="64" aria-hidden="true" focusable="false">
  <path transform="translate(4 8.39535) scale(0.162791)" fill="#008cde" fill-rule="evenodd" d="M118,273 119,272 120,273 119,274ZM123,270 125,271 124,274 121,273ZM104,267 106,268 105,271 102,269ZM177,264 176,265 176,274 179,275 180,273 180,267 179,265ZM175,262 180,262 183,265 183,274 180,277 175,277 173,275 172,272 173,269 172,268 173,267 173,264ZM163,262 168,262 169,263 169,266 168,267 167,265 165,264 163,266 163,273 164,275 167,275 168,274 169,276 166,278 162,277 160,275 160,272 159,271 160,265ZM147,263 145,265 145,273 146,274 148,274 149,272 149,265ZM186,261 190,261 191,262 190,263 190,269 191,270 190,273 191,274 194,274 195,272 196,273 195,276 191,276 190,277 187,277 186,276 187,275 187,264 185,262ZM145,261 149,261 152,264 152,273 151,275 148,277 145,277 142,274 142,264ZM200,260 203,261 202,262 202,271 203,273 206,272 207,273 206,275 203,276 199,276 198,275 199,274 199,263 197,262ZM128,260 132,260 133,261 131,263 131,266 134,266 134,262 133,261 134,260 138,260 139,261 137,268 137,273 139,275 138,276 136,276 133,274 134,273 134,269 131,268 131,273 132,274 131,275 127,275 126,274 128,272 128,262 127,261ZM211,259 217,259 219,261 218,262 214,261 214,265 217,264 218,265 217,268 216,267 214,268 214,271 215,272 219,271 220,272 219,274 214,274 213,275 210,274 211,273 211,264 210,263 210,260ZM225,257 230,257 231,258 231,261 230,262 229,260 227,259 225,261 225,267 227,270 230,270 228,264 229,263 232,263 233,264 232,265 233,267 233,271 232,272 226,273 222,268 222,260ZM110,257 114,257 115,258 113,260 113,264 116,264 117,260 115,259 116,258 120,258 121,259 120,260 119,272 118,273 115,273 114,272 116,271 116,267 115,266 113,266 112,269 114,272 113,273 110,272 109,273 108,272 110,265 110,259 109,258ZM242,254 244,257 243,258 242,257 239,257 239,261 242,261 243,260 244,263 243,264 241,263 240,264 240,267 243,268 245,266 246,268 244,270 237,271 236,270 237,269 236,258 234,257 237,255 241,255ZM96,254 100,254 102,256 102,259 101,260 100,257 98,256 97,257 97,259 102,265 101,268 98,270 92,268 92,265 93,264 95,267 98,266 94,260 94,256ZM82,268 82,273 87,276 90,276 99,279 104,279 105,280 128,282 129,283 142,283 143,284 196,284 197,283 209,283 210,282 219,282 220,281 234,280 235,279 248,277 254,274 254,263 253,262 253,257 252,256 252,252 250,246 249,247 239,248 238,249 232,249 231,250 205,252 204,253 191,253 190,254 148,254 147,253 135,253 134,252 125,252 124,251 116,251 115,250 102,249 101,248 96,248 95,247 90,247 88,246 86,249 84,261 83,262 83,267ZM274,241 271,241 266,243ZM274,238 266,240 269,240ZM74,238 74,241 73,242 74,244 73,245 70,244 72,247 74,247 74,244 76,239ZM40,236 40,238 47,239 46,237ZM275,236 277,234 279,235 278,237ZM233,235 234,236 235,246 246,245 249,244 250,242 248,240 238,238ZM105,235 99,238 95,238 89,240 88,242 90,244 103,246 104,238 105,237 104,236ZM257,234 258,233 260,234 259,235ZM75,233 76,232 80,232 82,234 81,235 78,235ZM43,230 44,231 43,232 46,233 47,231ZM71,227 72,227 76,232 73,233 76,235 75,236 77,237 79,236 81,238 80,240 79,239 77,249 75,251 73,251 69,246 66,247 63,246 66,244 64,242 65,241 68,241 65,240 66,236 65,236 66,237 64,241 63,247 62,248 60,246 62,238 59,237 65,232 67,233 66,232ZM69,229 63,233 60,232 62,231 66,226ZM265,225 267,225 268,227 270,227 273,225 275,227 274,228 276,227 278,228 275,230 277,234 276,235 270,234 273,234 274,235 270,237 275,236 277,238 278,245 276,247 274,243 267,245 267,246 271,244 274,244 275,245 269,247 265,250 263,246 263,243 259,241 261,239 267,238 264,238 263,239 261,238 263,236 266,236 266,235 262,237 260,236 262,234 266,233 260,234 259,233 265,231 265,230 261,232 258,231 261,229 263,229ZM286,224 289,233 289,231 287,228 287,224ZM173,220 173,222 175,222 175,220ZM164,220 164,224 163,225 166,226 166,223 167,222 166,220ZM44,219 47,222 46,223 48,224 50,221 52,221 54,223 51,225 54,225 56,227 53,228 48,226 49,227 52,227 54,229 53,230 48,229 54,231 53,233 51,232 50,234 53,234 54,236 53,237 50,236 51,238 49,243 47,243 42,240 37,240 36,239 36,236 38,232 36,232 34,230 36,229 40,231 40,230 37,228 38,226 44,228 39,225 40,224 45,225 38,223 39,221 43,222ZM300,219 302,221 300,223 301,225 300,226 293,228 292,227 293,226 297,225 298,223 293,224 291,227 290,227 289,225 289,227 292,230 302,226 303,228 300,230 301,234 303,235 304,232 306,236 304,238 300,239 298,237 297,231 297,237 293,241 292,240 294,237 294,232 293,232 293,234 291,236 289,235 291,241 289,242 286,236 283,223 287,221 290,221 291,222 290,223 291,222 294,222 291,219 292,218 295,218 296,221ZM42,219 43,218 44,219 43,220ZM175,217 178,220 177,222 178,227 176,228 175,227 175,224 174,224 174,228 172,229 170,224 170,219ZM165,217 169,220 169,225 166,229 164,229 161,226 161,220ZM184,216 186,218 183,219 184,220 184,227 183,228 181,224 181,219 179,220 178,218ZM150,216 152,217 152,222 152,220 155,216 157,218 157,222 158,218 159,217 160,218 160,221 158,224 158,226 156,228 154,226 154,221 153,226 152,227 150,226 150,220 149,219ZM193,215 196,224 194,225 192,221 190,222 191,225 189,226 187,221 187,217 188,216 190,219 192,219 191,216ZM143,214 149,216 148,218 146,217 146,220 144,225 142,224 144,217 142,215ZM197,213 200,220 200,223 199,224 197,222 195,216ZM139,212 141,215 139,216 138,214 136,215 139,218 139,221 135,223 132,220 132,218 133,217 135,220 136,220 136,218 134,217 134,213 135,212ZM206,210 210,219 207,220 203,216 205,221 203,222 199,213 202,212 206,216 204,211ZM127,208 129,209 126,214 127,217 129,215 130,211 131,210 133,211 129,219 125,219 123,216 123,214ZM319,238 309,225 309,213 311,207 281,217 264,221 260,223 256,223 242,227 237,227 233,229 234,233 237,235 248,237 252,240 255,257 256,256 260,256 261,255 276,252ZM212,206 213,208 211,211 213,210 215,211 215,212 213,213 213,215 215,214 218,215 213,218 208,211 208,209ZM119,208 121,209 121,207ZM19,239 82,258 82,254 86,240 90,237 97,236 102,234 105,231 105,229 88,226 87,225 83,225 75,222 68,221 64,219 54,217 30,209 27,207 29,214 29,225ZM226,206 227,205 230,207 227,208ZM218,203 220,203 222,205 221,206 218,206 218,207 223,207 224,208 224,212 220,214 218,211 219,210 222,211 221,209 218,210 215,207ZM120,203 124,206 124,209 122,211 120,216 118,214 119,211 118,211 116,214 114,212ZM167,202 165,202 164,205 165,208 166,208 168,205ZM186,201 185,203 186,206 188,207 189,204 188,201ZM179,199 181,200 181,204 182,205 182,209 181,210 179,209 179,202 178,201ZM177,199 178,201 176,202 176,209 174,210 173,209 173,202 170,201ZM165,199 167,199 170,202 170,207 169,209 166,211 162,208 162,202ZM155,199 157,200 157,206 159,200 160,199 162,200 158,209 155,208 155,204 154,203 154,200ZM114,199 119,203 117,205 115,204 110,210 109,208 114,202 113,201ZM224,198 227,198 228,199 227,201 225,200 225,202 227,201 230,201 232,205 230,207 229,204 225,205 222,202 222,200ZM186,198 188,198 191,201 191,207 189,209 186,209 183,206 183,200ZM192,197 195,198 194,200 196,206 195,207 193,206 191,200ZM148,197 153,199 152,201 150,200 149,202 152,203 151,205 149,204 149,206 152,207 151,209 149,209 146,207 146,202ZM141,198 140,204 141,204 143,201ZM197,195 199,197 201,203 200,206 198,206 194,201 195,199 198,202 196,198ZM140,195 145,198 145,203 144,205 141,207 136,205 138,201 138,198ZM204,182 203,185 205,185ZM189,181 188,182 188,186 190,187 191,186 191,182ZM154,181 154,183 155,183 155,181ZM209,179 211,180 211,187 214,188 213,190 209,190 208,189 208,180ZM175,180 178,179 180,182 180,185 181,180 184,179 185,180 185,189 184,190 182,188 182,185 182,188 180,190 178,187 178,184 178,189 176,190 175,189ZM159,179 164,179 165,180 164,181 161,181 161,183 164,184 161,185 161,187 164,187 165,188 163,190 159,190 158,189 158,180ZM152,179 157,179 158,180 158,183 157,184 158,185 158,189 157,190 155,188 155,186 154,186 154,189 153,190 151,189 151,180ZM144,179 146,180 146,187 148,187 148,180 149,179 151,180 151,187 148,190 146,190 143,187 143,180ZM137,179 142,179 143,180 141,181 141,189 140,190 138,188 138,181 136,180ZM133,179 135,180 135,187 138,188 137,190 133,190 132,189 132,180ZM125,179 127,180 127,187 129,187 129,180 130,179 132,180 132,186 131,188 128,190 124,187 124,180ZM119,179 122,179 124,181 123,183 120,181 120,184 119,185 120,187 123,185 124,186 124,188 122,190 120,190 117,187 117,181ZM217,178 221,181 220,182 218,181 216,182 221,185 221,187 218,190 216,190 213,187 214,185 215,185 216,187 218,187 218,186 214,184 214,180ZM185,182 186,180 189,178 193,181 193,183 193,180 194,179 199,179 201,182 199,184 198,182 196,181 196,183 198,183 200,185 200,187 202,183 202,180 205,179 207,183 208,189 207,190 205,187 203,187 201,190 199,190 198,189 198,186 196,186 196,189 195,190 193,188 193,185 193,187 190,190 188,190 185,186ZM95,160 95,163 98,165 103,165 107,163 106,160ZM92,159 94,157 108,157 110,160 110,164 109,166 106,168 96,168 94,167 92,164ZM93,153 94,152 108,152 109,154 108,155 94,155ZM93,148 94,147 107,147 108,149 107,150 94,150ZM93,143 94,142 100,142 101,139 103,142 108,142 109,144 108,145 94,145ZM84,139 88,139 93,144 93,150 89,161 90,164 89,167 88,167 86,164 86,159 90,150 90,146 89,146 86,150 84,162 83,163 81,161 83,149 85,145 87,144 87,142 85,142 83,140ZM243,139 245,138 246,139 246,143 251,146 253,146 255,148 253,150 243,145ZM239,138 240,139 240,145 230,150 228,148 230,146 236,144 236,140ZM226,138 226,168 230,168 229,167 235,162 236,159 236,154 229,157 227,155 229,153 236,150 239,150 240,151 239,161 238,163 232,168 251,168 248,167 244,162 243,159 243,151 244,150 247,150 255,154 253,157 246,154 246,157 248,163 252,165 253,168 256,168 256,138ZM80,138 80,168 111,168 111,138ZM123,143 128,139 138,134 158,121 167,116 170,116 214,143 214,173 213,174 198,174 197,173 197,152 168,135 140,152 140,173 139,174 124,174 123,173ZM168,107 117,138 117,173 116,174 80,174 80,182 86,196 87,196 100,210 108,216 111,217 116,221 139,232 153,237 156,237 160,239 169,241 181,237 184,237 203,230 221,221 237,210 251,195 256,184 256,174 222,174 221,173 221,139 211,132 201,127 181,114ZM80,109 80,124 113,124 150,101 155,99 161,94 169,90 182,99 224,124 256,124 256,109 221,109 204,99 198,94 169,77 167,77 162,81 137,95 134,98 116,109ZM256,79 221,79 196,63 183,56 178,52 168,47 115,79 80,79 80,98 112,98 117,94 167,64 169,64 177,68 187,75 215,91 224,98 256,98ZM81,32 85,28 90,27 91,29 89,31 86,31 84,34 86,35 91,35 91,31 93,30 94,31 94,39 97,39 98,38 98,31 99,30 101,32 101,35 107,34 107,32 100,29 103,27 108,29 110,31 110,35 106,38 101,39 99,42 93,42 91,40 91,38 90,39 89,38 84,38 81,35ZM240,19 236,21 237,25 242,29 247,22 243,20 243,23 241,24 240,23ZM97,19 97,23 105,23 105,19ZM85,19 85,22 88,24 94,23 94,19ZM256,49 221,49 168,17 116,49 80,49 80,70 114,70 168,37 223,70 256,70ZM228,22 240,16 240,13 241,12 244,17 248,18 254,22 253,24 250,23 244,32 248,36 253,38 255,41 252,42 241,34 234,40 228,42 227,41 228,39 231,38 239,32 232,23 229,24ZM82,15 84,14 85,16 94,16 94,13 95,12 97,13 97,16 105,16 108,14 109,15 109,23 106,26 98,26 97,29 95,30 94,27 87,27 82,23ZM226,12 226,43 256,43 256,12ZM170,12 175,14 195,27 208,34 213,38 221,42 220,41 220,38 221,37 220,36 221,35 220,34 220,13 221,12ZM117,42 166,12 117,12ZM80,12 80,43 111,43 111,12Z"/>
  <path transform="translate(4 8.39535) scale(0.162791)" fill="#cead10" fill-rule="evenodd" d="M124,271 123,271 122,273 124,273ZM103,269 105,270 105,268ZM177,263 178,263 181,267 181,273 179,276 177,276 175,274 175,265ZM175,263 173,268 174,269 173,272 175,276 180,276 182,274 182,265 180,263ZM163,263 161,265 160,271 161,272 161,275 164,277 168,276 168,275 167,276 164,276 162,273 162,266 165,263 167,264 168,266 168,263ZM147,262 150,265 150,272 148,275 146,275 144,273 144,265ZM186,262 188,264 188,275 187,276 195,275 195,273 194,275 191,275 189,273 190,272 189,271 190,270 189,269 189,263 190,262ZM145,262 143,264 143,274 145,276 148,276 150,275 151,273 151,264 149,262ZM198,262 200,263 200,274 199,275 203,275 206,274 206,273 205,274 202,273 201,271 201,262 202,261ZM128,261 129,262 129,272 127,274 131,274 130,273 130,268 131,267 135,269 135,273 134,274 138,275 136,273 136,268 138,261 134,261 135,262 135,266 134,267 131,267 130,266 130,263 132,261ZM211,260 211,263 212,264 212,273 211,274 219,273 219,272 215,273 213,271 213,268 216,266 217,267 217,265 216,266 213,265 213,261 214,260 218,261 217,260ZM225,258 223,260 223,268 226,272 232,271 232,267 231,266 232,264 229,264 231,270 230,271 227,271 224,267 224,261 227,258 230,260 230,258ZM110,258 111,259 111,265 109,272 110,271 113,272 111,269 112,266 115,265 117,267 117,271 115,272 118,272 119,273 118,272 118,266 120,259 116,259 118,260 118,262 116,265 113,265 112,264 112,260 114,258ZM242,255 235,257 237,258 237,263 238,264 238,269 237,270 240,270 245,268 245,267 243,269 241,269 239,267 239,264 241,262 243,263 243,261 242,262 239,262 238,261 238,257 239,256 242,256 243,257ZM100,255 96,255 95,256 95,260 99,266 97,268 95,268 93,265 93,268 96,269 100,268 101,265 96,259 96,257 98,255 101,257 101,259 101,256ZM148,253 190,253 151,253 150,252ZM69,244 70,243 71,244 70,245ZM275,243 274,245 271,245 267,247 266,245 269,243 272,243 273,242ZM265,243 266,242 268,243 267,244ZM70,242 71,241 72,242 71,243ZM267,242 271,240 274,240 275,241 271,243 268,243ZM263,241 264,240 265,241 264,242ZM70,239 71,238 72,239 71,240ZM275,238 273,240 270,240 269,241 266,241 265,240 273,237ZM75,237 77,239 76,240 75,247 72,248 70,245 73,244 72,243 73,238ZM68,238 69,237 70,238 69,239ZM233,236 235,235 238,237 248,239 251,242 249,245 246,246 235,247 233,241ZM66,235 67,236 66,240 69,241 68,242 65,242 67,244 64,246 63,245 63,241 65,237 64,236ZM39,236 40,235 46,236 48,239 47,240 40,239ZM288,235 289,234 290,235 289,236ZM277,235 275,237 272,237 271,238 269,237 274,234ZM267,235 266,237 263,237 262,236 266,234ZM232,235 233,234 234,235 233,236ZM104,235 105,234 106,235 105,236ZM71,235 72,234 73,236 72,237ZM68,235 69,234 70,236 69,237ZM44,235 45,234 48,234 49,235 48,236 45,236ZM269,234 270,233 273,233 274,234 273,235 270,235ZM41,234 42,233 45,234 44,235ZM66,233 67,232 68,233 67,234ZM39,233 40,232 42,233 41,234ZM268,232 271,230 273,231 271,233ZM68,232 71,230 72,231 71,233ZM42,230 44,229 47,230 48,232 46,234 43,233ZM288,228 290,231 289,234 287,231ZM268,230 269,228 272,229 269,231ZM66,227 66,228 61,232 63,232 67,229 69,230 60,237 63,238 61,246 62,247 63,245 64,246 69,245 73,250 75,250 76,249 78,239 79,238 80,239 79,237 78,238 74,236 75,235 72,233 75,232 78,234 81,234 80,233 76,233 72,228 69,230ZM273,226 270,228 268,228 267,226 265,226 265,228 263,230 259,231 265,229 266,230 265,232 258,234 264,232 267,233 261,236 263,237 262,238 264,237 267,237 268,238 260,241 262,241 264,243 265,249 269,246 275,244 276,246 277,245 277,242 275,237 278,236 278,235 277,235 274,231 274,230 277,228 274,229ZM47,226 49,225 53,227 52,228 49,228ZM286,223 288,224 288,228 287,229 285,224ZM289,223 290,222 291,223 290,224ZM172,220 175,219 176,222 173,223ZM164,219 166,219 168,222 166,227 164,227 162,225ZM300,220 296,222 295,219 292,219 295,222 294,223 291,223 290,222 284,223 289,241 290,241 289,236 292,234 293,231 295,232 295,237 293,240 296,237 296,231 297,230 300,238 302,238 305,236 304,233 303,236 300,234 299,230 302,228 302,227 292,231 288,227 289,224 290,226 291,226 293,223 296,222 299,223 298,225 293,227 300,225 299,224 301,221ZM43,219 44,222 43,223 39,222 39,223 42,223 46,225 45,226 40,225 43,226 45,228 44,229 38,227 38,228 41,230 40,232 35,230 39,232 37,236 37,239 42,239 47,242 49,242 49,239 50,238 49,236 50,235 53,236 53,235 50,235 49,234 51,231 53,232 53,231 49,231 47,229 48,228 53,229 52,228 55,227 50,225 53,223 52,222 50,222 48,225 45,223 46,222ZM175,218 174,219 171,219 172,228 173,228 173,224 174,223 176,224 176,227 177,227 177,224 176,223 177,220ZM165,218 162,220 162,226 164,228 166,228 168,225 168,220ZM184,217 183,218 179,218 179,219 181,218 182,219 183,227 183,220 182,219 185,218ZM150,217 151,226 152,226 154,220 156,227 159,221 159,218 157,223 155,217 152,223 151,222 151,217ZM193,216 192,216 193,219 192,220 190,220 188,217 189,225 190,225 189,222 192,220 194,224 195,224 194,223ZM143,215 145,217 143,224 144,224 145,217 146,216 148,217 148,216ZM197,214 196,216 199,223ZM139,213 135,213 135,217 137,218 136,221 135,221 133,218 133,220 135,222 138,221 138,218 135,215 137,213 140,215ZM206,211 205,211 207,215 206,217 202,213 200,213 203,221 204,221 202,217 203,215 207,219 209,219 206,213ZM132,211 131,211 130,215 127,218 125,216 125,214 128,209 127,209 124,214 125,218 129,218ZM212,207 209,209 209,211 213,217 217,215 214,216 212,215 212,213 214,212 214,211 212,212 210,211ZM120,206 122,207 121,210 118,208ZM26,206 27,214 28,215 28,225 22,234 17,239 50,250 53,250 70,256 80,258 83,260 82,262 82,267 82,262 83,261 85,249 88,245 90,246 95,246 96,247 101,247 102,248 107,248 104,247 105,238 105,242 103,247 90,245 87,242 89,239 95,237 99,237 103,235 106,236 106,231 107,230 105,228 98,226 93,226 88,224 84,224 83,223 79,223 78,222 76,222 83,224 102,227 106,229 106,231 102,235 97,237 93,237 87,240 83,254 83,258 82,259 19,240 18,238 23,233 28,225 28,214 26,208 27,206 30,208 54,216 57,216 61,218 74,221 61,218 51,214 48,214 45,212ZM321,238 315,232 310,224 310,214 312,208 312,205 308,207 281,216 272,218 281,216 288,213 291,213 294,211 297,211 303,208 311,206 312,207 310,213 310,225 320,238 317,240 296,247 293,247 286,250 283,250 276,253 273,253 260,257 256,257 255,258 253,253 251,240 248,238 237,236 234,234 232,231 232,229 237,226 242,226 243,225 251,224 252,223 260,222 264,220 270,219 264,220 260,222 251,223 246,225 237,226 232,228 231,230 232,231 232,236 234,243 234,247 233,248 244,247 250,245 252,248 253,256 254,257 254,262 255,263 255,274 253,276 248,278 235,280 234,281 228,281 227,282 210,283 209,284 197,284 196,285 143,285 142,284 129,284 128,283 105,281 104,280 99,280 98,279 87,277 82,274 82,275 94,279 98,279 104,281 110,281 111,282 117,282 118,283 139,284 140,285 163,285 164,286 199,285 200,284 211,284 212,283 221,283 222,282 235,281 236,280 249,278 255,275 256,273 255,261 254,260 255,258 269,255 277,252 280,252 287,249 290,249 309,242 312,242ZM218,204 216,207 218,209 221,208 223,210 222,212 219,211 219,212 221,213 223,212 223,208 218,208 217,206 218,205 221,205ZM120,204 115,212 116,213 116,212 119,210 120,211 119,214 120,215 120,213 123,209 123,206ZM197,202 198,201 199,202 198,203ZM165,201 167,201 169,205 166,209 163,207ZM186,200 188,200 190,204 190,206 188,208 185,206 184,203ZM193,200 194,199 195,201 194,202ZM179,200 180,202 180,209 181,209 180,200ZM177,200 171,201 174,202 174,209 175,209 175,202 177,201ZM167,200 165,200 163,202 163,208 165,210 168,209 169,207 169,202ZM161,200 160,200 160,202 157,207 156,206 156,200 155,200 156,208 158,208ZM118,203 114,200 115,202 110,209 115,203 117,204ZM224,199 223,202 225,204 229,203 230,204 229,207 227,206 227,207 229,207 231,205 230,202 225,203 224,200 225,199 227,200 227,199ZM184,200 184,206 186,208 189,208 190,207 190,201 188,199ZM148,198 147,207 151,208 151,207 148,206 149,203 151,204 151,203 149,203 148,201 150,199 152,200 152,199 149,199ZM141,197 144,201 143,203 140,205 139,204 139,201ZM197,196 198,199 197,202 194,198 192,198 194,206 195,206 194,205 194,202 195,201 198,205 200,205ZM140,196 137,205 141,206 143,205 144,203 144,198ZM204,181 206,185 205,186 202,185ZM195,181 197,180 199,183 196,184ZM189,180 192,182 192,186 190,188 187,186 187,182ZM153,181 155,180 156,183 154,184ZM176,180 176,189 177,189 177,184 178,183 180,189 182,184 184,189 184,180 182,180 180,186 178,180ZM159,180 159,189 163,189 164,188 161,188 160,187 160,185 163,184 161,184 160,181 161,180 164,180ZM152,180 152,189 153,189 153,186 154,185 156,186 157,189 157,185 156,184 157,183 157,180ZM144,180 144,187 146,189 148,189 150,187 150,180 149,180 149,187 148,188 145,187 145,180ZM137,180 139,181 139,188 140,189 140,181 142,180ZM133,180 133,189 137,189 137,188 134,187 134,180ZM131,180 130,180 130,187 129,188 126,187 126,180 125,180 125,187 127,189 130,188 131,186ZM119,180 118,181 118,187 120,189 122,189 123,186 120,188 118,185 120,180 121,180 122,182 123,182 122,180ZM220,181 217,179 215,180 215,184 219,186 218,188 216,188 215,186 214,186 213,188 211,188 210,187 210,180 209,180 209,189 213,189 214,187 216,189 218,189 220,187 220,185 215,182 217,180ZM186,182 186,186 188,189 190,189 193,184 195,189 195,186 196,185 199,186 199,189 201,189 203,186 205,186 207,189 205,180 203,180 202,186 200,188 198,184 200,182 199,180 194,180 194,183 193,184 190,179 187,180ZM94,160 95,159 106,159 108,161 108,163 103,166 98,166 94,163ZM93,159 93,164 94,166 96,167 106,167 108,166 109,164 108,158 94,158ZM94,153 94,154 108,154 108,153ZM94,148 94,149 107,149 107,148ZM108,143 103,143 101,140 100,143 94,143 94,144 108,144ZM84,140 87,141 88,144 86,145 84,149 82,161 83,162 85,150 87,147 90,145 91,146 91,150 87,159 87,164 88,166 89,166 88,161 92,150 92,144 88,140ZM244,139 244,145 253,149 254,148 253,147 251,147 245,143 245,139ZM239,139 237,140 237,144 236,145 234,145 229,148 230,149 235,146 239,145ZM225,138 226,137 256,137 257,138 257,168 256,169 253,169 252,166 247,163 245,157 245,154 246,153 253,156 254,154 252,154 247,151 244,151 244,159 245,162 248,166 252,168 251,169 232,169 231,168 233,167 238,161 239,151 236,151 228,155 229,156 236,153 237,154 236,162 230,167 231,168 230,169 226,169 225,168ZM79,138 80,137 111,137 112,138 112,168 111,169 80,169 79,168ZM124,143 124,173 139,173 139,152 168,134 198,152 198,173 213,173 213,143 170,117 165,118ZM168,106 181,113 201,126 211,131 222,139 222,173 256,173 257,174 257,184 252,195 237,211 221,222 203,231 184,238 181,238 169,242 160,240 156,238 153,238 139,233 116,222 111,218 108,217 100,211 87,197 85,196 79,182 79,174 80,173 116,173 116,138 129,129 139,124ZM79,109 80,108 116,108 131,99 137,94 142,92 167,76 169,76 198,93 204,98 221,108 256,108 257,109 257,124 256,125 224,125 182,100 169,91 161,95 155,100 150,102 113,125 80,125 79,124ZM79,79 80,78 115,78 169,46 221,78 256,78 257,79 257,98 256,99 224,99 215,92 169,65 167,65 145,79 140,81 112,99 80,99 79,98ZM82,32 82,35 84,37 89,37 90,38 91,37 93,41 99,41 101,38 106,37 109,35 109,31 102,28 101,29 107,31 108,34 105,36 101,36 99,31 99,38 97,40 94,40 93,39 93,31 92,31 92,35 91,36 86,36 83,34 86,30 89,30 90,28 85,29ZM240,18 241,19 241,23 242,23 242,20 243,19 248,22 242,30 241,30 235,23 235,21ZM96,19 97,18 105,18 106,19 106,23 105,24 97,24 96,23ZM84,19 85,18 94,18 95,19 95,23 88,25 84,22ZM79,49 80,48 116,48 168,16 221,48 256,48 257,49 257,70 256,71 223,71 168,38 114,71 80,71 79,70ZM253,22 248,19 244,18 241,13 241,16 229,22 229,23 232,22 240,32 237,35 228,40 228,41 234,39 241,33 250,40 254,41 253,39 248,37 243,32 250,22 253,23ZM83,15 83,23 87,26 94,26 95,29 96,29 96,27 98,25 106,25 108,23 108,15 105,17 97,17 96,16 96,13 95,13 95,16 94,17 85,17 84,15ZM225,12 226,11 256,11 257,12 257,43 256,44 226,44 225,43ZM169,12 170,11 221,11 222,12 221,13 221,34 222,35 221,36 222,37 221,38 221,41 222,42 221,43 218,42 208,35ZM116,42 116,12 117,11 166,11 167,12 117,43ZM79,12 80,11 111,11 112,12 112,43 111,44 80,44 79,43ZM76,8 76,183 80,194 84,200 97,213 111,223 118,226 120,228 138,236 167,245 181,242 206,233 217,228 236,216 252,201 256,195 256,193 258,191 261,183 261,8Z"/>
</svg>
